<?xml version="1.0" encoding="utf-8"?>
<!-- Generator: Adobe Illustrator 15.1.0, SVG Export Plug-In . SVG Version: 6.00 Build 0)  -->
<!DOCTYPE svg PUBLIC "-//W3C//DTD SVG 1.1//EN" "http://www.w3.org/Graphics/SVG/1.1/DTD/svg11.dtd">
<svg version="1.1" id="Warstwa_1" xmlns="http://www.w3.org/2000/svg" xmlns:xlink="http://www.w3.org/1999/xlink" x="0px" y="0px"
	 width="85px" height="65px" viewBox="0 0 85 65" enable-background="new 0 0 85 65" xml:space="preserve">
<g>
	<path fill="#0AB697" d="M69.241,20.033h-2.453c-0.204,0-0.381,0.071-0.529,0.215c-0.149,0.145-0.223,0.315-0.223,0.513v2.504
		c0,0.198,0.073,0.369,0.223,0.512c0.148,0.144,0.325,0.216,0.529,0.216h2.453c0.204,0,0.381-0.072,0.53-0.216
		c0.148-0.143,0.223-0.313,0.223-0.512v-2.504c0-0.197-0.074-0.368-0.223-0.513C69.622,20.104,69.445,20.033,69.241,20.033"/>
	<path fill="#77C8B2" d="M76.184,20.033h-2.452c-0.206,0-0.382,0.071-0.53,0.215c-0.149,0.145-0.223,0.315-0.223,0.513v2.504
		c0,0.198,0.073,0.369,0.223,0.512c0.148,0.144,0.324,0.216,0.53,0.216h2.452c0.204,0,0.382-0.072,0.53-0.216
		c0.148-0.143,0.223-0.313,0.223-0.512v-2.504c0-0.197-0.074-0.368-0.223-0.513C76.565,20.104,76.388,20.033,76.184,20.033"/>
	<path fill="#B1DDCF" d="M83.095,20.033h-2.453c-0.204,0-0.381,0.071-0.529,0.215c-0.149,0.145-0.224,0.315-0.224,0.513v2.504
		c0,0.198,0.074,0.369,0.224,0.512c0.148,0.144,0.325,0.216,0.529,0.216h2.453c0.204,0,0.381-0.072,0.53-0.216
		c0.148-0.143,0.223-0.313,0.223-0.512v-2.504c0-0.197-0.074-0.368-0.223-0.513C83.476,20.104,83.299,20.033,83.095,20.033"/>
	<path fill="#1E3844" d="M61.952,41.127V29.443c0-0.186-0.067-0.345-0.2-0.478c-0.135-0.133-0.294-0.201-0.477-0.201H59.37
		c-0.185,0-0.344,0.068-0.477,0.201c-0.135,0.133-0.201,0.292-0.201,0.478v11.684c0,0.185,0.066,0.343,0.201,0.476
		c0.133,0.135,0.292,0.202,0.477,0.202h1.905c0.183,0,0.342-0.067,0.477-0.202C61.885,41.47,61.952,41.312,61.952,41.127
		 M61.4,24.002h-2.156c-0.184,0-0.343,0.066-0.476,0.199c-0.136,0.135-0.202,0.293-0.202,0.476v1.957
		c0,0.184,0.066,0.343,0.202,0.476c0.133,0.135,0.292,0.202,0.476,0.202H61.4c0.184,0,0.343-0.067,0.477-0.202
		c0.133-0.133,0.201-0.292,0.201-0.476v-1.957c0-0.183-0.068-0.341-0.201-0.476C61.743,24.068,61.584,24.002,61.4,24.002
		 M52.072,37.09v-5.315h3.235c0.184,0,0.342-0.066,0.476-0.201c0.135-0.133,0.201-0.292,0.201-0.477v-1.653
		c0-0.186-0.066-0.345-0.201-0.478c-0.134-0.133-0.292-0.201-0.476-0.201h-3.235v-4.088c0-0.183-0.066-0.341-0.2-0.476
		c-0.134-0.133-0.292-0.199-0.478-0.199H49.49c-0.186,0-0.343,0.066-0.478,0.199c-0.134,0.135-0.2,0.293-0.2,0.476v4.088h-1.654
		c-0.185,0-0.343,0.068-0.478,0.201c-0.133,0.133-0.2,0.292-0.2,0.478v1.653c0,0.185,0.067,0.344,0.2,0.477
		c0.135,0.135,0.293,0.201,0.478,0.201h1.654v5.392c0,1.537,0.418,2.695,1.254,3.472c0.836,0.777,2.048,1.167,3.636,1.167h1.855
		c0.185,0,0.343-0.067,0.477-0.202c0.134-0.133,0.201-0.291,0.201-0.476v-1.654c0-0.185-0.067-0.343-0.201-0.478
		c-0.134-0.133-0.292-0.2-0.477-0.2h-1.528c-0.719,0-1.226-0.146-1.518-0.438C52.219,38.063,52.072,37.642,52.072,37.09
		 M44.978,41.127v-6.745c0-1.738-0.423-3.151-1.268-4.238c-0.844-1.085-2.211-1.63-4.1-1.63c-1.405,0-2.607,0.503-3.61,1.506v-0.576
		c0-0.186-0.067-0.345-0.201-0.478s-0.292-0.201-0.477-0.201h-1.905c-0.185,0-0.343,0.068-0.477,0.201s-0.2,0.292-0.2,0.478v11.684
		c0,0.185,0.066,0.343,0.2,0.476c0.134,0.135,0.292,0.202,0.477,0.202h1.905c0.185,0,0.343-0.067,0.477-0.202
		C35.933,41.47,36,41.312,36,41.127v-6.368c0-1.005,0.259-1.807,0.777-2.407c0.518-0.602,1.211-0.904,2.082-0.904
		c0.936,0,1.646,0.294,2.131,0.879c0.483,0.584,0.727,1.396,0.727,2.433v6.368c0,0.185,0.067,0.343,0.2,0.476
		c0.134,0.135,0.292,0.202,0.477,0.202h1.905c0.185,0,0.343-0.067,0.477-0.202C44.909,41.47,44.978,41.312,44.978,41.127
		 M21.456,33.831c0.067-0.603,0.347-1.138,0.841-1.605c0.492-0.468,1.174-0.702,2.044-0.702c1.671,0,2.599,0.769,2.782,2.308H21.456
		z M24.341,28.514c-1.221,0-2.3,0.301-3.235,0.904c-0.937,0.602-1.655,1.417-2.156,2.443c-0.502,1.028-0.752,2.17-0.752,3.423
		c0,1.339,0.25,2.517,0.752,3.536c0.501,1.02,1.216,1.814,2.144,2.383c0.928,0.567,2.01,0.852,3.248,0.852
		c1.169,0,2.188-0.195,3.059-0.589c0.869-0.394,1.533-0.856,1.993-1.392c0.459-0.535,0.69-0.979,0.69-1.329
		c0-0.167-0.067-0.313-0.202-0.439c-0.133-0.124-0.292-0.188-0.476-0.188h-2.006c-0.201,0-0.359,0.025-0.477,0.074
		c-0.118,0.052-0.268,0.143-0.45,0.277c-0.502,0.385-1.213,0.576-2.132,0.576c-0.786,0-1.464-0.213-2.031-0.64
		c-0.569-0.427-0.854-0.998-0.854-1.718h8.376c0.184,0,0.342-0.065,0.476-0.2c0.135-0.134,0.2-0.292,0.2-0.477v-1.129
		c0-1.152-0.255-2.214-0.764-3.184c-0.511-0.97-1.233-1.743-2.17-2.319C26.639,28.804,25.561,28.514,24.341,28.514 M8.167,27.387
		c1.37,0,2.403,0.343,3.096,1.026c0.694,0.686,1.074,1.606,1.142,2.759c0.033,0.418,0.051,1.038,0.051,1.856
		c0,0.819-0.018,1.438-0.051,1.854c-0.067,1.154-0.438,2.073-1.116,2.759c-0.677,0.687-1.676,1.028-2.995,1.028H4.808V27.387H8.167z
		 M15.789,31.172c-0.133-2.189-0.818-3.891-2.056-5.103s-3.051-1.817-5.44-1.817H2.1c-0.185,0-0.344,0.067-0.478,0.2
		c-0.134,0.134-0.2,0.294-0.2,0.477v16.198c0,0.185,0.066,0.343,0.2,0.476c0.134,0.135,0.293,0.202,0.478,0.202h6.318
		c2.34,0,4.121-0.606,5.341-1.818s1.897-2.913,2.03-5.104c0.034-0.417,0.051-1.035,0.051-1.854
		C15.84,32.21,15.823,31.59,15.789,31.172 M62.072,19.37V7.686c0-0.184-0.067-0.343-0.201-0.476
		c-0.134-0.134-0.292-0.201-0.476-0.201h-1.907c-0.183,0-0.341,0.067-0.476,0.201c-0.134,0.133-0.2,0.292-0.2,0.476V19.37
		c0,0.185,0.066,0.344,0.2,0.477c0.135,0.135,0.293,0.202,0.476,0.202h1.907c0.184,0,0.342-0.067,0.476-0.202
		C62.005,19.714,62.072,19.555,62.072,19.37 M61.521,2.244h-2.156c-0.185,0-0.344,0.067-0.478,0.201
		c-0.133,0.135-0.199,0.293-0.199,0.476v1.957c0,0.184,0.066,0.342,0.199,0.476c0.134,0.135,0.293,0.2,0.478,0.2h2.156
		c0.184,0,0.342-0.065,0.477-0.2c0.134-0.134,0.2-0.292,0.2-0.476V2.921c0-0.183-0.066-0.341-0.2-0.476
		C61.862,2.312,61.704,2.244,61.521,2.244 M49.585,9.768c0.953,0,1.713,0.309,2.281,0.927s0.854,1.564,0.854,2.834
		c0,0.135-0.017,0.368-0.05,0.702c-0.102,1.037-0.428,1.807-0.979,2.307c-0.552,0.501-1.253,0.753-2.106,0.753
		c-0.836,0-1.53-0.248-2.081-0.74c-0.552-0.493-0.869-1.184-0.953-2.068c-0.017-0.167-0.025-0.485-0.025-0.953
		c0-0.469,0.009-0.786,0.025-0.952c0.084-0.854,0.404-1.535,0.965-2.044C48.076,10.021,48.766,9.768,49.585,9.768 M55.929,12.65
		c-0.05-1.053-0.31-2.027-0.776-2.921c-0.469-0.894-1.116-1.613-1.944-2.157c-0.827-0.543-1.785-0.814-2.871-0.814
		c-0.919,0-1.688,0.151-2.308,0.452c-0.617,0.301-1.11,0.652-1.479,1.052V2.921c0-0.183-0.066-0.341-0.2-0.476
		c-0.134-0.134-0.294-0.201-0.477-0.201h-1.905c-0.185,0-0.344,0.067-0.477,0.201c-0.135,0.135-0.201,0.293-0.201,0.476V19.37
		c0,0.185,0.066,0.344,0.201,0.477c0.133,0.135,0.292,0.202,0.477,0.202h1.905c0.183,0,0.343-0.067,0.477-0.202
		c0.134-0.133,0.2-0.292,0.2-0.477v-0.576c0.352,0.401,0.836,0.752,1.454,1.053c0.619,0.303,1.396,0.452,2.332,0.452
		c1.086,0,2.044-0.271,2.871-0.815c0.828-0.543,1.476-1.262,1.944-2.155c0.467-0.896,0.727-1.869,0.776-2.923
		c0.017-0.166,0.025-0.458,0.025-0.877C55.954,13.11,55.945,12.818,55.929,12.65 M38.902,10.018h1.631
		c0.184,0,0.342-0.065,0.476-0.2c0.134-0.134,0.201-0.292,0.201-0.477V7.686c0-0.184-0.067-0.343-0.201-0.476
		c-0.134-0.134-0.292-0.201-0.476-0.201h-1.129c-0.769,0-1.404,0.101-1.905,0.301c-0.502,0.201-0.979,0.519-1.43,0.952V7.686
		c0-0.184-0.067-0.343-0.2-0.476c-0.134-0.134-0.293-0.201-0.477-0.201h-1.905c-0.185,0-0.343,0.067-0.477,0.201
		c-0.134,0.133-0.2,0.292-0.2,0.476V19.37c0,0.185,0.066,0.344,0.2,0.477c0.134,0.135,0.292,0.202,0.477,0.202h1.905
		c0.184,0,0.343-0.067,0.477-0.202c0.133-0.133,0.2-0.292,0.2-0.477v-6.519c0-1.003,0.222-1.727,0.665-2.17
		C37.177,10.24,37.9,10.018,38.902,10.018 M24.135,9.768c0.803,0,1.482,0.199,2.044,0.602c0.559,0.401,0.89,1.078,0.99,2.03
		c0.033,0.335,0.05,0.711,0.05,1.129c0,0.419-0.017,0.793-0.05,1.128c-0.101,0.954-0.432,1.631-0.99,2.032
		c-0.562,0.4-1.241,0.602-2.044,0.602s-1.484-0.201-2.044-0.602c-0.561-0.401-0.891-1.078-0.99-2.032
		c-0.018-0.167-0.024-0.543-0.024-1.128s0.007-0.961,0.024-1.129c0.1-0.952,0.43-1.629,0.99-2.03
		C22.65,9.967,23.332,9.768,24.135,9.768 M30.428,12.275c-0.084-1.037-0.393-1.973-0.927-2.809
		c-0.536-0.836-1.267-1.497-2.195-1.981C26.379,7,25.321,6.758,24.135,6.758c-1.188,0-2.244,0.242-3.172,0.728
		c-0.928,0.484-1.66,1.146-2.194,1.981c-0.536,0.836-0.845,1.771-0.929,2.809c-0.017,0.2-0.025,0.627-0.025,1.278
		c0,0.635,0.009,1.054,0.025,1.253c0.084,1.021,0.393,1.949,0.929,2.784c0.534,0.837,1.267,1.497,2.194,1.98
		c0.928,0.484,1.984,0.728,3.172,0.728c1.187,0,2.244-0.243,3.171-0.728c0.929-0.483,1.659-1.144,2.195-1.98
		c0.534-0.835,0.843-1.764,0.927-2.784c0.034-0.401,0.051-0.818,0.051-1.253C30.479,13.102,30.462,12.676,30.428,12.275"/>
	<path fill="#0AB697" d="M58.592,60.993c0.405-1.311,0.65-2.132,0.736-2.463c0.021,0.092,0.055,0.22,0.104,0.38
		c0.048,0.161,0.263,0.856,0.644,2.083H58.592z M62.077,63.361l-2.017-5.717h-1.477l-2.009,5.717h1.301l0.412-1.355h2.076
		l0.413,1.355H62.077z M54.15,62.364h-2.799l2.726-3.917v-0.779h-4.089v0.998h2.656l-2.73,3.912v0.783h4.236V62.364z M44.029,62.364
		h-0.519v-3.707h0.643c1.08,0,1.62,0.612,1.62,1.835C45.773,61.74,45.191,62.364,44.029,62.364 M46.256,58.405
		c-0.514-0.491-1.235-0.737-2.165-0.737h-1.788v5.693h1.613c1.007,0,1.777-0.249,2.311-0.747c0.533-0.499,0.801-1.217,0.801-2.154
		C47.027,59.58,46.77,58.895,46.256,58.405 M38.883,62.364h-2.072v-1.468h1.928v-0.988h-1.928v-1.251h2.072v-0.989h-3.279v5.693
		h3.279V62.364z M31.938,57.668H30.73v5.693h1.207V57.668z M27.781,57.668h-1.188l-0.725,3.108c-0.047,0.187-0.1,0.433-0.156,0.734
		c-0.058,0.302-0.098,0.554-0.125,0.757c-0.027-0.21-0.069-0.462-0.124-0.756c-0.055-0.293-0.101-0.51-0.136-0.654l-0.83-3.189
		h-1.141l-0.83,3.189c-0.049,0.172-0.102,0.413-0.158,0.724c-0.056,0.309-0.091,0.538-0.106,0.687
		c-0.057-0.421-0.149-0.918-0.276-1.491l-0.728-3.108H20.07l1.452,5.693h1.371l0.767-2.982c0.034-0.133,0.083-0.354,0.145-0.664
		c0.063-0.311,0.102-0.534,0.117-0.676c0.01,0.115,0.049,0.339,0.118,0.672c0.069,0.334,0.117,0.554,0.146,0.66l0.771,2.99h1.375
		L27.781,57.668z"/>
	<path fill="#0AB697" d="M61.466,51.045c-0.196-0.255-0.562-0.511-1.094-0.764c-0.402-0.193-0.657-0.326-0.766-0.4
		c-0.107-0.074-0.187-0.15-0.235-0.229c-0.05-0.079-0.074-0.172-0.074-0.278c0-0.172,0.061-0.311,0.184-0.417
		c0.121-0.106,0.297-0.159,0.525-0.159c0.191,0,0.387,0.025,0.586,0.074c0.198,0.049,0.449,0.136,0.754,0.26l0.39-0.937
		c-0.294-0.129-0.575-0.227-0.844-0.297c-0.269-0.071-0.551-0.104-0.847-0.104c-0.603,0-1.074,0.144-1.416,0.432
		c-0.341,0.287-0.513,0.685-0.513,1.188c0,0.268,0.054,0.501,0.157,0.701s0.242,0.375,0.416,0.525s0.436,0.309,0.783,0.471
		c0.371,0.178,0.617,0.307,0.738,0.386c0.12,0.081,0.211,0.165,0.273,0.252s0.094,0.187,0.094,0.298c0,0.199-0.07,0.35-0.213,0.452
		c-0.141,0.101-0.344,0.151-0.609,0.151c-0.221,0-0.463-0.035-0.729-0.105s-0.591-0.19-0.976-0.362v1.122
		c0.467,0.228,1.005,0.343,1.613,0.343c0.658,0,1.173-0.148,1.543-0.443c0.37-0.297,0.556-0.702,0.556-1.216
		C61.763,51.614,61.664,51.301,61.466,51.045 M51.967,51.199c0.404-1.31,0.65-2.133,0.735-2.465
		c0.021,0.094,0.056,0.221,0.103,0.382c0.049,0.16,0.264,0.855,0.646,2.083H51.967z M55.451,53.566l-2.017-5.717h-1.476l-2.01,5.717
		h1.301l0.412-1.354h2.076l0.413,1.354H55.451z M47,47.874h-1.087v2.694c0,0.308,0.02,0.829,0.059,1.57h-0.027l-2.473-4.265h-1.522
		v5.692h1.079v-2.678c0-0.325-0.025-0.867-0.075-1.629h0.035l2.478,4.307H47V47.874z M31.027,47.874h-1.309l1.889,3.517v2.176h1.199
		v-2.215l1.888-3.478h-1.301l-1.188,2.344L31.027,47.874z M27.294,52.569h-2.8l2.727-3.916v-0.779h-4.089v0.997h2.655l-2.73,3.914
		v0.781h4.237V52.569z M19.321,48.91c0.216,0.074,0.43,0.162,0.643,0.265l0.39-0.98c-0.559-0.269-1.113-0.401-1.667-0.401
		c-0.543,0-1.016,0.117-1.419,0.355c-0.404,0.237-0.714,0.578-0.93,1.024c-0.216,0.445-0.323,0.964-0.323,1.556
		c0,0.938,0.22,1.66,0.658,2.163c0.438,0.502,1.072,0.754,1.9,0.754c0.576,0,1.098-0.099,1.565-0.293V52.34
		c-0.568,0.2-1.052,0.301-1.452,0.301c-0.952,0-1.43-0.635-1.43-1.905c0-0.609,0.124-1.085,0.374-1.427
		c0.25-0.341,0.602-0.512,1.056-0.512C18.894,48.797,19.106,48.835,19.321,48.91 M12.298,54.035c0.101-0.14,0.243-0.296,0.426-0.469
		h-0.698c-0.27,0.2-0.454,0.377-0.553,0.53c-0.1,0.153-0.148,0.316-0.148,0.491c0,0.268,0.09,0.482,0.268,0.647
		s0.412,0.248,0.706,0.248c0.192,0,0.395-0.031,0.607-0.09V54.7c-0.155,0.046-0.305,0.069-0.448,0.069
		c-0.09,0-0.164-0.024-0.224-0.078c-0.058-0.05-0.087-0.131-0.087-0.24C12.146,54.316,12.197,54.178,12.298,54.035 M9.833,51.199
		c0.405-1.31,0.651-2.133,0.736-2.465c0.021,0.094,0.055,0.221,0.104,0.382c0.048,0.16,0.263,0.855,0.645,2.083H9.833z
		 M13.318,53.566l-2.017-5.717H9.825l-2.009,5.717h1.301l0.412-1.354h2.076l0.412,1.354H13.318z M5.311,53.566v-0.997H3.002v-1.65
		l1.011-0.615l-0.454-0.763l-0.557,0.342v-2.009H1.794v2.741l-0.709,0.433l0.44,0.764l0.269-0.159v1.914H5.311z"/>
</g>
</svg>
