<?xml version="1.0" encoding="utf-8"?>
<!-- Generator: Adobe Illustrator 15.1.0, SVG Export Plug-In . SVG Version: 6.00 Build 0)  -->
<!DOCTYPE svg PUBLIC "-//W3C//DTD SVG 1.1//EN" "http://www.w3.org/Graphics/SVG/1.1/DTD/svg11.dtd">
<svg version="1.1" id="Warstwa_1" xmlns="http://www.w3.org/2000/svg" xmlns:xlink="http://www.w3.org/1999/xlink" x="0px" y="0px"
	 width="240px" height="180px" viewBox="0 0 240 180" enable-background="new 0 0 240 180" xml:space="preserve">
<g>
	<path fill="#FFFFFF" d="M197.218,52.767h-7.083c-0.599,0-1.106,0.208-1.535,0.624s-0.642,0.908-0.642,1.478v7.237
		c0,0.573,0.213,1.063,0.642,1.477c0.429,0.416,0.937,0.623,1.535,0.623h7.083c0.588,0,1.101-0.207,1.535-0.623
		c0.423-0.414,0.647-0.903,0.647-1.477v-7.237c0-0.569-0.225-1.062-0.647-1.478C198.318,52.975,197.806,52.767,197.218,52.767"/>
	<path fill="#FFFFFF" d="M217.29,52.767h-7.087c-0.601,0-1.108,0.208-1.539,0.624c-0.429,0.416-0.643,0.908-0.643,1.478v7.237
		c0,0.573,0.214,1.063,0.643,1.477c0.431,0.416,0.938,0.623,1.539,0.623h7.087c0.587,0,1.095-0.207,1.529-0.623
		c0.423-0.414,0.647-0.903,0.647-1.477v-7.237c0-0.569-0.225-1.062-0.647-1.478C218.385,52.975,217.877,52.767,217.29,52.767"/>
	<path fill="#FFFFFF" d="M237.263,52.767h-7.087c-0.594,0-1.104,0.208-1.532,0.624c-0.435,0.416-0.647,0.908-0.647,1.478v7.237
		c0,0.573,0.213,1.063,0.647,1.477c0.428,0.416,0.938,0.623,1.532,0.623h7.087c0.59,0,1.102-0.207,1.524-0.623
		c0.434-0.414,0.652-0.903,0.652-1.477v-7.237c0-0.569-0.219-1.062-0.652-1.478C238.364,52.975,237.853,52.767,237.263,52.767"/>
	<path fill="#FFFFFF" d="M176.153,113.735V79.962c0-0.537-0.196-0.991-0.581-1.383c-0.391-0.387-0.846-0.579-1.377-0.579h-5.508
		c-0.535,0-0.993,0.192-1.38,0.579c-0.385,0.392-0.579,0.846-0.579,1.383v33.772c0,0.525,0.194,0.987,0.579,1.374
		c0.387,0.389,0.845,0.577,1.38,0.577h5.508c0.531,0,0.986-0.188,1.377-0.577C175.957,114.722,176.153,114.26,176.153,113.735
		 M174.563,64.228h-6.24c-0.532,0-0.991,0.194-1.372,0.58c-0.387,0.392-0.582,0.846-0.582,1.383v5.65
		c0,0.531,0.195,0.99,0.582,1.377c0.381,0.387,0.84,0.58,1.372,0.58h6.24c0.525,0,0.985-0.193,1.371-0.58
		c0.385-0.387,0.579-0.846,0.579-1.377v-5.65c0-0.537-0.194-0.991-0.579-1.383C175.548,64.422,175.088,64.228,174.563,64.228
		 M147.6,102.067V86.695h9.345c0.529,0,0.99-0.188,1.379-0.574c0.385-0.387,0.578-0.85,0.578-1.377v-4.781
		c0-0.537-0.193-0.991-0.578-1.383c-0.389-0.387-0.85-0.579-1.379-0.579H147.6v-11.81c0-0.537-0.194-0.991-0.581-1.383
		c-0.391-0.386-0.85-0.58-1.38-0.58h-5.507c-0.531,0-0.997,0.194-1.383,0.58c-0.387,0.392-0.58,0.846-0.58,1.383V78h-4.781
		c-0.53,0-0.985,0.192-1.373,0.579c-0.39,0.392-0.583,0.846-0.583,1.383v4.781c0,0.527,0.193,0.99,0.583,1.377
		c0.388,0.387,0.843,0.574,1.373,0.574h4.781v15.59c0,4.448,1.208,7.792,3.632,10.035c2.41,2.247,5.914,3.366,10.504,3.366h5.371
		c0.526,0,0.985-0.188,1.372-0.577c0.386-0.387,0.577-0.849,0.577-1.374v-4.786c0-0.532-0.191-0.983-0.577-1.376
		c-0.387-0.387-0.846-0.582-1.372-0.582h-4.427c-2.076,0-3.542-0.421-4.386-1.264C148.013,104.879,147.6,103.659,147.6,102.067
		 M127.085,113.735v-19.5c0-5.019-1.22-9.105-3.662-12.245c-2.437-3.144-6.391-4.709-11.848-4.709c-4.06,0-7.539,1.449-10.435,4.348
		v-1.666c0-0.537-0.193-0.991-0.58-1.383C100.171,78.193,99.715,78,99.181,78h-5.505c-0.537,0-0.995,0.192-1.381,0.579
		c-0.384,0.392-0.577,0.846-0.577,1.383v33.772c0,0.525,0.193,0.987,0.577,1.374c0.387,0.389,0.845,0.577,1.381,0.577h5.505
		c0.534,0,0.99-0.188,1.379-0.577c0.387-0.387,0.58-0.849,0.58-1.374V95.323c0-2.897,0.746-5.216,2.247-6.96
		c1.496-1.734,3.5-2.604,6.014-2.604c2.707,0,4.755,0.844,6.164,2.535c1.399,1.69,2.1,4.037,2.1,7.028v18.412
		c0,0.525,0.188,0.987,0.579,1.374c0.388,0.389,0.844,0.577,1.374,0.577h5.511c0.531,0,0.994-0.188,1.377-0.577
		C126.891,114.722,127.085,114.26,127.085,113.735 M59.1,92.64c0.193-1.738,1.005-3.282,2.429-4.636
		c1.425-1.353,3.395-2.028,5.909-2.028c4.829,0,7.511,2.222,8.043,6.664H59.1z M67.438,77.281c-3.53,0-6.645,0.864-9.353,2.604
		c-2.704,1.744-4.781,4.096-6.232,7.072c-1.449,2.971-2.171,6.265-2.171,9.894c0,3.858,0.722,7.271,2.171,10.214
		c1.451,2.951,3.514,5.249,6.197,6.889c2.682,1.643,5.814,2.463,9.388,2.463c3.379,0,6.326-0.571,8.842-1.701
		c2.51-1.138,4.431-2.479,5.76-4.027c1.333-1.544,1.995-2.827,1.995-3.838c0-0.484-0.194-0.904-0.579-1.272
		c-0.393-0.361-0.846-0.54-1.382-0.54h-5.794c-0.581,0-1.041,0.071-1.375,0.217c-0.344,0.144-0.778,0.412-1.308,0.797
		c-1.449,1.115-3.502,1.668-6.16,1.668c-2.274,0-4.229-0.618-5.871-1.851c-1.645-1.232-2.467-2.888-2.467-4.965h24.208
		c0.534,0,0.996-0.194,1.378-0.574c0.389-0.39,0.58-0.854,0.58-1.381v-3.261c0-3.335-0.738-6.403-2.208-9.203
		c-1.476-2.802-3.561-5.04-6.268-6.707C74.084,78.113,70.961,77.281,67.438,77.281 M20.692,74.015c3.963,0,6.946,0.995,8.947,2.971
		c2.01,1.985,3.105,4.643,3.3,7.976c0.092,1.208,0.144,2.999,0.144,5.362c0,2.366-0.052,4.153-0.144,5.363
		c-0.195,3.331-1.266,5.991-3.226,7.972c-1.958,1.98-4.842,2.972-8.662,2.972H10.977V74.015H20.692z M42.724,84.961
		c-0.39-6.333-2.37-11.251-5.939-14.751c-3.579-3.503-8.823-5.252-15.733-5.252H3.15c-0.533,0-0.988,0.193-1.378,0.58
		c-0.386,0.386-0.579,0.846-0.579,1.373v46.823c0,0.525,0.193,0.987,0.579,1.374c0.39,0.389,0.845,0.577,1.378,0.577h18.261
		c6.77,0,11.913-1.741,15.441-5.25c3.524-3.502,5.481-8.418,5.872-14.749c0.097-1.21,0.145-2.997,0.145-5.363
		C42.869,87.96,42.821,86.169,42.724,84.961 M176.496,50.849V17.08c0-0.538-0.192-0.995-0.577-1.382
		c-0.39-0.385-0.846-0.578-1.379-0.578h-5.505c-0.535,0-0.994,0.193-1.379,0.578c-0.388,0.387-0.582,0.845-0.582,1.382v33.769
		c0,0.532,0.194,0.991,0.582,1.377c0.385,0.387,0.844,0.579,1.379,0.579h5.505c0.533,0,0.989-0.192,1.379-0.579
		C176.304,51.84,176.496,51.381,176.496,50.849 M174.903,1.347h-6.231c-0.533,0-0.993,0.194-1.379,0.58
		c-0.387,0.392-0.579,0.846-0.579,1.381v5.653c0,0.53,0.192,0.989,0.579,1.375c0.386,0.388,0.846,0.581,1.379,0.581h6.231
		c0.527,0,0.993-0.193,1.379-0.581c0.387-0.386,0.578-0.845,0.578-1.375V3.308c0-0.535-0.191-0.989-0.578-1.381
		C175.896,1.541,175.431,1.347,174.903,1.347 M140.401,23.093c2.759,0,4.954,0.895,6.597,2.681c1.646,1.783,2.466,4.517,2.466,8.193
		c0,0.38-0.049,1.063-0.14,2.024c-0.296,3-1.236,5.221-2.83,6.67c-1.593,1.448-3.629,2.168-6.093,2.168
		c-2.41,0-4.421-0.709-6.008-2.135c-1.596-1.425-2.52-3.42-2.76-5.979c-0.049-0.479-0.071-1.402-0.071-2.749
		c0-1.358,0.022-2.27,0.071-2.759c0.24-2.463,1.175-4.429,2.786-5.903C136.045,23.828,138.038,23.093,140.401,23.093
		 M158.737,31.426c-0.139-3.046-0.894-5.859-2.242-8.443c-1.353-2.584-3.226-4.662-5.611-6.232
		c-2.397-1.574-5.157-2.356-8.304-2.356c-2.662,0-4.885,0.435-6.665,1.303c-1.795,0.87-3.219,1.884-4.281,3.049V3.308
		c0-0.535-0.193-0.989-0.578-1.381c-0.381-0.386-0.845-0.58-1.376-0.58h-5.508c-0.537,0-0.991,0.194-1.379,0.58
		c-0.392,0.392-0.581,0.846-0.581,1.381v47.541c0,0.532,0.189,0.991,0.581,1.377c0.388,0.387,0.842,0.579,1.379,0.579h5.508
		c0.531,0,0.995-0.192,1.376-0.579c0.385-0.386,0.578-0.845,0.578-1.377v-1.667c1.015,1.159,2.421,2.175,4.207,3.043
		c1.782,0.87,4.034,1.304,6.739,1.304c3.146,0,5.906-0.782,8.304-2.353c2.386-1.574,4.259-3.651,5.611-6.236
		c1.349-2.583,2.104-5.395,2.242-8.442c0.053-0.483,0.077-1.329,0.077-2.531C158.814,32.759,158.79,31.915,158.737,31.426
		 M109.531,23.814h4.71c0.53,0,0.99-0.194,1.375-0.581c0.385-0.381,0.581-0.845,0.581-1.371V17.08c0-0.538-0.196-0.995-0.581-1.382
		c-0.385-0.385-0.845-0.578-1.375-0.578h-3.263c-2.223,0-4.057,0.293-5.506,0.869c-1.45,0.579-2.829,1.501-4.131,2.758V17.08
		c0-0.538-0.197-0.995-0.583-1.382c-0.383-0.385-0.844-0.578-1.375-0.578h-5.509c-0.531,0-0.992,0.193-1.376,0.578
		c-0.385,0.387-0.579,0.845-0.579,1.382v33.769c0,0.532,0.193,0.991,0.579,1.377c0.385,0.387,0.845,0.579,1.376,0.579h5.509
		c0.531,0,0.992-0.192,1.375-0.579c0.386-0.386,0.583-0.845,0.583-1.377V32.007c0-2.899,0.638-4.986,1.922-6.267
		C104.542,24.457,106.627,23.814,109.531,23.814 M66.84,23.093c2.32,0,4.288,0.581,5.907,1.735c1.621,1.165,2.581,3.114,2.864,5.874
		c0.1,0.966,0.145,2.057,0.145,3.266c0,1.203-0.045,2.294-0.145,3.255c-0.283,2.757-1.243,4.709-2.864,5.875
		c-1.619,1.154-3.587,1.733-5.907,1.733c-2.317,0-4.285-0.579-5.905-1.733c-1.617-1.166-2.571-3.117-2.864-5.875
		c-0.05-0.483-0.067-1.565-0.067-3.255c0-1.697,0.017-2.783,0.067-3.266c0.293-2.759,1.248-4.709,2.864-5.874
		C62.555,23.674,64.522,23.093,66.84,23.093 M85.034,30.34c-0.242-3-1.136-5.704-2.68-8.116c-1.548-2.415-3.662-4.323-6.343-5.728
		c-2.682-1.401-5.736-2.102-9.172-2.102c-3.426,0-6.485,0.7-9.167,2.102c-2.68,1.405-4.793,3.313-6.339,5.728
		c-1.549,2.412-2.443,5.116-2.684,8.116c-0.047,0.579-0.071,1.811-0.071,3.695c0,1.84,0.023,3.047,0.071,3.623
		c0.241,2.95,1.135,5.631,2.684,8.042c1.545,2.42,3.659,4.326,6.339,5.729c2.681,1.4,5.74,2.101,9.167,2.101
		c3.436,0,6.49-0.7,9.172-2.101c2.681-1.402,4.794-3.309,6.343-5.729c1.543-2.411,2.438-5.092,2.68-8.042
		c0.093-1.16,0.143-2.368,0.143-3.623C85.177,32.735,85.127,31.5,85.034,30.34"/>
	<path fill="#FFFFFF" d="M166.438,171.157c1.169-3.791,1.878-6.166,2.135-7.125c0.057,0.27,0.154,0.644,0.296,1.103
		c0.14,0.466,0.757,2.476,1.857,6.022H166.438z M176.513,178l-5.835-16.523h-4.259L160.612,178h3.758l1.188-3.916h6.005l1.193,3.916
		H176.513z M153.599,175.116h-8.088l7.875-11.323v-2.254H141.57v2.889h7.681l-7.893,11.305V178h12.24V175.116z M124.344,175.116
		h-1.494v-10.711h1.852c3.121,0,4.686,1.766,4.686,5.299C129.387,173.31,127.707,175.116,124.344,175.116 M130.784,163.671
		c-1.488-1.419-3.569-2.133-6.255-2.133h-5.173V178h4.66c2.918,0,5.141-0.72,6.685-2.16c1.543-1.438,2.311-3.517,2.311-6.22
		C133.012,167.068,132.268,165.09,130.784,163.671 M109.471,175.116h-5.985v-4.238h5.569v-2.864h-5.569v-3.608h5.985v-2.866h-9.477
		V178h9.477V175.116z M89.396,161.539h-3.485V178h3.485V161.539z M77.384,161.539h-3.438l-2.088,8.989
		c-0.138,0.538-0.288,1.246-0.449,2.119c-0.171,0.874-0.288,1.604-0.364,2.188c-0.084-0.604-0.203-1.34-0.36-2.185
		c-0.158-0.846-0.287-1.476-0.397-1.887l-2.392-9.226h-3.299l-2.399,9.226c-0.145,0.491-0.289,1.19-0.455,2.085
		c-0.164,0.897-0.263,1.56-0.309,1.986c-0.166-1.215-0.432-2.654-0.798-4.308l-2.107-8.989h-3.435l4.2,16.461h3.962l2.215-8.624
		c0.1-0.379,0.237-1.022,0.42-1.915c0.179-0.895,0.294-1.544,0.338-1.954c0.028,0.328,0.143,0.979,0.339,1.941
		c0.206,0.962,0.343,1.602,0.426,1.902L69.221,178h3.971L77.384,161.539z"/>
	<path fill="#FFFFFF" d="M174.747,142.406c-0.57-0.744-1.623-1.482-3.16-2.218c-1.167-0.557-1.905-0.94-2.214-1.155
		c-0.312-0.214-0.54-0.438-0.686-0.664c-0.145-0.225-0.212-0.496-0.212-0.805c0-0.494,0.181-0.894,0.532-1.203
		c0.348-0.303,0.857-0.46,1.515-0.46c0.557,0,1.123,0.076,1.701,0.212c0.57,0.146,1.295,0.392,2.173,0.758l1.123-2.711
		c-0.843-0.372-1.651-0.654-2.436-0.855c-0.773-0.203-1.589-0.308-2.443-0.308c-1.74,0-3.112,0.42-4.091,1.249
		c-0.991,0.833-1.482,1.98-1.482,3.432c0,0.777,0.153,1.453,0.448,2.032c0.305,0.566,0.701,1.081,1.207,1.514
		c0.502,0.438,1.255,0.89,2.254,1.362c1.079,0.512,1.79,0.882,2.14,1.113c0.35,0.23,0.613,0.474,0.794,0.729
		c0.179,0.254,0.275,0.536,0.275,0.859c0,0.578-0.214,1.016-0.619,1.307c-0.402,0.294-0.994,0.435-1.766,0.435
		c-0.639,0-1.338-0.091-2.106-0.297c-0.771-0.202-1.712-0.555-2.816-1.047v3.238c1.346,0.663,2.903,0.994,4.661,0.994
		c1.903,0,3.392-0.433,4.459-1.287c1.066-0.854,1.602-2.024,1.602-3.513C175.6,144.045,175.313,143.135,174.747,142.406
		 M147.29,142.845c1.168-3.789,1.873-6.167,2.125-7.128c0.063,0.275,0.164,0.638,0.3,1.109c0.14,0.464,0.756,2.472,1.865,6.019
		H147.29z M157.366,149.691l-5.835-16.521h-4.263l-5.808,16.521h3.761l1.188-3.918h6l1.194,3.918H157.366z M132.933,133.23h-3.141
		v7.791c0,0.887,0.06,2.402,0.165,4.536h-0.077l-7.146-12.327h-4.396v16.461h3.114v-7.747c0-0.934-0.065-2.505-0.214-4.703h0.101
		l7.161,12.45h4.434V133.23z M86.765,133.23h-3.781l5.456,10.169v6.292h3.468v-6.407l5.46-10.054H93.61l-3.434,6.777L86.765,133.23z
		 M75.976,146.804h-8.094l7.882-11.322v-2.252H63.945v2.883h7.674l-7.892,11.313v2.265h12.25V146.804z M52.929,136.226
		c0.625,0.218,1.241,0.474,1.859,0.768l1.123-2.834c-1.608-0.774-3.218-1.163-4.817-1.163c-1.568,0-2.934,0.347-4.1,1.03
		c-1.168,0.684-2.062,1.673-2.686,2.965c-0.623,1.28-0.936,2.78-0.936,4.491c0,2.713,0.635,4.805,1.905,6.255
		c1.266,1.451,3.097,2.179,5.492,2.179c1.665,0,3.174-0.284,4.522-0.845v-2.927c-1.64,0.576-3.039,0.86-4.197,0.86
		c-2.755,0-4.13-1.827-4.13-5.498c0-1.761,0.362-3.143,1.084-4.13c0.717-0.979,1.736-1.477,3.046-1.477
		C51.699,135.901,52.306,136.007,52.929,136.226 M32.629,151.044c0.294-0.405,0.701-0.857,1.229-1.354h-2.016
		c-0.779,0.578-1.31,1.084-1.597,1.527c-0.286,0.444-0.429,0.918-0.429,1.416c0,0.771,0.256,1.402,0.771,1.88
		c0.513,0.474,1.198,0.716,2.042,0.716c0.561,0,1.142-0.09,1.758-0.264v-2.001c-0.45,0.134-0.882,0.202-1.292,0.202
		c-0.268,0-0.48-0.073-0.647-0.223c-0.168-0.153-0.254-0.389-0.254-0.696C32.194,151.857,32.336,151.458,32.629,151.044
		 M25.506,142.845c1.175-3.789,1.879-6.167,2.128-7.128c0.059,0.275,0.158,0.638,0.297,1.109c0.14,0.464,0.763,2.472,1.866,6.019
		H25.506z M35.582,149.691l-5.831-16.521h-4.268l-5.807,16.521h3.758l1.194-3.918h5.998l1.193,3.918H35.582z M12.431,149.691v-2.887
		h-6.67v-4.767l2.924-1.784l-1.318-2.203l-1.606,0.986v-5.807H2.269v7.929l-2.047,1.25l1.271,2.208l0.777-0.469v5.543H12.431z"/>
</g>
</svg>
