<?xml version="1.0" encoding="utf-8"?>
<!-- Generator: Adobe Illustrator 15.1.0, SVG Export Plug-In . SVG Version: 6.00 Build 0)  -->
<!DOCTYPE svg PUBLIC "-//W3C//DTD SVG 1.1//EN" "http://www.w3.org/Graphics/SVG/1.1/DTD/svg11.dtd">
<svg version="1.1" id="Warstwa_1" xmlns="http://www.w3.org/2000/svg" xmlns:xlink="http://www.w3.org/1999/xlink" x="0px" y="0px"
	 width="80px" height="30px" viewBox="0 0 80 30" enable-background="new 0 0 80 30" xml:space="preserve">
<g>
	
		<rect x="-7.514" y="10.354" transform="matrix(0.0076 -1 1 0.0076 -10.2965 21.3472)" fill-rule="evenodd" clip-rule="evenodd" fill="#EC696A" width="26.241" height="11.014"/>
	<path fill-rule="evenodd" clip-rule="evenodd" d="M11.061,24.113c-0.013,1.701-0.024,3.26-0.037,4.91
		C7.292,28.995,3.705,28.968,0,28.939c0.006-0.891,0.014-1.807,0.021-2.855c2.611,0.02,5.213,0.039,7.913,0.061
		c0.057-7.466,0.112-14.798,0.169-22.319c-2.626-0.021-5.257-0.04-7.956-0.061c0.008-1.068,0.015-1.95,0.022-2.922
		C3.842,0.87,7.464,0.898,11.228,0.926c-0.012,1.634-0.024,3.193-0.038,4.904c2.745-0.228,5.337-0.439,7.93-0.659
		c7.818-0.664,15.635-1.335,23.456-1.978c0.305-0.026,0.723,0.125,0.936,0.342c3.967,4.083,9.039,6.121,14.33,7.723
		c6.064,1.833,12.277,2.897,18.58,3.474c0.457,0.042,1.211,0.419,1.256,0.723c0.152,1.038-0.783,0.733-1.33,0.779
		c-8.664,0.711-17.176,2.12-25.256,5.493c-2.85,1.19-5.443,2.804-7.715,4.932c-0.395,0.37-1.127,0.608-1.67,0.556
		c-6.634-0.632-13.263-1.33-19.892-2.008C18.282,24.844,14.749,24.488,11.061,24.113z M60.445,15.299
		c-1.82-0.599-3.668-1.216-5.525-1.814c-4.715-1.517-9.129-3.585-12.859-6.932c-0.205-0.182-0.564-0.291-0.842-0.276
		c-1.208,0.062-2.416,0.174-3.622,0.283c-6.33,0.572-12.659,1.145-18.989,1.721c-2.454,0.224-4.907,0.453-7.394,0.684
		c-0.031,4.063-0.061,7.975-0.091,12.025c1.643,0.178,3.243,0.359,4.846,0.521c8.064,0.816,16.132,1.603,24.191,2.474
		c1.033,0.111,1.761-0.154,2.609-0.672c2.684-1.639,5.338-3.381,8.191-4.662C54.004,17.285,57.266,16.399,60.445,15.299z"/>
	<path fill-rule="evenodd" clip-rule="evenodd" fill="#FFFFFF" d="M60.445,15.299c-3.18,1.101-6.441,1.986-9.486,3.352
		c-2.854,1.281-5.508,3.023-8.191,4.662c-0.848,0.518-1.576,0.783-2.609,0.672c-8.059-0.871-16.127-1.657-24.191-2.474
		c-1.603-0.161-3.203-0.343-4.846-0.521c0.03-4.05,0.061-7.962,0.091-12.025c2.487-0.23,4.94-0.46,7.394-0.684
		c6.33-0.577,12.659-1.149,18.989-1.721c1.207-0.109,2.414-0.222,3.622-0.283c0.277-0.015,0.637,0.094,0.842,0.276
		c3.73,3.346,8.145,5.415,12.859,6.932C56.777,14.083,58.625,14.7,60.445,15.299z M57.023,15.489c0.012-0.1,0.023-0.201,0.037-0.299
		c-1.523-0.47-3.045-0.94-4.352-1.343c-0.459,0.35-0.775,0.783-1.141,0.828c-0.885,0.112-1.795,0.105-2.688,0.035
		c-1.277-0.102-2.588,0.171-3.66-1.083c-0.787-0.919-2.234-0.624-2.859,0.241c-0.813,1.123-0.711,2.259,0.266,2.98
		c1.08,0.796,2.271,0.602,3.119-0.363c0.314-0.357,0.9-0.627,1.381-0.66c1.25-0.084,2.516-0.076,3.768,0.02
		c0.574,0.043,1.127,0.377,1.691,0.58c-0.027,0.117-0.057,0.232-0.086,0.35C54.008,16.345,55.516,15.917,57.023,15.489z"/>
	<path fill-rule="evenodd" clip-rule="evenodd" d="M57.023,15.489c-1.508,0.428-3.016,0.856-4.523,1.285
		c0.029-0.117,0.059-0.232,0.086-0.35c-0.564-0.202-1.117-0.537-1.691-0.58c-1.252-0.096-2.518-0.104-3.768-0.02
		c-0.48,0.033-1.066,0.303-1.381,0.66c-0.848,0.965-2.039,1.159-3.119,0.363c-0.977-0.722-1.078-1.857-0.266-2.98
		c0.625-0.865,2.072-1.16,2.859-0.241c1.072,1.255,2.383,0.981,3.66,1.083c0.893,0.07,1.803,0.077,2.688-0.035
		c0.365-0.045,0.682-0.479,1.141-0.828c1.307,0.403,2.828,0.873,4.352,1.343C57.047,15.288,57.035,15.389,57.023,15.489z"/>
</g>
</svg>
