<?xml version="1.0" encoding="utf-8"?>
<!-- Generator: Adobe Illustrator 15.1.0, SVG Export Plug-In . SVG Version: 6.00 Build 0)  -->
<!DOCTYPE svg PUBLIC "-//W3C//DTD SVG 1.1//EN" "http://www.w3.org/Graphics/SVG/1.1/DTD/svg11.dtd">
<svg version="1.1" id="Warstwa_1" xmlns="http://www.w3.org/2000/svg" xmlns:xlink="http://www.w3.org/1999/xlink" x="0px" y="0px"
	 width="110px" height="130px" viewBox="0 0 110 130" enable-background="new 0 0 110 130" xml:space="preserve">
<path fill-rule="evenodd" clip-rule="evenodd" fill="#F16524" d="M80.183,1.048c-0.461,1.177-1.016,2.259-1.95,2.963
	C78.919,3.059,79.282,1.783,80.183,1.048"/>
<path fill-rule="evenodd" clip-rule="evenodd" fill="#F16524" d="M60.395,10.292c0.306-0.025,0.063,0.315,0.072,0.435
	C60.204,10.661,60.422,10.513,60.395,10.292"/>
<path fill-rule="evenodd" clip-rule="evenodd" fill="#F16524" d="M60.25,11.087c0.099,0.035,0.175,0.651-0.073,0.578
	C60.222,11.492,60.281,11.336,60.25,11.087"/>
<path fill-rule="evenodd" clip-rule="evenodd" fill="#F16524" d="M40.75,16.722c0.433,0.288,0.614,0.827,0.939,1.227
	C41.288,18.177,40.946,17.171,40.75,16.722"/>
<path fill-rule="evenodd" clip-rule="evenodd" fill="#F16524" d="M39.666,16.866c0.495,0.396,0.923,0.857,1.084,1.589
	C40.257,18.057,39.821,17.601,39.666,16.866"/>
<path fill-rule="evenodd" clip-rule="evenodd" fill="#F16524" d="M74.55,18.814c0.021,0.866-0.783,1.916-1.301,2.241
	C73.437,20.061,74.009,19.453,74.55,18.814"/>
<path fill-rule="evenodd" clip-rule="evenodd" fill="#F16524" d="M73.179,21.343c-0.068,0.126,0,0.389-0.219,0.359
	C72.946,21.497,72.951,21.31,73.179,21.343"/>
<path fill-rule="evenodd" clip-rule="evenodd" fill="#F16524" d="M78.882,21.85c-0.259,0.197-0.439,0.475-0.938,0.433
	C78.235,22.116,78.423,21.845,78.882,21.85"/>
<path fill-rule="evenodd" clip-rule="evenodd" fill="#F16524" d="M33.166,25.242c-0.013,0.854-0.269,1.464-0.649,1.95
	C32.082,26.716,32.413,24.772,33.166,25.242"/>
<path fill-rule="evenodd" clip-rule="evenodd" fill="#F16524" d="M52.161,27.555c0.557-0.124,0.759,0.731,1.371,0.794
	C52.983,29.138,52.44,27.938,52.161,27.555"/>
<path fill-rule="evenodd" clip-rule="evenodd" fill="#F69A71" d="M66.894,27.842c0,0.288,0,0.579,0,0.868
	C66.774,28.586,66.774,27.968,66.894,27.842"/>
<path fill-rule="evenodd" clip-rule="evenodd" fill="#F16524" d="M17.565,28.927c-0.381-0.148-0.715-0.344-0.865-0.724
	C17.099,28.336,17.425,28.539,17.565,28.927"/>
<path fill-rule="evenodd" clip-rule="evenodd" fill="#F69A71" d="M55.121,28.782c0.241,0,0.483,0,0.724,0c0,0.023,0,0.049,0,0.073
	C55.624,28.808,55.222,28.947,55.121,28.782"/>
<path fill-rule="evenodd" clip-rule="evenodd" fill="#FBD0B9" d="M55.845,28.855c0-0.024,0-0.05,0-0.073
	c0.267,0.047,0.719-0.094,0.865,0.073C56.421,28.855,56.133,28.855,55.845,28.855"/>
<path fill-rule="evenodd" clip-rule="evenodd" fill="#F69A71" d="M56.783,28.855c0.267,0.046,0.72-0.095,0.866,0.071
	C57.383,28.881,56.931,29.019,56.783,28.855"/>
<path fill-rule="evenodd" clip-rule="evenodd" fill="#F69A71" d="M41.978,30.877c0.096,0,0.192,0,0.289,0c0.072,0,0.145,0,0.217,0
	c0.096,0,0.192,0,0.288,0C42.671,30.995,42.078,30.995,41.978,30.877"/>
<path fill-rule="evenodd" clip-rule="evenodd" fill="#F16524" d="M23.993,32.754c0.063,0.559-0.442,0.803-0.865,0.65
	c0.061-0.18,0.094-0.388,0.071-0.65C23.624,32.73,23.651,32.561,23.993,32.754"/>
<path fill-rule="evenodd" clip-rule="evenodd" fill="#F16524" d="M25.294,33.837c-0.096,0.194-0.193,0.384-0.289,0.579
	c-0.059-0.039-0.117-0.076-0.216-0.072C24.811,34.028,24.914,33.794,25.294,33.837"/>
<path fill-rule="evenodd" clip-rule="evenodd" fill="#F69A71" d="M38.872,34.774c-0.047,0.34,0.096,0.867-0.072,1.085
	C38.845,35.521,38.706,34.996,38.872,34.774"/>
<path fill-rule="evenodd" clip-rule="evenodd" fill="#F69A71" d="M53.172,36.005c0.12,0.1,0.12,0.692,0,0.794
	C53.172,36.534,53.172,36.269,53.172,36.005"/>
<path fill-rule="evenodd" clip-rule="evenodd" fill="#F16524" d="M83.577,38.676c0.104-0.04,0.177-0.113,0.217-0.217
	c0.012,0.303-0.269,0.935-0.434,1.3c-0.202-0.036-0.374-0.105-0.578-0.145c-0.133-0.282,0.408-0.438,0.507-0.721
	C83.436,38.871,83.429,38.698,83.577,38.676"/>
<path fill-rule="evenodd" clip-rule="evenodd" fill="#F69A71" d="M44.722,39.398c0.242-0.166,0.793-0.025,1.155-0.072
	c0,0.023,0,0.049,0,0.072C45.493,39.398,45.106,39.398,44.722,39.398"/>
<path fill-rule="evenodd" clip-rule="evenodd" fill="#FBD0B9" d="M45.877,39.398c0-0.023,0-0.049,0-0.072c0.458,0,0.915,0,1.373,0
	c0.136,0.143-0.579,0.043-0.795,0.072C46.263,39.398,46.069,39.398,45.877,39.398"/>
<path fill-rule="evenodd" clip-rule="evenodd" fill="#FBD0B9" d="M64.511,39.398c0.078-0.119,0.645-0.119,0.722,0
	C64.992,39.398,64.751,39.398,64.511,39.398"/>
<path fill-rule="evenodd" clip-rule="evenodd" fill="#F69A71" d="M54.11,39.614c0.22,0.046,0.623-0.091,0.723,0.072
	C54.614,39.641,54.21,39.78,54.11,39.614"/>
<path fill-rule="evenodd" clip-rule="evenodd" fill="#F69A71" d="M46.382,39.759c0.293-0.119,1.082-0.119,1.373,0
	C47.298,39.759,46.841,39.759,46.382,39.759"/>
<path fill-rule="evenodd" clip-rule="evenodd" fill="#F69A71" d="M55.338,39.687c0.241,0,0.481,0,0.722,0c0,0.024,0,0.05,0,0.072
	C55.842,39.714,55.438,39.852,55.338,39.687"/>
<path fill-rule="evenodd" clip-rule="evenodd" fill="#FAFBFA" d="M28.472,40.41c0.268-0.121,1.034-0.121,1.3,0
	C29.339,40.41,28.905,40.41,28.472,40.41"/>
<path fill-rule="evenodd" clip-rule="evenodd" fill="#FBD0B9" d="M28.255,40.482c0.012-0.083,0.115-0.079,0.217-0.072
	c0.434,0,0.867,0,1.3,0c0.108,0.011,0.268-0.025,0.29,0.072C29.46,40.482,28.857,40.482,28.255,40.482"/>
<path fill-rule="evenodd" clip-rule="evenodd" fill="#F69A71" d="M69.855,40.482c0.022,0,0.048,0,0.071,0c0,0.24,0,0.481,0,0.72
	C69.763,41.104,69.9,40.702,69.855,40.482"/>
<path fill-rule="evenodd" clip-rule="evenodd" fill="#F69A71" d="M49.849,40.842c0.12,0.08,0.12,0.646,0,0.724
	C49.849,41.325,49.849,41.084,49.849,40.842"/>
<path fill-rule="evenodd" clip-rule="evenodd" fill="#F16524" d="M92.172,41.854c-0.015,0.229-0.389,0.311-0.505,0.216
	c0-0.097,0-0.192,0-0.288C91.908,41.659,91.913,41.827,92.172,41.854"/>
<path fill-rule="evenodd" clip-rule="evenodd" fill="#F16524" d="M8.61,44.599c-1.978-0.431-5.827,0.002-7.078-1.156
	c0.755-0.464,2.768,0.104,3.973,0.289C6.714,43.919,8.001,43.982,8.61,44.599"/>
<path fill-rule="evenodd" clip-rule="evenodd" fill="#F16524" d="M12.944,44.815c-0.62-0.029-1.131-0.169-1.66-0.289
	c0.893-0.396,2.438,0.13,3.538,0.217c0.056,0.274-0.343,0.091-0.506,0.144C14.003,44.721,13.378,44.862,12.944,44.815"/>
<path fill-rule="evenodd" clip-rule="evenodd" fill="#F69A71" d="M16.339,44.67c0.172-0.119,0.839-0.119,1.011,0
	C17.012,44.67,16.675,44.67,16.339,44.67"/>
<path fill-rule="evenodd" clip-rule="evenodd" fill="#F69A71" d="M58.228,44.959c0.125-0.119,0.742-0.119,0.867,0
	C58.805,44.959,58.517,44.959,58.228,44.959"/>
<path fill-rule="evenodd" clip-rule="evenodd" fill="#F69A71" d="M39.089,45.754c0,0.36,0,0.723,0,1.084
	C38.968,46.643,38.968,45.95,39.089,45.754"/>
<path fill-rule="evenodd" clip-rule="evenodd" fill="#F16524" d="M105.172,47.849c-0.565-0.062-1.165-0.089-1.589-0.289
	c0.729,0.106,3.516-0.782,2.889,0.289C106.038,47.849,105.604,47.849,105.172,47.849"/>
<path fill-rule="evenodd" clip-rule="evenodd" fill="#F69A71" d="M24.716,47.344c0.119,0.077,0.119,0.644,0,0.723
	C24.716,47.824,24.716,47.582,24.716,47.344"/>
<path fill-rule="evenodd" clip-rule="evenodd" fill="#FBD0B9" d="M105.172,47.849c0.433,0,0.866,0,1.3,0
	C106.204,47.969,105.439,47.969,105.172,47.849"/>
<path fill-rule="evenodd" clip-rule="evenodd" fill="#F16524" d="M10.85,48.787c-0.925-0.015-1.925,0.047-2.311-0.505
	c1.069-0.126,2.538-0.037,3.25,0.434c-0.012,0.084-0.132,0.06-0.217,0.071C11.331,48.787,11.091,48.787,10.85,48.787"/>
<path fill-rule="evenodd" clip-rule="evenodd" fill="#FBD0B9" d="M20.239,48.427c0.101-0.12,0.692-0.12,0.793,0
	C20.769,48.427,20.503,48.427,20.239,48.427"/>
<path fill-rule="evenodd" clip-rule="evenodd" fill="#F16524" d="M93.256,48.716c-0.14,0.13-0.444,0.02-0.435-0.218
	C93.096,48.45,93.211,48.411,93.256,48.716"/>
<path fill-rule="evenodd" clip-rule="evenodd" fill="#F16524" d="M14.605,49.005c-0.173-0.117-0.464-0.115-0.65-0.218
	C14.072,48.563,14.56,48.736,14.605,49.005"/>
<path fill-rule="evenodd" clip-rule="evenodd" fill="#FBD0B9" d="M11.572,48.787c-0.077,0.12-0.645,0.12-0.723,0
	C11.091,48.787,11.331,48.787,11.572,48.787"/>
<path fill-rule="evenodd" clip-rule="evenodd" fill="#F16524" d="M57,49.438c-0.64,0.086-0.864-0.244-1.3-0.361
	C55.927,48.525,57.063,48.825,57,49.438"/>
<path fill-rule="evenodd" clip-rule="evenodd" fill="#F16524" d="M44.938,49.727c-0.027,0.462,0.412,0.453,0.434,0.866
	c-0.963,0.12-1.148-0.536-2.095-0.433C43.58,49.765,44.31,49.796,44.938,49.727"/>
<path fill-rule="evenodd" clip-rule="evenodd" fill="#F69A71" d="M31.361,50.304c0.146-0.12,0.79-0.12,0.938,0
	C31.986,50.304,31.675,50.304,31.361,50.304"/>
<path fill-rule="evenodd" clip-rule="evenodd" fill="#F69A71" d="M74.261,51.098c0.385,0,0.771,0,1.155,0
	C75.198,51.218,74.479,51.218,74.261,51.098"/>
<path fill-rule="evenodd" clip-rule="evenodd" fill="#FAFBFA" d="M76.427,54.782c0.34-0.121,1.178-0.121,1.517,0
	C77.438,54.782,76.933,54.782,76.427,54.782"/>
<path fill-rule="evenodd" clip-rule="evenodd" fill="#F69A71" d="M76.427,54.855c0-0.026,0-0.051,0-0.073c0.506,0,1.012,0,1.517,0
	c0,0.022,0,0.047,0,0.073C77.438,54.855,76.933,54.855,76.427,54.855"/>
<path fill-rule="evenodd" clip-rule="evenodd" fill="#F16524" d="M6.95,55.071c0.254,0.009,0.322,0.206,0.578,0.217
	c-0.012,0.228-0.004,0.435,0.143,0.505C7.403,55.865,6.897,55.559,6.95,55.071"/>
<path fill-rule="evenodd" clip-rule="evenodd" fill="#F69A71" d="M43.927,56.227c0,0.241,0,0.481,0,0.723
	C43.808,56.87,43.808,56.303,43.927,56.227"/>
<path fill-rule="evenodd" clip-rule="evenodd" fill="#F16524" d="M60.827,58.755c-0.177-0.112-0.469-0.107-0.723-0.146
	c0.498-0.395,1.345-0.437,2.168-0.506c-0.049,0.435-0.444,0.52-0.795,0.651C61.261,58.755,61.044,58.755,60.827,58.755"/>
<path fill-rule="evenodd" clip-rule="evenodd" fill="#F69A71" d="M57.433,58.393c0-0.023,0-0.047,0-0.072
	c0.339,0.048,0.865-0.095,1.084,0.072C58.155,58.393,57.794,58.393,57.433,58.393"/>
<path fill-rule="evenodd" clip-rule="evenodd" fill="#F69A71" d="M42.194,58.537c0.1-0.164,0.504-0.026,0.722-0.072
	C42.815,58.63,42.415,58.492,42.194,58.537"/>
<path fill-rule="evenodd" clip-rule="evenodd" fill="#FBD0B9" d="M61.478,58.755c-0.029,0.138-0.854,0.092-0.65,0
	C61.044,58.755,61.261,58.755,61.478,58.755"/>
<path fill-rule="evenodd" clip-rule="evenodd" fill="#F16524" d="M17.927,59.765c0.107,0.038,0.184,0.108,0.289,0.144
	c-0.114,0.211-0.269,0.088-0.433,0C17.801,59.832,17.927,59.861,17.927,59.765"/>
<path fill-rule="evenodd" clip-rule="evenodd" fill="#F16524" d="M16.339,60.056c-0.07,0.435-0.633,0.377-1.012,0.505
	c0-0.145,0-0.291,0-0.434C15.804,60.225,16.067,59.95,16.339,60.056"/>
<path fill-rule="evenodd" clip-rule="evenodd" fill="#F16524" d="M16.916,61.427c-0.005,0.254-0.361,0.395-0.577,0.216
	C16.397,61.388,16.687,61.317,16.916,61.427"/>
<path fill-rule="evenodd" clip-rule="evenodd" fill="#F16524" d="M19.517,62.221c0.038,0.327-0.41,0.169-0.577,0.289
	C19.053,62.335,19.245,62.239,19.517,62.221"/>
<path fill-rule="evenodd" clip-rule="evenodd" fill="#F16524" d="M18.577,62.366c0.114,0.004,0.275-0.037,0.289,0.071
	c0.074,0.243-0.224,0.112-0.361,0.146C18.544,62.524,18.58,62.465,18.577,62.366"/>
<path fill-rule="evenodd" clip-rule="evenodd" fill="#F16524" d="M18.146,62.51c-0.281,0.484-1.201,0.652-1.879,0.506
	C16.812,62.768,17.501,62.66,18.146,62.51"/>
<path fill-rule="evenodd" clip-rule="evenodd" fill="#F16524" d="M75.199,62.583c-0.118,0.392-0.705,0.734-1.083,0.433
	C74.208,62.611,74.745,62.399,75.199,62.583"/>
<path fill-rule="evenodd" clip-rule="evenodd" fill="#F69A71" d="M37.499,63.737c0-0.29,0-0.578,0-0.867
	C37.62,62.994,37.62,63.612,37.499,63.737"/>
<path fill-rule="evenodd" clip-rule="evenodd" fill="#F16524" d="M15.256,63.087c0.176,0.14,0.603,0.069,0.795,0
	c-0.223,0.234-0.717,0.423-1.013,0.36C15.005,63.223,15.233,63.258,15.256,63.087"/>
<path fill-rule="evenodd" clip-rule="evenodd" fill="#F16524" d="M85.238,65.036c0.771,0.1,1.524,0.835,2.166,1.3
	C86.644,66.233,85.804,65.58,85.238,65.036"/>
<path fill-rule="evenodd" clip-rule="evenodd" fill="#F69A71" d="M63.717,65.398c0,0.36,0,0.723,0,1.085
	C63.597,66.287,63.597,65.595,63.717,65.398"/>
<path fill-rule="evenodd" clip-rule="evenodd" fill="#F69A71" d="M47.683,65.831c0.195-0.165,0.697-0.023,1.012-0.072
	c0,0.024,0,0.05,0,0.072C48.356,65.831,48.02,65.831,47.683,65.831"/>
<path fill-rule="evenodd" clip-rule="evenodd" fill="#F69A71" d="M50.065,65.831c-0.289-0.047-0.767,0.095-0.938-0.072
	C49.419,65.808,49.896,65.666,50.065,65.831"/>
<path fill-rule="evenodd" clip-rule="evenodd" fill="#F69A71" d="M56.783,66.483c-0.22-0.047-0.622,0.091-0.724-0.072
	C56.28,66.456,56.683,66.317,56.783,66.483"/>
<path fill-rule="evenodd" clip-rule="evenodd" fill="#F16524" d="M34.828,66.843c-0.292,0.153-0.443-0.151-0.794-0.144
	C34.154,66.408,34.813,66.571,34.828,66.843"/>
<path fill-rule="evenodd" clip-rule="evenodd" fill="#F69A71" d="M36.778,66.699c-0.148,0.119-0.792,0.119-0.939,0
	C36.151,66.699,36.466,66.699,36.778,66.699"/>
<path fill-rule="evenodd" clip-rule="evenodd" fill="#F69A71" d="M36.778,66.987c0.1-0.165,0.502-0.026,0.721-0.073
	C37.399,67.08,36.997,66.941,36.778,66.987"/>
<path fill-rule="evenodd" clip-rule="evenodd" fill="#F69A71" d="M57,67.06c0-0.022,0-0.049,0-0.072
	c0.313,0.047,0.816-0.095,1.011,0.072C57.674,67.06,57.337,67.06,57,67.06"/>
<path fill-rule="evenodd" clip-rule="evenodd" fill="#F16524" d="M25.944,67.854c0.266,0,0.529,0,0.794,0
	c-0.212,0.39-0.376,0.827-1.011,0.795C25.83,68.415,25.909,68.156,25.944,67.854"/>
<path fill-rule="evenodd" clip-rule="evenodd" fill="#F16524" d="M97.66,67.999c0,0.096,0,0.191,0,0.289
	c-0.058-0.039-0.116-0.074-0.216-0.073c0-0.071,0-0.145,0-0.216C97.517,67.999,97.589,67.999,97.66,67.999"/>
<path fill-rule="evenodd" clip-rule="evenodd" fill="#FBD0B9" d="M69.276,69.588c0.796-0.169,1.902-0.024,2.818-0.073
	c0.102-0.004,0.203-0.012,0.215,0.073c-0.961,0-1.926,0-2.889,0C69.373,69.588,69.325,69.588,69.276,69.588"/>
<path fill-rule="evenodd" clip-rule="evenodd" fill="#F69A71" d="M69.421,69.588c0.963,0,1.928,0,2.889,0c0.049,0,0.098,0,0.145,0
	C71.612,69.706,70.265,69.706,69.421,69.588"/>
<path fill-rule="evenodd" clip-rule="evenodd" fill="#F16524" d="M49.704,69.659c0.145,0,0.289,0,0.436,0c0,0.047,0,0.098,0,0.145
	c-0.299,0.04-0.49,0.187-0.65,0.361c-0.359,0.073-0.857,0.279-1.156,0C48.69,69.896,49.265,69.845,49.704,69.659"/>
<path fill-rule="evenodd" clip-rule="evenodd" fill="#F16524" d="M80.616,70.814c0.15-0.122,0.541,0.131,0.578,0.361
	C80.924,71.132,80.821,70.924,80.616,70.814"/>
<path fill-rule="evenodd" clip-rule="evenodd" fill="#F69A71" d="M68.05,72.187c-0.12-0.267-0.12-1.031,0-1.299
	C68.05,71.321,68.05,71.754,68.05,72.187"/>
<path fill-rule="evenodd" clip-rule="evenodd" fill="#F16524" d="M20.599,73.127c-0.129,0.437-0.549,0.761-1.01,0.649
	C19.52,73.159,20.247,72.882,20.599,73.127"/>
<path fill-rule="evenodd" clip-rule="evenodd" fill="#F16524" d="M32.011,75.438c-0.189,0.328-0.72,0.658-1.154,0.504
	C31.237,75.759,31.521,75.298,32.011,75.438"/>
<path fill-rule="evenodd" clip-rule="evenodd" fill="#F16524" d="M71.95,78.47c0.169,0.023,0.161,0.225,0.289,0.29
	C72.151,78.935,71.847,78.726,71.95,78.47"/>
<path fill-rule="evenodd" clip-rule="evenodd" fill="#F69A71" d="M45.228,79.915c0.078-0.119,0.645-0.119,0.723,0
	C45.709,79.915,45.468,79.915,45.228,79.915"/>
<path fill-rule="evenodd" clip-rule="evenodd" fill="#F16524" d="M100.839,80.422c-0.039,0.057-0.076,0.116-0.073,0.216
	c-0.134-0.082-0.347-0.086-0.288-0.361C100.614,80.307,100.658,80.431,100.839,80.422"/>
<path fill-rule="evenodd" clip-rule="evenodd" fill="#F16524" d="M68.845,83.383c0.084-0.014,0.127,0.015,0.145,0.071
	c0.101,0.672-0.217,2.343-0.723,2.89C68.493,85.389,68.655,84.374,68.845,83.383"/>
<path fill-rule="evenodd" clip-rule="evenodd" fill="#F16524" d="M50.573,84.32c0.186,0.085,0.332,0.93,0,0.867
	C50.573,84.897,50.573,84.609,50.573,84.32"/>
<path fill-rule="evenodd" clip-rule="evenodd" fill="#F16524" d="M41.544,84.393c0.317-0.003-0.049,0.322,0.072,0.578
	c-0.097,0-0.192,0-0.289,0C41.371,84.749,41.481,84.595,41.544,84.393"/>
<path fill-rule="evenodd" clip-rule="evenodd" fill="#F16524" d="M41.472,85.113c-0.375,0.759-0.377,1.889-0.939,2.458
	C40.373,86.844,40.819,85.509,41.472,85.113"/>
<path fill-rule="evenodd" clip-rule="evenodd" fill="#F16524" d="M50.573,85.476c0.129-0.009,0.15,0.09,0.289,0.073
	c-0.131,0.474-0.025,1.179-0.145,1.661C50.276,86.995,50.563,85.931,50.573,85.476"/>
<path fill-rule="evenodd" clip-rule="evenodd" fill="#F16524" d="M76.86,86.415c0.73,0.655,1.557,1.557,1.662,2.6
	C77.435,88.954,77.415,87.245,76.86,86.415"/>
<path fill-rule="evenodd" clip-rule="evenodd" fill="#F16524" d="M63.86,86.704c0.168,0.023,0.338,0.047,0.289,0.289
	C63.982,86.968,63.812,86.946,63.86,86.704"/>
<path fill-rule="evenodd" clip-rule="evenodd" fill="#F69A71" d="M56.566,86.85c0,0.264,0,0.528,0,0.792
	C56.446,87.543,56.446,86.949,56.566,86.85"/>
<path fill-rule="evenodd" clip-rule="evenodd" fill="#F16524" d="M64.872,87.642c0.66,0.498,0.02,1.665-0.145,2.24
	C64.499,89.394,64.671,88.173,64.872,87.642"/>
<path fill-rule="evenodd" clip-rule="evenodd" fill="#F16524" d="M80.327,9.86c0.059,0.038,0.117,0.075,0.217,0.071
	c-0.652,1.849-2.652,3.017-3.322,5.127C77.71,13.067,79.632,11.886,80.327,9.86"/>
<path fill-rule="evenodd" clip-rule="evenodd" fill="#F69A71" d="M41.4,22.065c0.22-0.237,0.572-0.727,0.794-0.723
	C41.888,21.539,41.707,21.867,41.4,22.065"/>
<path fill-rule="evenodd" clip-rule="evenodd" fill="#F16524" d="M54.622,91.8c-0.038-1.185-0.038,0.34-0.245-4.007
	c-0.005-1.871-0.722-3.061-1.782-4.123c-1.336-1.333-3.757-3.242-5.707-3.684c-0.387-0.085-0.643-0.055-0.938-0.071
	c-0.078-0.119-0.645-0.119-0.723,0c-2.693-0.285-1.99,2.825-3.467,3.755c-0.077-0.532,0.396-0.827,0.361-1.371
	c-0.024-0.369-0.359-0.575-0.506-0.938c-0.309-0.768-0.156-1.706-0.578-2.313c-0.807-0.327-1.674,0.201-2.383-0.072
	c-0.65-0.249-0.924-1.541-1.301-2.094c-1.031-1.518-2.909-1.686-5.127-2.095c0.1-2.49-0.76-4.626-2.456-5.561
	c0-0.048,0-0.097,0-0.144c2.112-0.924,4.216-1.852,7.007-2.096c0.219-0.046,0.621,0.093,0.721-0.073
	c1.223,0.045,2.224-0.136,2.889-0.649c-1.121-0.063-2.35,0.395-3.609,0.435c-0.313,0-0.627,0-0.939,0
	c-0.388,0.001-0.615-0.154-0.939-0.216c1.478-0.306,2.5-1.065,2.6-2.746c0.121-0.125,0.121-0.743,0-0.867
	c-0.033-1.121-0.493-1.815-1.011-2.454c-0.329,0.778-1.21,1.004-1.155,2.167c-2.332,1.35-4.447,2.916-5.562,5.487
	c0.981-0.628,2.676-2.337,4.044-1.011c-2.065,0.509-3.927,1.225-5.199,2.528c-0.314,0.004-0.52,0.402-0.794,0.216
	c-0.146-0.604,0.409-0.506,0.505-0.866c-0.004-0.573-0.359-0.794-0.578-1.154c-0.42-0.117-0.567,0.111-0.865,0
	c2.089-1.538,0.271-4.45-0.795-5.923c-0.031-0.065-0.064-0.13-0.145-0.145c0.26-0.094,0.447,0.292,0.866,0.216
	c0.749-0.138,1.506-2.326,1.806-3.033c0.465-1.1,1.047-2.368,1.805-2.96c2.467-1.927,7.191-0.868,8.09-4.335
	c-1.971,0.957-3.198,2.995-6.283,2.601c0.635-0.76,0.385-2.406,1.732-2.456c-0.285-0.627-0.643-1.187-1.371-1.372
	c-0.023-0.098-0.181-0.059-0.289-0.072c-0.148-0.12-0.792-0.12-0.938,0c-0.105,0.041-0.374-0.084-0.36,0.072
	c-1.557,0.323-2.611,1.146-3.829,1.806c-0.966-0.454-1.583-1.257-2.745-1.517c-0.276,0.253-0.441,0.617-0.865,0.722
	c2.031,1.339,3.361,3.38,5.921,4.189c-1.427,1.75-3.108,3.631-3.61,6.066c-1.098-1.124-2.762-2.258-4.912-1.949
	c-1.357,0.194-2.234,1.731-3.827,1.516c0.188-0.846,1.55-0.521,1.878-1.228c-0.054-0.162-0.404-0.027-0.576-0.073
	c0.613-0.202,1.399-0.234,2.164-0.289c0.385-0.121,0.337-0.676,0.869-0.648c0.34,0.079-0.35,0.241-0.291,0.506
	c0.701,0.098,1.066-0.138,1.156-0.65c-0.047-0.176-0.337-0.01-0.36,0.072c0.323-0.632,1.808-1.805,1.66-3.178
	c-0.101-0.938-1.354-1.675-1.228-2.745c0.05-0.418,0.459-0.497,0.578-0.938c0.242-0.902,0.086-2.552-0.434-2.889
	c-1.109-0.72-2.4,0.814-3.539-0.144c0.104-0.498,0.725-0.479,1.229-0.578c0.264,0,0.529,0,0.793,0
	c1.229,0.049,2.211,0.34,3.541,0.289c0.104-0.161,0.18-0.348,0.143-0.649c0.119-0.079,0.119-0.646,0-0.723
	c0.027-0.75-0.242-1.202-0.434-1.735c-1.262-0.481-3.365-0.207-5.199-0.288c-0.932-0.041-1.783-0.342-2.527-0.361
	c-0.562-0.015-1.163,0.376-1.518-0.144c0.367-0.115,0.857-0.105,1.301-0.146c0.336,0,0.673,0,1.011,0
	c1.112,0.005,2.397,0.191,3.468,0c0.445-0.437,0.348-1.122,0.65-1.659c0.273-0.489,0.941-0.721,1.299-1.229
	c0.569-0.812,0.18-2.53,0.866-3.395c0.527-0.664,1.432-0.914,1.661-1.444c0.276-0.639,0.043-1.315,0.217-1.949
	c0.191-0.696,1.126-2.154,1.588-2.747c1.462-1.87,4.619-1.905,5.273-4.838c0.24,0.122,0.208,0.514,0.506,0.577
	c1.689-0.812,1.723-3.283,2.889-4.621c2.248,0.44,4.402-0.263,5.634-1.3c0.307-0.198,0.487-0.526,0.794-0.723
	c0.195-0.045,0.573,0.093,0.649-0.07c0.825,0.005,1.493-0.146,2.167-0.291c-0.088-0.442-1.068-0.616-1.733-0.723
	c-0.002-0.07-0.089-0.056-0.144-0.072c0.187-0.268,0.25-0.663,0.722-0.649c0.506-0.048,1.202,0.096,1.589-0.072
	c1.911,0.116,2.461-1.482,4.116-1.517c1.009-0.021,1.937,1.141,3.106,1.011c0.594-0.063,0.983-0.474,1.589-0.866
	c1.367,0.266,1.975,0.313,2.889-0.36c0.532-0.393,1.042-0.688,1.011-1.589c0.672,0.688,0.406,1.88,0.723,2.815
	c0.462,1.379,2.261,2.707,4.332,2.528c0.809-0.07,1.515-0.549,2.383-0.649c1.736-0.202,2.991,1.054,4.553,0.649
	c0.713-1.26,1.142-2.803,1.876-4.044c0.803-0.176,1.059,0.122,1.372,0.577c-0.141,1.186-1.512,2.33-1.228,3.974
	c0.179,1.026,1.718,1.539,1.878,2.671c0.184,1.286-0.197,2.126,0.434,3.105c0.223,0.347,0.609,0.467,0.795,0.578
	c0.164,0.098,1.098,0.533,2.021,0.218c0.59-0.641,1.205-1.252,2.022-1.663c0.233,0.129,0.505,0.217,0.794,0.289
	c0.007,0.234,0.038,0.444,0.146,0.578c-0.61,0.744-1.989,1.353-1.95,2.457c0.018,0.485,0.863,1.317,1.301,1.659
	c0.842,0.66,2.125,1.015,3.033,1.301c-0.332,2.257,2.408,2.436,1.805,4.261c-0.062,0.156-0.461-0.028-0.506,0.146
	c-0.65-0.001-1.262,0.038-1.734,0.217c0.025-0.409,0.697-0.797,1.013-1.156c-2.246,0.475-5.198,0.242-5.923,2.239
	c-1.116-0.495-2.463,0.086-3.033,0.793c1.119,0.788,2.172,2.126,3.972,2.313c1.828,0.188,3.428-0.514,4.984-0.941
	c0.078,0.019,0.049,0.143,0.144,0.144c-0.018,0.764,0.369,1.125,0.578,1.663c1.412,0.668,2.35-0.508,3.611-0.36
	c0.008,0.68-0.888,0.461-1.3,0.722c-0.156,0.979,1.16,1.737,0.216,2.382c-0.516,0.186-0.843,0.555-1.228,0.868
	c-0.138,0.367-0.788,0.223-1.155,0.361c-0.656-0.007-1.023,0.276-1.589,0.361c0.587,1.409,2.014,1.981,3.756,2.238
	c-0.89,1.327-0.261,3.576,0.145,5.056c0.417,1.529,0.839,2.549,0.288,4.116c-0.93,0.131-1.633,0.486-2.383,0.794
	c-0.469,1.101-1.339,2.175-1.083,3.756c0.441,0.546,1.064,0.909,1.517,1.445c-0.229,0.081-0.592-0.323-0.939-0.362
	c-0.822,1.538-2.957,1.761-3.756,3.323c0.355,0.917,0.749,2.076,0.361,2.961c-0.697-0.146-1.426-0.885-2.167-1.228
	c-0.694,0.384-1.568,0.908-1.733,1.66c-0.086,0.403,0.143,2.187,0.289,2.601c0.238,0.677,1.14,1.088,0.866,1.879
	c-1.061,0.637-2.163-0.328-2.672-0.939c-1.636,0.533-3.522,1.19-3.249,3.394c-0.23,0.223-0.365-0.245-0.723-0.29
	c-1.373-0.165-2.779,1.616-3.973,1.88c-1.252-0.552-2.169,0.521-3.25,0.504c-0.475-0.006-0.936-0.427-1.443-0.432
	c-1.549-0.02-3.045,1.78-3.828,2.744c-0.998,1.23-1.905,2.671-1.95,4.551c-0.12,0.1-0.12,0.693,0,0.792
	c-0.009,1.563-0.216,2.843-0.176,3.445 M50.283,20.62c-0.638,0.076-0.04,1.421,0.29,1.662c0.33,0.392,0.691,0.752,1.082,1.083
	c0.072,0.095,0.068,0.269,0.217,0.289c0.143,0.306-0.137,0.695-0.145,1.083c-0.021,0.938,0.754,2.024,0.145,2.89
	c0.225,0.399,0.594,0.657,0.65,1.229c-0.941,1.057-2.977,1.019-3.756,2.237c1.008-0.304,1.866-0.573,2.816-1.011
	c1.127-0.518,2.051-1.522,3.538-1.3c0.101,0.165,0.503,0.025,0.724,0.073c0.288,0,0.576,0,0.865,0c0.025,0,0.049,0,0.073,0
	c0.147,0.163,0.6,0.025,0.866,0.071c0.422-0.013,0.691,0.125,1.155,0.072c-0.058-1.363-0.48-2.36-1.155-3.106
	c0.821-0.479,1.625-1.359,1.805-2.238c-0.886,0.484-1.228,1.518-2.165,1.949c-1.521-2.019-4.295-2.784-6.212-4.404
	C50.847,20.905,50.629,20.615,50.283,20.62z M72.815,28.421c-0.928,0.06-1.511,0.462-2.455,0.506
	c2.438-1.208,0.342-6.491-1.949-4.117c0.023,0,0.049,0,0.072,0c0.109,0.132,0.109,0.591,0,0.722
	c-1.045,0.258-1.535,1.066-1.59,2.311c-0.119,0.126-0.119,0.744,0,0.868c-0.035,0.324,0.037,0.54,0.073,0.794
	c-1.304,0.624-3.771,0.082-4.189,1.589c1.611,0.048,2.578-0.551,4.045-0.649c0.168,0,0.337,0,0.505,0
	c0.125,0.043-0.005,0.343,0.145,0.361c0.01,0.494,0.234,0.777,0.506,1.01c0.826-0.392,0.475-1.424,1.228-1.876
	c0.641-0.386,1.878-0.334,2.816-0.507c0.945-0.172,1.884-0.293,2.456-0.865c-0.151-0.043-0.207-0.18-0.434-0.146
	C73.802,28.3,73.06,28.3,72.815,28.421z M43.205,28.493c-1.611-0.243-2.109-1.982-3.539-2.167c0.44,0.338-0.095,0.516-0.145,0.938
	c-0.513-0.267-0.959-0.871-1.659-0.723c0.301,0.807,0.337,1.876,0.793,2.529c-0.168,0-0.337,0-0.506,0
	c-0.465,0.018-0.93,0.033-1.301,0.145c-0.35-0.014-0.578,0.094-0.865,0.145c1.386,0.78,3.113,1.219,5.055,1.444
	c0.17,0.165,0.648,0.025,0.939,0.072c0.101,0.118,0.693,0.118,0.794,0c0.243-0.046,0.671,0.093,0.794-0.072
	c1.313-0.133,2.24-0.649,2.89-1.444c-0.489-0.376-0.983-0.75-1.806-0.794C44.312,28.398,43.663,28.541,43.205,28.493z
	 M30.132,32.247c0.84-0.028,1.641-0.092,2.24-0.36c-0.707-0.64-2.118-0.577-2.89-1.156c-0.712,0.696-1.532,0.838-2.166,1.591
	c0.121,0,0.241,0,0.36,0c0.555-0.062,0.879,0.14,1.156,0c0.024,0,0.049,0,0.072,0C29.04,32.307,29.89,32.392,30.132,32.247z
	 M53.172,36.005c0.054-0.344-0.081-0.498-0.073-0.795c-0.977,0.036-1.369-1.599-2.236-1.733c-0.884-0.136-1.449,0.618-1.734,1.444
	c-2.063,0.293-0.887,2.914-0.506,4.189c-0.357,0.171-0.983,0.075-1.372,0.216c-0.458,0-0.915,0-1.373,0
	c-0.362,0.047-0.913-0.094-1.155,0.072c-0.221,0.046-0.621-0.092-0.722,0.072c-0.604,0.071-1.193,0.154-1.444,0.577
	c1.314-0.058,2.51-0.234,3.826-0.289c0.459,0,0.916,0,1.373,0c0.977,0.084,1.854,0.268,2.094,1.083c0,0.242,0,0.483,0,0.724
	c-0.093,0.557-0.34,0.959-0.505,1.445c0.747-0.122,1.585-0.13,2.095,0c-0.012-0.004,0.009-0.132,0-0.146
	c-0.048-0.698,0.096-1.588-0.071-2.165c0.052-0.223-0.124-0.214-0.073-0.436c0.594-0.563,1.645-0.665,2.816-0.65
	c0.1,0.166,0.504,0.026,0.723,0.072c0.169,0,0.337,0,0.505,0c0.101,0.165,0.504,0.027,0.722,0.072
	c0.436-0.047,1.059,0.096,1.373-0.072c0.447,0.013,0.763-0.104,1.012-0.288c0.072,0,0.086-0.059,0.145-0.072
	c0.071,0,0.086-0.059,0.145-0.072c-1.604-0.333-4.24-0.051-6.211-0.144c0-0.073,0.057-0.087,0.072-0.146
	c0.313-0.599,0.58-1.246,0.577-2.165C53.292,36.697,53.292,36.104,53.172,36.005z M69.927,40.482
	c0.191-1.591,1.029-2.534,1.301-4.045c-0.895,1.344-1.875,2.603-1.807,4.911c-0.718-0.677-1.827-0.964-2.166-2.022
	c1.729-0.535,1.736-2.788,2.527-4.261c-1.154-1.363-3.506-0.374-4.333,0.649c-0.343,0.282-0.655,0.596-0.938,0.939
	c-0.172,0.19-0.287,0.435-0.578,0.505c-1.441-0.747-2.556-2.209-4.405-2.311c1.458,0.9,2.997,1.723,4.116,2.962
	c-1.115,1.315-2.326,2.534-3.105,4.189c0.453-0.08,0.857-0.203,1.084-0.507c0.357-0.172,0.541-0.517,0.794-0.793
	c0.294-0.236,0.561-0.501,0.794-0.797c0.34-0.263,0.823-0.379,1.301-0.505c0.24,0,0.481,0,0.722,0
	c0.611,0.136,1.107,0.387,1.59,0.649c0.053,0.165,0.217,0.216,0.36,0.289c0.283,0.343,0.597,0.656,0.939,0.939
	c0.049,0.167,0.239,0.194,0.289,0.362c0.354,0.415,0.74,0.799,1.154,1.154c0.495,0.349,0.934,0.753,1.807,0.723
	c-0.044-1.137-1.309-1.051-1.445-2.095c0-0.072,0-0.145,0-0.219C69.927,40.964,69.927,40.723,69.927,40.482z M38.8,35.859
	c-0.242,3.25-2.771,4.213-5.994,4.478c0.773-0.491,1.642-1.854,1.373-3.394c-0.098-0.548-0.716-1.556-1.59-1.3
	c-0.398,0.116-0.428,0.79-0.723,1.083c-0.311,0.31-1.008,0.458-1.516,0.795c-1.346,0.888-2.894,2.405-4.262,2.889
	c-0.525,0.185-1.529,0.047-1.373,0.938c0.946-0.236,2.189-0.793,3.539-0.866c0.603,0,1.205,0,1.807,0
	c0.494,0.153,1.237,0.061,1.66,0.29c-2.006,0.688-4.477,0.914-5.128,2.959c1.152,0.381,2.173-0.392,3.106-0.938
	c3.253-1.902,9.793-1.094,10.182-5.778c0.557-0.507,1.487-1.011,1.519-1.805c-1.285-0.129-1.425,0.888-2.384,1.084
	c-0.227-0.392,0.404-1.28-0.145-1.52C38.706,34.996,38.845,35.521,38.8,35.859z M39.089,46.838c0.055,1.147,0.67,1.737,1.371,2.238
	c-0.887-0.075-1.271-0.653-2.311-0.578c0.463,0.477,1.215,0.421,1.807,0.795c0.266,0.17,0.422,0.46,0.722,0.578
	c0.419,0.165,0.946,0.149,1.372,0.289c1.283,0.417,2.466,1.094,3.756,1.443c-0.061,0.422,0.342,0.52,0.145,0.867
	c0.489,0.016,0.771,0.241,1.155,0.36c0.125-0.346-0.34-0.475-0.146-0.649c0.425-0.063,0.453,0.271,0.795,0.289
	c-0.109-0.493,0.275-0.497,0.217-0.938c-0.525-0.126-1.072-0.226-1.445-0.505c-0.572-2.629-1.955-4.447-3.466-6.141
	c-0.054-3.163-4.217-1.857-3.972,0.867C38.968,45.95,38.968,46.643,39.089,46.838z M58.228,44.959
	c-2.394,0.27-4.836,1.635-6.211,3.107c-0.469,0.5-0.928,1.229-0.939,1.948c1.49-0.34,3.971-2.351,4.839-0.144
	c-1.716,0.906-4.063,1.185-4.983,2.888c0.441-0.209,0.823-0.477,1.229-0.722c0.33-0.104,0.617-0.248,0.865-0.434
	c3.176-1.472,6.852-2.44,9.318-4.622c0.317-0.26,0.607-0.545,0.865-0.867c0.155-0.253,0.415-0.402,0.507-0.722
	c0.108-0.021,0.31-0.304,0.144-0.361c-0.391,0.501-0.908,0.874-1.3,1.372c-1.437,1.068-2.858,2.533-5.345,2.313
	c1.35-0.469,1.567-2.413,3.322-2.239c-0.086-0.588-0.31-1.039-0.576-1.445c-0.309-0.005-0.508-0.119-0.867-0.072
	C58.97,44.84,58.353,44.84,58.228,44.959z M75.776,48.716c-1.729-0.22-2.103-1.797-3.61-2.239c0.363,0.513-0.054,0.537-0.216,1.01
	c-0.479-0.291-0.779-0.761-1.59-0.72c0.118,0.632,0.456,2.043,0.723,2.526c-1.006,0.006-1.967,0.057-2.672,0.361
	c1.693,0.712,3.49,1.324,5.777,1.443c0.024,0,0.049,0,0.072,0c0.219,0.12,0.938,0.12,1.155,0c0.196-0.045,0.573,0.092,0.651-0.07
	c1.264-0.157,2.258-0.583,2.814-1.444c-0.471-0.397-0.968-0.765-1.805-0.796C76.786,48.62,76.188,48.761,75.776,48.716z
	 M64.222,57.165c1.253-0.891,2.889-1.397,3.973-2.454c-1.828,0.506-3.1,1.569-4.551,2.454c0.785-1.068,0.525-3.183,1.445-4.116
	c-0.83-1.841-3.697-1.458-4.767-0.073c-0.151,0.091-0.271,0.211-0.36,0.363c-0.52,0.441-0.994,0.93-1.445,1.443
	c-0.295,0.234-0.561,0.499-0.795,0.794c-0.362,0.048-0.913-0.095-1.155,0.073c-1.048,0.082-1.784,0.478-2.311,1.082
	c0.755,0.183,1.69,0.188,2.384,0.434c-0.842,1.375-2.037,2.394-2.745,3.901c1.866-0.205,2.165-1.975,3.538-2.674
	c0.361,0,0.723,0,1.084,0c0.221-0.051,0.213,0.124,0.434,0.072c0.717,0.199,1.439,0.39,2.021,0.723
	c-1.016,1.368-2.922,1.844-3.9,3.25c2.749-0.55,3.683-2.914,5.996-3.9c-0.055-0.222,0.197-0.139,0.143-0.36
	C63.532,57.823,63.869,57.486,64.222,57.165z M81.122,52.759c-2.305,0.224-4.086,0.973-5.706,1.88
	c0.257,0.15,0.56,0.258,1.011,0.217c0.506,0,1.012,0,1.517,0c0.297,0.015,0.474,0.151,0.649,0.286
	c-0.563,0.856-1.013,1.827-1.588,2.673c1.174-0.271,2.103-1.171,3.033-1.442c-0.156,0.397-0.277,1.212-0.217,1.588
	c0.488-0.306,1.042-0.548,1.445-0.94c0.295-0.233,0.56-0.498,0.794-0.793c0.357-0.389,0.579-0.915,0.939-1.3
	c0.864-0.218,1.586-0.582,2.095-1.155c-0.564-0.544-1.271-0.946-2.313-1.013C82.396,52.641,81.509,52.641,81.122,52.759z
	 M45.083,56.731c-0.393-0.282-0.624-0.723-1.083-0.938c0.001,0.171-0.124,0.213-0.073,0.434c-0.119,0.076-0.119,0.644,0,0.723
	c0.041,0.104-0.084,0.373,0.073,0.36c0.005,0.429,0.188,0.678,0.216,1.083c-0.514-0.057-0.805,0.109-1.3,0.072
	c-0.218,0.046-0.622-0.092-0.722,0.072c-0.907,0.031-1.8,0.079-2.238,0.577c0.104-0.037,0.373,0.085,0.359-0.072
	c0.371-0.056,0.525,0.103,0.867,0.072c1.565,0.288,2.537,1.172,3.756,1.807c-0.242,0.431-0.568,0.78-0.723,1.3
	c2.111-0.923,4.497-1.571,5.924-3.179C48.257,58.471,46.515,57.755,45.083,56.731z M77.654,62.583
	c1.11,0.02,2.077,0.572,3.179,0.359c-2.908-1.689-4.972-4.224-8.449-5.344c-0.455,0.221-0.646,0.703-1.229,0.794
	c0.945,1.439,1.225,3.544,2.889,4.262c-0.627,0.274-1.184,0.151-1.734-0.145c-1.273-0.689-2.271-2.344-3.683-2.454
	c1.097,1.144,2.329,2.85,4.333,3.754c0.908,0.409,2.004,0.63,3.107,0.938c1.679,0.472,4.215,1.919,4.982-0.143
	c-1.744-0.736-4.592-0.369-5.995-1.445c0.288-0.337,0.755-0.498,1.301-0.576C76.835,62.492,77.159,62.535,77.654,62.583z
	 M68.989,67.783c-0.393-2.595-2.207-3.765-3.033-5.923c-0.587-0.141-1.25-0.025-1.518,0.36c-0.31,0.244-0.566,0.54-0.866,0.795
	c-0.124-0.004-0.186,0.056-0.217,0.144c1.155,0.189,0.626,1.246,0.361,2.023c0,0.071,0,0.143,0,0.216
	c-0.12,0.196-0.12,0.889,0,1.085c0.043,0.148-0.091,0.473,0.071,0.504c0.119,1.037,0.576,1.736,1.012,2.455
	c-0.588,0.157-1.327,0.165-1.951,0.29c-0.266,0.045-0.717-0.094-0.865,0.071c-0.836,0.031-1.622,0.112-2.096,0.507
	c1.242,0.061,2.213-0.149,3.18-0.362c0.197-0.065,0.506-0.021,0.649-0.145c0.196-0.043,0.571,0.092,0.649-0.071
	c0.398-0.038,0.681,0.042,1.012,0.071c1.871,0.128,1.093,2.902,1.877,4.116c0.195-0.455,0.586-0.091,0.939-0.216
	c0.17-0.454-0.213-0.931-0.145-1.518c0-0.433,0-0.865,0-1.299c-0.01-0.467,0.123-0.792,0.145-1.229
	c0.256,0.178,0.467,0.399,0.866,0.434c0.129-0.112,0.049-0.434,0.216-0.505c0.049,0,0.097,0,0.145,0
	c0.844,0.118,2.191,0.118,3.033,0c0.387-0.048,0.771,0.203,1.085,0c0.348-0.389-1.07-0.153-1.518-0.218
	c-0.084-0.061-0.193-0.095-0.361-0.071c-0.337-0.168-0.985-0.025-1.444-0.072c-0.36,0-0.721,0-1.083,0
	c-0.046-0.269,0.095-0.72-0.072-0.867C69.017,68.188,69.151,67.835,68.989,67.783z M47.683,65.831c-0.137-0.135-0.131,0.044-0.359,0
	c-1.285-0.053-1.963,0.495-2.528,1.156c0.774,0.261,1.161,0.909,1.66,1.444c0,0.073,0.06,0.086,0.071,0.144
	c0.235,0.297,0.5,0.561,0.797,0.795c0.023,0,0.047,0,0.07,0c0.091,0.176,0.296,0.235,0.506,0.289
	c0.127,0.067,0.361,0.025,0.434,0.145c-0.001,0.121-0.2,0.041-0.217,0.145c-0.221-0.052-0.213,0.125-0.434,0.072
	c-1.32,0.118-2.173-0.619-3.25-0.506c0.673,0.314,1.453,0.522,2.238,0.723c1.74,0.45,3.529,0.854,5.562,1.012
	c0.252,0.109,0.593,0.13,0.939,0.145c0.298-0.009,0.452,0.125,0.795,0.071c-0.039-0.25-0.389-0.188-0.579-0.289
	c-0.41-0.165-0.895-0.261-1.444-0.288c-0.2-0.056-0.667-0.105-1.081-0.146c-0.442-0.088-0.879-0.181-1.302-0.288
	c0-0.048,0-0.097,0-0.144c0.278-0.108,0.524-0.246,0.649-0.507c0.331-0.127,0.585-0.331,0.795-0.577
	c0.258-0.031,0.396-0.183,0.507-0.361c0.358-0.099,0.593-0.32,0.866-0.506c0.426-0.224,0.914-0.386,1.299-0.649
	c1.039-0.286,2.045-0.604,3.323-0.65c0.337,0,0.674,0,1.011,0c0.073,0,0.145,0,0.217,0c-0.02-0.245-0.326-0.204-0.434-0.36
	c-0.158-0.083-0.295-0.187-0.578-0.145c-0.009-0.16-0.307-0.032-0.433-0.071c-0.101-0.166-0.503-0.027-0.724-0.072
	c-0.023,0-0.047,0-0.07,0c-0.192,0-0.385,0-0.579,0c-1.527-0.24-3.353-0.453-4.767-0.58c-0.275,0.064-0.46-0.118-0.578,0
	c-0.17-0.165-0.646-0.023-0.938-0.072c-0.121,0-0.24,0-0.361,0c-0.023,0-0.049,0-0.072,0C48.38,65.808,47.878,65.666,47.683,65.831z
	 M44.071,72.114c0.144-0.073,0.31-0.124,0.361-0.288c-1.326-0.028-2.15,0.449-3.322,0.577c0.275-0.4,0.642-1.09,0.65-1.516
	c-1.453,0.281-2.578,0.889-3.467,1.732c-0.138,0.369-0.789,0.224-1.156,0.36c-0.656-0.004-1.021,0.278-1.588,0.361
	c0.726,1.683,2.613,2.202,4.838,2.385c0.555-0.061,0.879,0.141,1.156,0c0.023,0,0.049,0,0.072,0c0.134-0.013,0.984,0.07,1.228-0.072
	c0.839-0.028,1.641-0.092,2.239-0.36c-0.699-0.676-2.215-0.53-2.889-1.229C42.679,73.276,43.485,72.806,44.071,72.114z
	 M57.289,78.182c1.294-0.472,3.093-0.698,4.116-1.517c0.453-0.363,1.006-1.083,0.867-1.732c-0.904,0.466-2.344,0.402-3.539,0.577
	c-0.268-0.264-0.215-0.846-0.362-1.228c-1.13,0.05-1.77,0.589-2.526,1.012c-1.475-0.837-3.955-0.668-5.705-1.229
	c0.326,0.879,0.969,1.438,1.516,2.095c0.838,0.897,1.703,1.763,2.601,2.601c-0.108,0.615-0.808,0.638-0.868,1.3
	c0.295,0.213,0.84,0.148,1.013-0.145c0.071,0,0.085-0.058,0.145-0.071c0.319-0.259,0.606-0.55,0.865-0.868
	c0.253-0.109,0.448-0.272,0.795-0.289c0.062,0.084,0.096,0.194,0.073,0.361C56.573,78.719,56.769,78.287,57.289,78.182z"/>
<path fill-rule="evenodd" clip-rule="evenodd" fill="#F69A71" d="M84.083,46.838c0.367-0.139,1.018,0.006,1.155-0.361
	C85.124,46.866,84.621,46.87,84.083,46.838"/>
<path fill-rule="evenodd" clip-rule="evenodd" fill="#F69A71" d="M50.573,22.282c0.071,0,0.084,0.059,0.145,0.072
	c0.27,0.381,0.668,0.631,0.938,1.011C51.265,23.034,50.903,22.674,50.573,22.282"/>
<path fill-rule="evenodd" clip-rule="evenodd" fill="#F69A71" d="M51.077,21.199c-0.282-0.275-0.523-0.451-0.794-0.579
	C50.629,20.615,50.847,20.905,51.077,21.199"/>
<path fill-rule="evenodd" clip-rule="evenodd" fill="#FFFFFF" d="M50.283,20.62c0.271,0.128,0.512,0.304,0.794,0.579
	c1.917,1.62,4.691,2.386,6.212,4.404c0.938-0.432,1.279-1.465,2.165-1.949c-0.18,0.879-0.983,1.76-1.805,2.238
	c0.675,0.746,1.098,1.743,1.155,3.106c-0.464,0.053-0.733-0.085-1.155-0.072c-0.146-0.166-0.6-0.025-0.866-0.071
	c-0.024,0-0.048,0-0.073,0c-0.146-0.167-0.599-0.026-0.865-0.073c-0.24,0-0.482,0-0.724,0c-1.487-0.223-2.411,0.782-3.538,1.3
	c-0.95,0.438-1.809,0.707-2.816,1.011c0.779-1.219,2.814-1.181,3.756-2.237c-0.057-0.571-0.426-0.829-0.65-1.229
	c0.609-0.865-0.165-1.952-0.145-2.89c0.008-0.388,0.287-0.777,0.145-1.083c-0.236-0.583-0.746-0.89-1.154-1.3
	c-0.061-0.014-0.073-0.072-0.145-0.072C50.243,22.041,49.646,20.696,50.283,20.62 M53.532,28.349
	c-0.612-0.063-0.814-0.918-1.371-0.794C52.44,27.938,52.983,29.138,53.532,28.349z"/>
<path fill-rule="evenodd" clip-rule="evenodd" fill="#FAFBFA" d="M51.655,23.365c-0.27-0.38-0.668-0.63-0.938-1.011
	c0.408,0.41,0.918,0.717,1.154,1.3C51.724,23.634,51.728,23.46,51.655,23.365"/>
<path fill-rule="evenodd" clip-rule="evenodd" fill="#FBD0B9" d="M68.483,24.81c0.194-0.01,0.258,0.745,0,0.722
	C68.593,25.4,68.593,24.941,68.483,24.81"/>
<path fill-rule="evenodd" clip-rule="evenodd" fill="#FAFBFA" d="M66.822,30.443c-0.013-0.085-0.114-0.08-0.216-0.072
	c0.122-0.166,0.549-0.026,0.793-0.072c0.1,0.093,0.072,0.315,0.072,0.506c-0.149-0.019-0.02-0.318-0.145-0.361
	C67.159,30.443,66.99,30.443,66.822,30.443"/>
<path fill-rule="evenodd" clip-rule="evenodd" fill="#FFFFFF" d="M72.815,28.421c0.41,0,0.82,0,1.229,0
	c0.227-0.034,0.282,0.103,0.434,0.146c-0.572,0.572-1.511,0.693-2.456,0.865c-0.938,0.173-2.176,0.121-2.816,0.507
	c-0.753,0.452-0.401,1.484-1.228,1.876c-0.271-0.232-0.496-0.516-0.506-1.01c0-0.19,0.027-0.413-0.072-0.506
	c-0.244,0.046-0.671-0.094-0.793,0.072c0.102-0.008,0.203-0.013,0.216,0.072c-1.467,0.099-2.434,0.697-4.045,0.649
	c0.419-1.507,2.886-0.965,4.189-1.589c-0.036-0.254-0.108-0.47-0.073-0.794c0-0.289,0-0.58,0-0.868
	c0.055-1.244,0.545-2.053,1.59-2.311c0.258,0.023,0.194-0.731,0-0.722c-0.023,0-0.049,0-0.072,0
	c2.291-2.374,4.388,2.909,1.949,4.117C71.305,28.883,71.888,28.48,72.815,28.421"/>
<path fill-rule="evenodd" clip-rule="evenodd" fill="#F16524" d="M7.889,25.387c1.215,0.206,2.806,0.661,3.466,1.661
	C10.207,26.487,8.908,26.078,7.889,25.387"/>
<path fill-rule="evenodd" clip-rule="evenodd" fill="#FFFFFF" d="M44.649,28.566c0.822,0.044,1.316,0.418,1.806,0.794
	c-0.649,0.795-1.576,1.312-2.89,1.444c-0.338,0.046-0.864-0.095-1.082,0.072c-0.072,0-0.145,0-0.217,0
	c-0.266-0.167-0.842-0.026-1.229-0.072c-1.941-0.226-3.669-0.664-5.055-1.444c0.287-0.051,0.516-0.158,0.865-0.145
	c0.458,0,0.916,0,1.373,0c0.139-0.063-0.076-0.043-0.072-0.145c0.169,0,0.338,0,0.506,0c-0.456-0.653-0.492-1.723-0.793-2.529
	c0.7-0.148,1.146,0.456,1.659,0.723c0.05-0.423,0.585-0.601,0.145-0.938c1.43,0.185,1.928,1.924,3.539,2.167
	C43.544,28.66,44.19,28.517,44.649,28.566"/>
<path fill-rule="evenodd" clip-rule="evenodd" fill="#FFFFFF" d="M30.132,32.247c-0.385,0.048-0.96-0.093-1.227,0.074
	c-0.023,0-0.048,0-0.072,0c-0.22-0.121-0.937-0.121-1.156,0c-0.119,0-0.239,0-0.36,0c0.634-0.753,1.454-0.895,2.166-1.591
	c0.771,0.579,2.183,0.517,2.89,1.156C31.772,32.155,30.972,32.219,30.132,32.247"/>
<path fill-rule="evenodd" clip-rule="evenodd" fill="#F69A71" d="M58.589,39.326c0-0.035,0.014-0.095,0.071-0.072
	c-1.53-0.61-4.435,0.366-6.138-0.144c1.971,0.093,4.607-0.189,6.211,0.144C58.675,39.268,58.66,39.326,58.589,39.326"/>
<path fill-rule="evenodd" clip-rule="evenodd" fill="#FAFBFA" d="M58.444,39.398c0-0.036,0.014-0.096,0.072-0.072
	c-0.889-0.353-3.544-0.072-4.694-0.072c-0.55,0-1.28,0.173-1.444-0.217c0.092-0.004,0.1-0.092,0.217-0.073
	c-0.016,0.06-0.072,0.073-0.072,0.146c1.703,0.51,4.607-0.467,6.138,0.144c-0.058-0.022-0.071,0.037-0.071,0.072
	C58.53,39.34,58.517,39.398,58.444,39.398"/>
<path fill-rule="evenodd" clip-rule="evenodd" fill="#FFFFFF" d="M52.595,38.964c-0.117-0.019-0.125,0.069-0.217,0.073
	c0.164,0.39,0.895,0.217,1.444,0.217c1.15,0,3.806-0.28,4.694,0.072c-0.059-0.023-0.072,0.036-0.072,0.072
	c-0.249,0.185-0.564,0.301-1.012,0.288c-0.457,0-0.915,0-1.373,0c-0.24,0-0.48,0-0.722,0c-0.168,0-0.336,0-0.505,0
	c-0.1-0.163-0.503-0.026-0.723-0.072c-1.172-0.015-2.223,0.088-2.816,0.65c-0.051,0.222,0.125,0.213,0.073,0.436
	c0.048,0.697-0.097,1.586,0.071,2.165c0.009,0.014-0.012,0.142,0,0.146c-0.51-0.13-1.348-0.122-2.095,0
	c0.165-0.486,0.412-0.889,0.505-1.445c0.12-0.077,0.12-0.644,0-0.724c-0.24-0.815-1.117-0.999-2.094-1.083
	c-0.291-0.119-1.08-0.119-1.373,0c-1.316,0.055-2.512,0.231-3.826,0.289c0.251-0.423,0.841-0.506,1.444-0.577
	c0.795-0.048,1.781,0.097,2.455-0.072c0.216-0.029,0.931,0.07,0.795-0.072c0.389-0.141,1.015-0.045,1.372-0.216
	c-0.381-1.275-1.558-3.896,0.506-4.189c0.285-0.826,0.851-1.58,1.734-1.444c0.867,0.135,1.26,1.77,2.236,1.733
	c-0.008,0.297,0.127,0.451,0.073,0.795c0,0.264,0,0.529,0,0.794C53.175,37.718,52.907,38.365,52.595,38.964"/>
<path fill-rule="evenodd" clip-rule="evenodd" fill="#F69A71" d="M64.511,36.654c0.283-0.344,0.596-0.657,0.938-0.939
	C65.167,36.058,64.854,36.371,64.511,36.654"/>
<path fill-rule="evenodd" clip-rule="evenodd" fill="#FBD0B9" d="M61.622,41.493c0.234-0.296,0.499-0.559,0.794-0.793
	C62.163,40.977,61.979,41.321,61.622,41.493"/>
<path fill-rule="evenodd" clip-rule="evenodd" fill="#F69A71" d="M62.416,40.7c0.235-0.297,0.5-0.562,0.794-0.797
	C62.977,40.199,62.71,40.464,62.416,40.7"/>
<path fill-rule="evenodd" clip-rule="evenodd" fill="#F69A71" d="M67.183,40.337c0.344,0.282,0.656,0.598,0.939,0.939
	C67.779,40.993,67.466,40.68,67.183,40.337"/>
<path fill-rule="evenodd" clip-rule="evenodd" fill="#F69A71" d="M68.411,41.639c0.072-0.001,0.085,0.059,0.145,0.072
	c0.293,0.402,0.717,0.679,1.01,1.082C69.151,42.438,68.765,42.054,68.411,41.639"/>
<path fill-rule="evenodd" clip-rule="evenodd" fill="#FAFBFA" d="M68.122,41.276c-0.283-0.342-0.596-0.657-0.939-0.939
	c-0.144-0.073-0.308-0.124-0.36-0.289c0.721,0.41,1.228,1.036,1.733,1.663c-0.06-0.014-0.072-0.073-0.145-0.072
	C68.361,41.471,68.171,41.443,68.122,41.276"/>
<path fill-rule="evenodd" clip-rule="evenodd" fill="#FFFFFF" d="M63.21,39.903c-0.294,0.235-0.559,0.5-0.794,0.797
	c-0.295,0.234-0.56,0.497-0.794,0.793c-0.227,0.304-0.631,0.427-1.084,0.507c0.779-1.655,1.99-2.874,3.105-4.189
	c-1.119-1.239-2.658-2.062-4.116-2.962c1.85,0.102,2.964,1.563,4.405,2.311c0.291-0.07,0.406-0.314,0.578-0.505
	c0.344-0.283,0.656-0.597,0.938-0.939c0.827-1.023,3.179-2.013,4.333-0.649c-0.791,1.473-0.799,3.726-2.527,4.261
	c0.339,1.059,1.448,1.346,2.166,2.022c-0.068-2.309,0.912-3.567,1.807-4.911c-0.271,1.511-1.109,2.454-1.301,4.045
	c-0.023,0-0.049,0-0.071,0c-0.107-0.097-0.154,0.897,0.071,0.938c0.137,1.044,1.401,0.958,1.445,2.095
	c-0.873,0.03-1.312-0.374-1.807-0.723c-0.293-0.403-0.717-0.68-1.01-1.082c-0.506-0.627-1.013-1.253-1.733-1.663
	c-0.482-0.263-0.979-0.514-1.59-0.649c-0.077-0.119-0.644-0.119-0.722,0C64.033,39.524,63.55,39.641,63.21,39.903"/>
<path fill-rule="evenodd" clip-rule="evenodd" fill="#FFFFFF" d="M83.938,37.594c0.121,0,0.24,0,0.361,0
	c0.078,0.678-0.549,0.653-0.723,1.082c-0.148,0.022-0.142,0.195-0.288,0.218c-0.247,0.186-0.465,0.402-0.649,0.648
	c0.058,0.014,0.071,0.073,0.143,0.072c0.204,0.039,0.376,0.108,0.578,0.145c0.051,0.269-0.123,0.311-0.071,0.578
	c-0.006,0.366-0.034,0.546-0.072,0.722c-1.557,0.428-3.156,1.129-4.984,0.941c-1.8-0.188-2.853-1.525-3.972-2.313
	c0.57-0.707,1.917-1.288,3.033-0.793c0.725-1.997,3.677-1.765,5.923-2.239c-0.315,0.359-0.987,0.747-1.013,1.156
	C82.677,37.632,83.288,37.593,83.938,37.594"/>
<path fill-rule="evenodd" clip-rule="evenodd" fill="#F69A71" d="M82.782,39.614c-0.071,0.001-0.085-0.059-0.143-0.072
	c0.185-0.246,0.402-0.463,0.649-0.648C83.19,39.177,82.649,39.332,82.782,39.614"/>
<path fill-rule="evenodd" clip-rule="evenodd" fill="#F69A71" d="M62.345,46.908c0.27-0.209,0.51-0.449,0.723-0.722
	c0.071,0.001,0.084-0.059,0.143-0.072c-0.258,0.322-0.548,0.607-0.865,0.867C62.345,46.958,62.345,46.934,62.345,46.908"/>
<path fill-rule="evenodd" clip-rule="evenodd" fill="#F69A71" d="M62.561,46.403c0.392-0.498,0.909-0.871,1.3-1.372
	c0.166,0.058-0.035,0.341-0.144,0.361c-0.319,0.092-0.765,0.68-1.084,1.011C62.608,46.403,62.585,46.403,62.561,46.403"/>
<path fill-rule="evenodd" clip-rule="evenodd" fill="#FFFFFF" d="M62.561,46.403c0.024,0,0.048,0,0.072,0
	c0.319-0.331,0.765-0.919,1.084-1.011c-0.092,0.319-0.352,0.469-0.507,0.722c-0.059,0.014-0.071,0.073-0.143,0.072
	c-0.272,0.211-0.514,0.453-0.723,0.722c0,0.025,0,0.05,0,0.073c-2.467,2.182-6.143,3.15-9.318,4.622
	c-0.367,0.066-0.656,0.21-0.865,0.434c-0.405,0.245-0.787,0.513-1.229,0.722c0.92-1.703,3.268-1.981,4.983-2.888
	c-0.868-2.207-3.349-0.196-4.839,0.144c0.012-0.719,0.471-1.448,0.939-1.948c1.375-1.473,3.817-2.838,6.211-3.107
	c0.289,0,0.577,0,0.867,0c0.359-0.047,0.559,0.067,0.867,0.072c0.267,0.406,0.49,0.857,0.576,1.445
	c-1.755-0.174-1.973,1.771-3.322,2.239C59.702,48.937,61.124,47.472,62.561,46.403 M55.7,49.076c0.436,0.117,0.66,0.447,1.3,0.361
	C57.063,48.825,55.927,48.525,55.7,49.076z"/>
<path fill-rule="evenodd" clip-rule="evenodd" fill="#FAFBFA" d="M62.345,46.908c0.209-0.269,0.45-0.511,0.723-0.722
	C62.854,46.459,62.614,46.699,62.345,46.908"/>
<path fill-rule="evenodd" clip-rule="evenodd" fill="#FBD0B9" d="M52.161,52.037c0.209-0.224,0.498-0.367,0.865-0.434
	C52.778,51.789,52.491,51.934,52.161,52.037"/>
<path fill-rule="evenodd" clip-rule="evenodd" fill="#FFFFFF" d="M75.776,48.716c0.291,0.166,0.891,0.024,1.301,0.071
	c0.837,0.031,1.334,0.398,1.805,0.796c-0.557,0.861-1.551,1.287-2.814,1.444c-0.604,0.047-1.396-0.098-1.879,0.07
	c-2.287-0.119-4.084-0.731-5.777-1.443c0.705-0.305,1.666-0.355,2.672-0.361c-0.267-0.483-0.604-1.895-0.723-2.526
	c0.811-0.041,1.11,0.429,1.59,0.72c0.162-0.473,0.579-0.497,0.216-1.01C73.674,46.919,74.047,48.496,75.776,48.716"/>
<path fill-rule="evenodd" clip-rule="evenodd" fill="#FFFFFF" d="M39.089,46.838c0-0.361,0-0.724,0-1.084
	c-0.245-2.725,3.918-4.03,3.972-0.867c1.511,1.693,2.894,3.512,3.466,6.141c0.373,0.279,0.92,0.379,1.445,0.505
	c0.059,0.441-0.326,0.445-0.217,0.938c-0.342-0.019-0.37-0.353-0.795-0.289c-0.194,0.175,0.271,0.304,0.146,0.649
	c-0.385-0.119-0.666-0.345-1.155-0.36c0.197-0.348-0.205-0.445-0.145-0.867c-1.29-0.35-2.473-1.026-3.756-1.443
	c-0.426-0.14-0.953-0.124-1.372-0.289c-0.3-0.118-0.456-0.408-0.722-0.578c-0.592-0.374-1.344-0.318-1.807-0.795
	c1.039-0.075,1.424,0.503,2.311,0.578C39.759,48.575,39.144,47.985,39.089,46.838 M43.277,50.16
	c0.946-0.104,1.132,0.553,2.095,0.433c-0.021-0.413-0.461-0.404-0.434-0.866C44.31,49.796,43.58,49.765,43.277,50.16z"/>
<path fill-rule="evenodd" clip-rule="evenodd" fill="#FFFFFF" d="M25.872,61.643c0.502-2.436,2.184-4.316,3.61-6.066
	c-2.56-0.81-3.89-2.851-5.921-4.189c0.424-0.104,0.589-0.469,0.865-0.722c1.162,0.26,1.779,1.063,2.745,1.517
	c1.218-0.66,2.272-1.482,3.829-1.806c0.528,0,1.059,0,1.588,0c0.729,0.186,1.086,0.745,1.371,1.372
	c-1.348,0.05-1.098,1.696-1.732,2.456c3.085,0.395,4.313-1.644,6.283-2.601c-0.898,3.467-5.623,2.408-8.09,4.335
	c-0.758,0.592-1.34,1.86-1.805,2.96c-0.3,0.707-1.057,2.896-1.806,3.033c-0.419,0.076-0.606-0.31-0.866-0.216
	c0.08,0.015,0.113,0.079,0.145,0.145c-0.059-0.015-0.072-0.072-0.145-0.072C25.931,61.729,25.872,61.716,25.872,61.643"/>
<path fill-rule="evenodd" clip-rule="evenodd" fill="#FBD0B9" d="M58.517,54.782c0.451-0.514,0.926-1.002,1.445-1.443
	c-0.102,0.213-0.335,0.292-0.435,0.505C59.147,54.113,58.896,54.512,58.517,54.782"/>
<path fill-rule="evenodd" clip-rule="evenodd" fill="#F69A71" d="M57.722,55.576c0.234-0.295,0.5-0.56,0.795-0.794
	c-0.149,0.261-0.429,0.389-0.578,0.649C57.844,55.458,57.825,55.56,57.722,55.576"/>
<path fill-rule="evenodd" clip-rule="evenodd" fill="#FBD0B9" d="M63.21,58.177c0.239-0.438,0.607-0.741,1.012-1.012
	C63.869,57.486,63.532,57.823,63.21,58.177"/>
<path fill-rule="evenodd" clip-rule="evenodd" fill="#FFFFFF" d="M64.222,57.165c-0.404,0.271-0.772,0.574-1.012,1.012
	c0.055,0.222-0.197,0.139-0.143,0.36c-2.313,0.986-3.247,3.351-5.996,3.9c0.979-1.406,2.885-1.882,3.9-3.25
	c-0.582-0.333-1.305-0.523-2.021-0.723c-0.17-0.3-1.401-0.267-1.518-0.145c0,0.025,0,0.049,0,0.072
	c-1.373,0.699-1.672,2.469-3.538,2.674c0.708-1.508,1.903-2.526,2.745-3.901c-0.693-0.246-1.629-0.251-2.384-0.434
	c0.526-0.604,1.263-1,2.311-1.082c0.461-0.069,1.237,0.178,1.372-0.218c0.149-0.261,0.429-0.389,0.578-0.649
	c0.379-0.271,0.631-0.669,1.011-0.938c0.296-0.257,0.614-0.496,0.795-0.868c1.069-1.385,3.937-1.768,4.767,0.073
	c-0.92,0.934-0.66,3.048-1.445,4.116c1.451-0.885,2.723-1.948,4.551-2.454C67.11,55.768,65.475,56.274,64.222,57.165 M60.827,58.755
	c-0.203,0.092,0.621,0.138,0.65,0c0.351-0.132,0.746-0.217,0.795-0.651c-0.823,0.069-1.67,0.111-2.168,0.506
	C60.358,58.647,60.65,58.643,60.827,58.755z"/>
<path fill-rule="evenodd" clip-rule="evenodd" fill="#FBD0B9" d="M57.722,55.576c0.104-0.017,0.122-0.118,0.217-0.145
	c-0.135,0.396-0.911,0.148-1.372,0.218C56.809,55.481,57.359,55.624,57.722,55.576"/>
<path fill-rule="evenodd" clip-rule="evenodd" fill="#FAFBFA" d="M59.527,53.844c0.1-0.213,0.333-0.292,0.435-0.505
	c0.089-0.152,0.209-0.272,0.36-0.363C60.142,53.348,59.823,53.587,59.527,53.844"/>
<path fill-rule="evenodd" clip-rule="evenodd" fill="#F69A71" d="M81.267,57.02c0.234-0.293,0.498-0.559,0.794-0.793
	C81.826,56.521,81.562,56.786,81.267,57.02"/>
<path fill-rule="evenodd" clip-rule="evenodd" fill="#FFFFFF" d="M82.061,56.227c-0.296,0.234-0.56,0.5-0.794,0.793
	c-0.403,0.393-0.957,0.635-1.445,0.94c-0.061-0.376,0.061-1.19,0.217-1.588c-0.931,0.271-1.859,1.171-3.033,1.442
	c0.575-0.846,1.024-1.816,1.588-2.673c-0.176-0.135-0.353-0.271-0.649-0.286c0-0.026,0-0.051,0-0.073
	c-0.339-0.121-1.177-0.121-1.517,0c0,0.022,0,0.047,0,0.073c-0.451,0.041-0.754-0.066-1.011-0.217
	c1.62-0.907,3.401-1.656,5.706-1.88c0.553,0,1.107,0,1.66,0c1.041,0.066,1.748,0.469,2.313,1.013
	c-0.509,0.573-1.23,0.938-2.095,1.155C82.64,55.312,82.418,55.838,82.061,56.227"/>
<path fill-rule="evenodd" clip-rule="evenodd" fill="#FAFBFA" d="M45.083,56.731c-0.457-0.144-0.652-0.552-1.012-0.793
	c-0.105,0.375-0.066,0.895-0.071,1.371c-0.157,0.013-0.032-0.257-0.073-0.36c0-0.241,0-0.481,0-0.723
	c-0.051-0.221,0.074-0.263,0.073-0.434C44.459,56.009,44.69,56.449,45.083,56.731"/>
<path fill-rule="evenodd" clip-rule="evenodd" fill="#FFFFFF" d="M44,57.31c0.005-0.477-0.034-0.996,0.071-1.371
	c0.359,0.241,0.555,0.649,1.012,0.793c1.432,1.023,3.174,1.739,5.057,2.311c-1.427,1.607-3.813,2.256-5.924,3.179
	c0.154-0.52,0.48-0.869,0.723-1.3c-1.219-0.635-2.19-1.519-3.756-1.807c-0.062-0.183-0.961-0.201-0.867-0.072
	c0.014,0.157-0.256,0.035-0.359,0.072c0.438-0.498,1.331-0.546,2.238-0.577c0.221-0.045,0.621,0.093,0.722-0.072
	c0.495,0.037,0.786-0.129,1.3-0.072C44.188,57.987,44.005,57.738,44,57.31"/>
<path fill-rule="evenodd" clip-rule="evenodd" fill="#FFFFFF" d="M76.355,62.583c-0.546,0.078-1.013,0.239-1.301,0.576
	c1.403,1.076,4.251,0.709,5.995,1.445c-0.768,2.062-3.304,0.614-4.982,0.143c-1.104-0.308-2.199-0.528-3.107-0.938
	c-2.004-0.904-3.236-2.61-4.333-3.754c1.411,0.11,2.409,1.765,3.683,2.454c0.551,0.296,1.107,0.419,1.734,0.145
	c-1.664-0.718-1.943-2.822-2.889-4.262c0.583-0.091,0.773-0.573,1.229-0.794c3.478,1.12,5.541,3.654,8.449,5.344
	c-1.102,0.213-2.068-0.34-3.179-0.359C77.482,62.373,76.519,62.335,76.355,62.583 M74.116,63.016
	c0.378,0.302,0.965-0.041,1.083-0.433C74.745,62.399,74.208,62.611,74.116,63.016z"/>
<path fill-rule="evenodd" clip-rule="evenodd" fill="#FFFFFF" d="M37.499,62.87c0,0.289,0,0.577,0,0.867
	c-0.1,1.681-1.122,2.44-2.6,2.746c0.324,0.062,0.552,0.217,0.939,0.216c0.147,0.119,0.791,0.119,0.939,0
	c1.26-0.04,2.488-0.497,3.609-0.435c-0.665,0.514-1.666,0.694-2.889,0.649c-0.219,0.047-0.621-0.092-0.721,0.073
	c-2.791,0.244-4.895,1.172-7.007,2.096c0,0.047,0,0.096,0,0.144c-0.511-0.052-0.803,0.495-1.155,0.361
	c1.272-1.304,3.134-2.02,5.199-2.528c-1.368-1.326-3.063,0.383-4.044,1.011c1.114-2.571,3.229-4.138,5.562-5.487
	c-0.055-1.163,0.826-1.389,1.155-2.167C37.006,61.055,37.466,61.749,37.499,62.87 M34.034,66.699
	c0.351-0.008,0.502,0.297,0.794,0.144C34.813,66.571,34.154,66.408,34.034,66.699z"/>
<path fill-rule="evenodd" clip-rule="evenodd" fill="#FBD0B9" d="M63.572,63.016c0.3-0.255,0.557-0.551,0.866-0.795
	C64.169,62.506,63.962,62.852,63.572,63.016"/>
<path fill-rule="evenodd" clip-rule="evenodd" fill="#F69A71" d="M73.539,69.588c0.05-0.312-1.026-0.067-1.444-0.146
	c-0.045-0.003-0.086-0.012-0.073-0.072C72.469,69.435,73.887,69.199,73.539,69.588"/>
<path fill-rule="evenodd" clip-rule="evenodd" fill="#F69A71" d="M69.061,68.359c0.167,0.147,0.026,0.599,0.072,0.867
	c0.362,0,0.723,0,1.083,0c0,0.024,0,0.048,0,0.072c-0.36,0-0.721,0-1.083,0C68.991,69.104,69.09,68.667,69.061,68.359"/>
<path fill-rule="evenodd" clip-rule="evenodd" fill="#FFFFFF" d="M64.438,62.221c0.268-0.386,0.931-0.501,1.518-0.36
	c0.826,2.158,2.641,3.328,3.033,5.923c0,0.505,0,1.011,0,1.516c0.047,0,0.096,0,0.144,0c0.362,0,0.723,0,1.083,0
	c0.482,0,0.963,0,1.444,0c0.168-0.023,0.277,0.011,0.361,0.071c-0.013,0.061,0.028,0.069,0.073,0.072c0,0.025,0,0.048,0,0.072
	c-0.916,0.049-2.022-0.096-2.818,0.073c-0.167,0.071-0.087,0.393-0.216,0.505c-0.399-0.034-0.61-0.256-0.866-0.434
	c-0.021,0.437-0.154,0.762-0.145,1.229c-0.12,0.268-0.12,1.032,0,1.299c-0.068,0.587,0.314,1.063,0.145,1.518
	c-0.354,0.125-0.744-0.239-0.939,0.216c-0.784-1.214-0.006-3.988-1.877-4.116c-0.09-0.197-1.072-0.196-1.012-0.071
	c-0.078,0.163-0.453,0.028-0.649,0.071c-0.175-0.139-0.581-0.045-0.868-0.071c0.624-0.125,1.363-0.133,1.951-0.29
	c-0.436-0.719-0.893-1.418-1.012-2.455c-0.047-0.578,0.096-1.347-0.071-1.805c0.265-0.777,0.794-1.834-0.361-2.023
	c0.031-0.088,0.093-0.147,0.217-0.144C63.962,62.852,64.169,62.506,64.438,62.221"/>
<path fill-rule="evenodd" clip-rule="evenodd" fill="#F69A71" d="M46.526,68.575c0.296,0.235,0.561,0.5,0.797,0.795
	C47.026,69.136,46.762,68.872,46.526,68.575"/>
<path fill-rule="evenodd" clip-rule="evenodd" fill="#F69A71" d="M50.14,69.659c0.058,0.051,0.196,0.113,0.215,0
	c0.073,0,0.086-0.06,0.146-0.071c0.171-0.117,0.317-0.26,0.505-0.361c-0.21,0.246-0.464,0.45-0.795,0.577c-0.023,0-0.048,0-0.07,0
	C50.14,69.757,50.14,69.706,50.14,69.659"/>
<path fill-rule="evenodd" clip-rule="evenodd" fill="#FAFBFA" d="M52.378,68.359c0.249-0.4,0.73-0.569,1.299-0.649
	C53.292,67.974,52.804,68.136,52.378,68.359"/>
<path fill-rule="evenodd" clip-rule="evenodd" fill="#FAFBFA" d="M50.5,69.588c0.243-0.335,0.558-0.599,1.012-0.723
	c-0.11,0.179-0.249,0.33-0.507,0.361C50.817,69.328,50.671,69.471,50.5,69.588"/>
<path fill-rule="evenodd" clip-rule="evenodd" fill="#FBD0B9" d="M47.899,69.659c0.109-0.15,0.487,0.038,0.65,0.073
	c-0.066,0.15-0.214,0.219-0.434,0.216c0.017-0.104,0.216-0.023,0.217-0.145C48.261,69.685,48.026,69.727,47.899,69.659"/>
<path fill-rule="evenodd" clip-rule="evenodd" fill="#FBD0B9" d="M47.323,69.37c-0.236-0.295-0.501-0.56-0.797-0.795
	c-0.012-0.058-0.071-0.07-0.071-0.144c0.344,0.282,0.655,0.596,0.938,0.938C47.37,69.37,47.347,69.37,47.323,69.37"/>
<path fill-rule="evenodd" clip-rule="evenodd" fill="#FFFFFF" d="M53.677,67.71c-0.568,0.08-1.05,0.249-1.299,0.649
	c-0.273,0.186-0.508,0.407-0.866,0.506c-0.454,0.124-0.769,0.388-1.012,0.723c-0.06,0.012-0.072,0.071-0.146,0.071
	c-0.189-0.074-0.443-0.086-0.722-0.071c-0.11,0.037-0.004,0.075,0.071,0.071c-0.439,0.186-1.014,0.237-1.371,0.506
	c0.299,0.279,0.797,0.073,1.156,0c0.184-0.004,0.088,0.054,0.071,0.146c0,0.047,0,0.096,0,0.144c0.423,0.107,0.859,0.2,1.302,0.288
	c0.345,0.209,0.818,0.288,1.37,0.289c0.222-0.051,0.214,0.125,0.435,0.072c-0.074,0.122-0.308,0.08-0.435,0.146
	c-2.032-0.158-3.821-0.562-5.562-1.012c-0.192-0.344,0.864,0.019,1.012-0.217c0.221,0.053,0.213-0.124,0.434-0.072
	c0.22,0.003,0.367-0.065,0.434-0.216c-0.163-0.035-0.541-0.224-0.65-0.073c-0.21-0.054-0.415-0.113-0.506-0.289
	c-0.283-0.343-0.595-0.656-0.938-0.938c-0.499-0.535-0.886-1.184-1.66-1.444c0.565-0.661,1.243-1.209,2.528-1.156
	c0.289,0.121,1.08,0.121,1.371,0c0-0.022,0-0.048,0-0.072c0.023,0,0.049,0,0.072,0c0.332,0.271,1.431,0.159,1.877,0.072
	c1.414,0.127,3.239,0.34,4.767,0.58c-0.072,0-0.144,0-0.216,0c0.03,0.159,0.355,0.027,0.506,0.072
	c0.363,0.167,1.033,0.022,1.516,0.071c0.283-0.042,0.42,0.062,0.578,0.145c0.037,0.059,0.076,0.116,0.072,0.215
	c-0.268,0.047-0.72-0.092-0.866,0.073c0,0.023,0,0.05,0,0.072C55.722,67.105,54.716,67.424,53.677,67.71"/>
<path fill-rule="evenodd" clip-rule="evenodd" fill="#F16524" d="M88.415,67.132c0.28-0.012,1.014,0.141,1.229,0.434
	c0.047,0.334-0.395,0.182-0.649,0.218C88.862,67.503,88.679,67.28,88.415,67.132"/>
<path fill-rule="evenodd" clip-rule="evenodd" fill="#FBD0B9" d="M49.704,69.659c-0.075,0.004-0.182-0.034-0.071-0.071
	c0.278-0.015,0.532-0.003,0.722,0.071c-0.019,0.113-0.157,0.051-0.215,0C49.993,69.659,49.849,69.659,49.704,69.659"/>
<path fill-rule="evenodd" clip-rule="evenodd" fill="#FBD0B9" d="M49.489,70.165c0.16-0.175,0.352-0.321,0.65-0.361
	c0.022,0,0.047,0,0.07,0c-0.125,0.261-0.371,0.398-0.649,0.507C49.577,70.219,49.673,70.161,49.489,70.165"/>
<path fill-rule="evenodd" clip-rule="evenodd" fill="#FAFBFA" d="M52.232,71.031c-0.552-0.001-1.025-0.08-1.37-0.289
	c0.414,0.04,0.881,0.09,1.081,0.146c0.015,0.107,0.176,0.066,0.289,0.071C52.232,70.984,52.232,71.008,52.232,71.031"/>
<path fill-rule="evenodd" clip-rule="evenodd" fill="#FBD0B9" d="M52.232,71.249c0.127-0.065,0.36-0.023,0.435-0.146
	c-0.221,0.053-0.213-0.123-0.435-0.072c0-0.023,0-0.047,0-0.072c-0.113-0.005-0.274,0.036-0.289-0.071
	c0.55,0.027,1.034,0.123,1.444,0.288c-0.221-0.052-0.211,0.126-0.434,0.073c0.018,0.103,0.216,0.024,0.218,0.145
	C52.825,71.379,52.484,71.358,52.232,71.249"/>
<path fill-rule="evenodd" clip-rule="evenodd" fill="#F69A71" d="M37.138,72.98c0.367-0.137,1.019,0.009,1.156-0.36
	C38.179,73.01,37.677,73.016,37.138,72.98"/>
<path fill-rule="evenodd" clip-rule="evenodd" fill="#FBD0B9" d="M42.194,74.064c0.309-0.678,1.215-1.384,1.877-1.95
	C43.485,72.806,42.679,73.276,42.194,74.064"/>
<path fill-rule="evenodd" clip-rule="evenodd" fill="#FFFFFF" d="M44.071,72.114c-0.662,0.566-1.568,1.272-1.877,1.95
	c0.674,0.699,2.189,0.554,2.889,1.229c-0.599,0.269-1.4,0.332-2.239,0.36c-0.386,0.047-0.962-0.096-1.228,0.072
	c-0.023,0-0.049,0-0.072,0c-0.22-0.119-0.937-0.119-1.156,0c-2.225-0.183-4.112-0.702-4.838-2.385
	c0.566-0.083,0.932-0.365,1.588-0.361c0.539,0.035,1.041,0.029,1.156-0.36c0.889-0.844,2.014-1.451,3.467-1.732
	c-0.009,0.426-0.375,1.115-0.65,1.516c1.172-0.128,1.996-0.605,3.322-0.577C44.381,71.99,44.215,72.041,44.071,72.114"/>
<path fill-rule="evenodd" clip-rule="evenodd" fill="#F69A71" d="M51.655,76.159c0.146,0.021,0.143,0.196,0.288,0.218
	c0.282,0.344,0.597,0.655,0.938,0.938c0.332,0.391,0.692,0.752,1.085,1.082c0.048,0.169,0.239,0.194,0.289,0.362
	C53.358,77.922,52.493,77.057,51.655,76.159"/>
<path fill-rule="evenodd" clip-rule="evenodd" fill="#F69A71" d="M54.545,79.844c0.196-0.309,0.524-0.487,0.722-0.796
	c0.071,0,0.086-0.058,0.144-0.072C55.151,79.294,54.864,79.585,54.545,79.844"/>
<path fill-rule="evenodd" clip-rule="evenodd" fill="#FFFFFF" d="M57.289,78.182c-0.32,0.026-0.452-0.418-0.579,0
	c-0.215-0.048,0.068-0.154,0-0.289c-0.172-0.128-0.318,0.212-0.505-0.071c0.081,0.09,0.063,0.147-0.072,0.145
	c0.071,0.201,0.192-0.105,0.288,0.071c-0.194,0.236-0.402-0.12-0.576-0.145c0.143,0.167-0.019,0.081-0.074,0.216
	c0.059-0.285-0.178-0.013-0.287-0.287c-0.098,0.07-0.146,0.191-0.217,0.287c-0.098-0.021-0.061-0.18-0.072-0.287
	c-0.198,0.168-0.013,0.27-0.289,0.36c-0.201-0.092,0.229-0.149,0.145-0.36c-0.041,0.224-0.354,0.174-0.505,0.287
	c-0.019-0.332-0.113-0.079-0.435,0c-0.262-0.085-0.154-0.271-0.506-0.143c-0.283-0.175-0.438-0.478-0.723-0.65
	c-0.282-0.342-0.594-0.655-0.938-0.938c-0.146-0.021-0.142-0.197-0.288-0.218c-0.547-0.656-1.189-1.216-1.516-2.095
	c1.75,0.562,4.23,0.393,5.705,1.229c0.757-0.423,1.396-0.962,2.526-1.012c0.147,0.382,0.095,0.964,0.362,1.228
	c1.195-0.175,2.635-0.111,3.539-0.577c0.139,0.649-0.414,1.369-0.867,1.732C60.382,77.483,58.583,77.71,57.289,78.182"/>
<path fill-rule="evenodd" clip-rule="evenodd" fill="#FAFBFA" d="M53.604,77.966c0.352-0.129,0.244,0.058,0.506,0.143
	c0.321-0.079,0.416-0.332,0.435,0c0.151-0.113,0.464-0.063,0.505-0.287c0.084,0.211-0.346,0.269-0.145,0.36
	c0.276-0.091,0.091-0.192,0.289-0.36c0.012,0.107-0.025,0.267,0.072,0.287c0.071-0.096,0.119-0.217,0.217-0.287
	c0.109,0.274,0.346,0.002,0.287,0.287c0.056-0.135,0.217-0.049,0.074-0.216c0.174,0.024,0.382,0.381,0.576,0.145
	c-0.096-0.177-0.217,0.13-0.288-0.071c0.136,0.003,0.153-0.055,0.072-0.145c0.187,0.283,0.333-0.057,0.505,0.071
	c0.068,0.135-0.215,0.241,0,0.289c0.127-0.418,0.259,0.026,0.579,0c-0.521,0.105-0.716,0.537-1.011,0.866
	c0.022-0.167-0.012-0.277-0.073-0.361c-0.347,0.017-0.542,0.18-0.795,0.289c-0.058,0.015-0.072,0.072-0.144,0.072
	c-0.318,0.26-0.608,0.548-0.866,0.867c-0.173,0.293-0.718,0.357-1.013,0.145c0.061-0.662,0.76-0.685,0.868-1.3
	c-0.05-0.168-0.241-0.193-0.289-0.362C53.892,78.208,53.681,78.157,53.604,77.966"/>
<path fill-rule="evenodd" clip-rule="evenodd" fill="#FBD0B9" d="M53.967,78.397c-0.393-0.33-0.753-0.691-1.085-1.082
	c0.285,0.173,0.439,0.476,0.723,0.65C53.681,78.157,53.892,78.208,53.967,78.397"/>
<path fill-rule="evenodd" clip-rule="evenodd" fill="#FAFBFA" d="M52.882,77.315c-0.342-0.283-0.656-0.595-0.938-0.938
	C52.288,76.66,52.6,76.974,52.882,77.315"/>
<path fill-rule="evenodd" clip-rule="evenodd" fill="#FBD0B9" d="M54.4,79.915c0.258-0.319,0.548-0.607,0.866-0.867
	c-0.197,0.309-0.525,0.487-0.722,0.796C54.485,79.857,54.472,79.915,54.4,79.915"/>
<path fill-rule="evenodd" clip-rule="evenodd" fill="#FBD0B9" d="M43.855,19.537c0.386-0.166,1.082-0.025,1.589-0.072
	C45.058,19.633,44.361,19.489,43.855,19.537"/>
<path fill-rule="evenodd" clip-rule="evenodd" fill="#FFFFFF" d="M42.844,21.272c-0.191,0-0.385,0-0.577,0
	c0.126-0.479,0.691-0.514,0.723-1.086c0.129-0.007,0.15,0.089,0.288,0.072c0.665,0.106,1.646,0.28,1.733,0.723
	C44.337,21.126,43.669,21.277,42.844,21.272"/>
<path fill-rule="evenodd" clip-rule="evenodd" fill="#FBD0B9" d="M43.205,28.493c0.458,0.048,1.106-0.095,1.444,0.073
	C44.19,28.517,43.544,28.66,43.205,28.493"/>
<path fill-rule="evenodd" clip-rule="evenodd" fill="#FBD0B9" d="M42.483,30.877c0.218-0.167,0.744-0.026,1.082-0.072
	c-0.123,0.165-0.551,0.026-0.794,0.072C42.676,30.877,42.579,30.877,42.483,30.877"/>
<path fill-rule="evenodd" clip-rule="evenodd" fill="#FBD0B9" d="M28.905,32.321c0.267-0.167,0.842-0.026,1.227-0.074
	C29.89,32.392,29.04,32.307,28.905,32.321"/>
<path fill-rule="evenodd" clip-rule="evenodd" fill="#FBD0B9" d="M28.833,32.321c-0.277,0.14-0.602-0.062-1.156,0
	C27.896,32.2,28.613,32.2,28.833,32.321"/>
<path fill-rule="evenodd" clip-rule="evenodd" fill="#FBD0B9" d="M56.06,39.687c0.458,0,0.916,0,1.373,0
	c-0.314,0.168-0.938,0.025-1.373,0.072C56.06,39.736,56.06,39.711,56.06,39.687"/>
<path fill-rule="evenodd" clip-rule="evenodd" fill="#F69A71" d="M83.217,41.059c0.038-0.176,0.066-0.355,0.072-0.722
	c0.165,0.148,0.024,0.6,0.071,0.865C83.266,41.201,83.295,41.077,83.217,41.059"/>
<path fill-rule="evenodd" clip-rule="evenodd" fill="#FAFBFA" d="M69.855,40.482c0.045,0.22-0.093,0.621,0.071,0.72
	c0,0.074,0,0.146,0,0.219C69.701,41.38,69.748,40.386,69.855,40.482"/>
<path fill-rule="evenodd" clip-rule="evenodd" fill="#FBD0B9" d="M12.944,44.815c0.434,0.047,1.059-0.095,1.372,0.071
	C13.882,44.84,13.258,44.983,12.944,44.815"/>
<path fill-rule="evenodd" clip-rule="evenodd" fill="#FBD0B9" d="M75.776,48.716c0.412,0.045,1.01-0.096,1.301,0.071
	C76.667,48.74,76.067,48.882,75.776,48.716"/>
<path fill-rule="evenodd" clip-rule="evenodd" fill="#FFFFFF" d="M86.466,45.608c0.084-0.059,0.194-0.094,0.362-0.07
	c0.241,1.308-0.734,1.505-0.434,2.889c0.285,0.447,0.866,0.439,1.228,0c0.998,0.455,1.977-0.535,2.744,0.217
	c-1.623,0.017-3.107,0.06-4.116,0.794c-1.742-0.257-3.169-0.829-3.756-2.238c0.565-0.085,0.933-0.368,1.589-0.361
	c0.538,0.032,1.041,0.028,1.155-0.361C85.623,46.163,85.95,45.794,86.466,45.608"/>
<path fill-rule="evenodd" clip-rule="evenodd" fill="#FAFBFA" d="M74.188,51.098c0.482-0.168,1.275-0.023,1.879-0.07
	c-0.078,0.162-0.455,0.025-0.651,0.07c-0.385,0-0.771,0-1.155,0C74.237,51.098,74.213,51.098,74.188,51.098"/>
<path fill-rule="evenodd" clip-rule="evenodd" fill="#FAFBFA" d="M58.517,58.393c-0.219-0.167-0.745-0.024-1.084-0.072
	c0.116-0.122,1.348-0.155,1.518,0.145C58.729,58.517,58.737,58.342,58.517,58.393"/>
<path fill-rule="evenodd" clip-rule="evenodd" fill="#FBD0B9" d="M40.315,59.042c-0.094-0.129,0.806-0.11,0.867,0.072
	C40.841,59.145,40.687,58.986,40.315,59.042"/>
<path fill-rule="evenodd" clip-rule="evenodd" fill="#FAFBFA" d="M76.355,62.583c0.163-0.248,1.127-0.21,1.299,0
	C77.159,62.535,76.835,62.492,76.355,62.583"/>
<path fill-rule="evenodd" clip-rule="evenodd" fill="#FBD0B9" d="M55.41,66.411c0.194,0,0.387,0,0.579,0
	c-0.014,0.105-0.176,0.064-0.289,0.072c-0.15-0.045-0.476,0.087-0.506-0.072C55.267,66.411,55.338,66.411,55.41,66.411"/>
<path fill-rule="evenodd" clip-rule="evenodd" fill="#FAFBFA" d="M58.011,67.06c-0.194-0.167-0.697-0.025-1.011-0.072
	c0.146-0.165,0.599-0.026,0.866-0.073c0.004-0.099-0.035-0.156-0.072-0.215c0.107,0.156,0.414,0.115,0.434,0.36
	C58.155,67.06,58.084,67.06,58.011,67.06"/>
<path fill-rule="evenodd" clip-rule="evenodd" fill="#FBD0B9" d="M70.216,69.227c0.459,0.047,1.107-0.096,1.444,0.072
	c-0.481,0-0.962,0-1.444,0C70.216,69.274,70.216,69.251,70.216,69.227"/>
<path fill-rule="evenodd" clip-rule="evenodd" fill="#FAFBFA" d="M72.095,69.515c0-0.024,0-0.047,0-0.072
	c0.418,0.078,1.494-0.166,1.444,0.146c-0.313,0.203-0.698-0.048-1.085,0c-0.047,0-0.096,0-0.145,0
	C72.298,69.503,72.196,69.511,72.095,69.515"/>
<path fill-rule="evenodd" clip-rule="evenodd" fill="#FBD0B9" d="M46.671,70.237c-0.785-0.2-1.565-0.408-2.238-0.723
	c1.077-0.113,1.93,0.624,3.25,0.506C47.535,70.256,46.479,69.894,46.671,70.237"/>
<path fill-rule="evenodd" clip-rule="evenodd" fill="#FBD0B9" d="M62.849,69.732c0.287,0.026,0.693-0.067,0.868,0.071
	c-0.144,0.123-0.452,0.079-0.649,0.145c0.355-0.277-0.764-0.089-1.084-0.145C62.132,69.639,62.583,69.777,62.849,69.732"/>
<path fill-rule="evenodd" clip-rule="evenodd" fill="#FBD0B9" d="M64.366,69.732c-0.061-0.125,0.922-0.126,1.012,0.071
	C65.047,69.774,64.765,69.694,64.366,69.732"/>
<path fill-rule="evenodd" clip-rule="evenodd" fill="#FAFBFA" d="M53.172,71.394c-0.002-0.12-0.2-0.042-0.218-0.145
	c0.223,0.053,0.213-0.125,0.434-0.073c0.19,0.101,0.54,0.039,0.579,0.289C53.624,71.519,53.47,71.385,53.172,71.394"/>
<path fill-rule="evenodd" clip-rule="evenodd" fill="#FBD0B9" d="M41.616,75.727c0.266-0.168,0.842-0.025,1.228-0.072
	C42.601,75.797,41.75,75.714,41.616,75.727"/>
<path fill-rule="evenodd" clip-rule="evenodd" fill="#FBD0B9" d="M41.544,75.727c-0.277,0.141-0.602-0.061-1.156,0
	C40.607,75.607,41.324,75.607,41.544,75.727"/>
<path fill-rule="evenodd" clip-rule="evenodd" fill="#FFFFFF" d="M30.062,40.482c-0.022-0.098-0.182-0.062-0.29-0.072
	c-0.266-0.121-1.032-0.121-1.3,0c-0.102-0.007-0.205-0.011-0.217,0.072c-1.35,0.073-2.593,0.63-3.539,0.866
	c-0.156-0.892,0.848-0.754,1.373-0.938c1.368-0.483,2.916-2.001,4.262-2.889c0.508-0.337,1.205-0.485,1.516-0.795
	c0.295-0.293,0.324-0.967,0.723-1.083c0.874-0.256,1.492,0.752,1.59,1.3c0.269,1.54-0.6,2.902-1.373,3.394
	c3.223-0.265,5.752-1.228,5.994-4.478c0.168-0.218,0.025-0.745,0.072-1.085c0.549,0.239-0.082,1.128,0.145,1.52
	c0.959-0.196,1.099-1.213,2.384-1.084c-0.031,0.794-0.962,1.298-1.519,1.805c-0.389,4.685-6.929,3.876-10.182,5.778
	c-0.934,0.547-1.954,1.319-3.106,0.938c0.651-2.045,3.122-2.271,5.128-2.959C31.299,40.543,30.556,40.636,30.062,40.482"/>
<path fill-rule="evenodd" clip-rule="evenodd" fill="#FFFFFF" d="M61.983,69.804c0.32,0.056,1.439-0.133,1.084,0.145
	c-0.967,0.213-1.938,0.423-3.18,0.362C60.361,69.916,61.147,69.835,61.983,69.804"/>
<path fill-rule="evenodd" clip-rule="evenodd" fill="#FBD0B9" d="M38.149,29.071c-0.004,0.102,0.211,0.081,0.072,0.145
	c-0.457,0-0.915,0-1.373,0C37.22,29.104,37.685,29.089,38.149,29.071"/>
<path fill-rule="evenodd" clip-rule="evenodd" fill="#FAFBFA" d="M44,39.471c0.101-0.164,0.501-0.026,0.722-0.072
	c0.385,0,0.771,0,1.155,0c0.192,0,0.386,0,0.578,0C45.781,39.567,44.795,39.423,44,39.471"/>
<path fill-rule="evenodd" clip-rule="evenodd" fill="#FAFBFA" d="M31.361,50.304c0.313,0,0.625,0,0.938,0
	c0.108,0.014,0.266-0.025,0.289,0.072c-0.529,0-1.06,0-1.588,0C30.987,50.22,31.256,50.345,31.361,50.304"/>
<path fill-rule="evenodd" clip-rule="evenodd" fill="#FAFBFA" d="M63.717,65.183c0.167,0.458,0.024,1.227,0.071,1.805
	c-0.162-0.031-0.028-0.355-0.071-0.504c0-0.362,0-0.725,0-1.085C63.717,65.325,63.717,65.254,63.717,65.183"/>
<path fill-rule="evenodd" clip-rule="evenodd" fill="#FAFBFA" d="M49.128,65.759c0.171,0.167,0.648,0.025,0.938,0.072
	c0.118-0.118,0.303,0.064,0.578,0c-0.446,0.087-1.545,0.199-1.877-0.072C48.888,65.759,49.007,65.759,49.128,65.759"/>
<path fill-rule="evenodd" clip-rule="evenodd" fill="#FBD0B9" d="M47.683,65.831c0.337,0,0.674,0,1.012,0
	c-0.291,0.121-1.082,0.121-1.371,0C47.552,65.875,47.546,65.696,47.683,65.831"/>
<path fill-rule="evenodd" clip-rule="evenodd" fill="#FAFBFA" d="M55.7,66.483c0.113-0.008,0.275,0.033,0.289-0.072
	c0.023,0,0.047,0,0.07,0c0.102,0.163,0.504,0.025,0.724,0.072c0.126,0.039,0.424-0.089,0.433,0.071
	C56.733,66.506,56.063,66.65,55.7,66.483"/>
<path fill-rule="evenodd" clip-rule="evenodd" fill="#FAFBFA" d="M68.989,67.783c0.162,0.052,0.027,0.404,0.071,0.576
	c0.029,0.308-0.069,0.744,0.072,0.939c-0.048,0-0.097,0-0.144,0C68.989,68.794,68.989,68.288,68.989,67.783"/>
<path fill-rule="evenodd" clip-rule="evenodd" fill="#FBD0B9" d="M72.815,28.421c0.244-0.121,0.986-0.121,1.229,0
	C73.636,28.421,73.226,28.421,72.815,28.421"/>
<path fill-rule="evenodd" clip-rule="evenodd" fill="#FBD0B9" d="M41.038,30.805c0.387,0.046,0.963-0.095,1.229,0.072
	c-0.097,0-0.193,0-0.289,0C41.687,30.83,41.208,30.97,41.038,30.805"/>
<path fill-rule="evenodd" clip-rule="evenodd" fill="#FBD0B9" d="M51.367,40.7c0.167,0.577,0.023,1.467,0.071,2.165
	C51.271,42.286,51.415,41.397,51.367,40.7"/>
<path fill-rule="evenodd" clip-rule="evenodd" fill="#FBD0B9" d="M81.122,52.759c0.387-0.118,1.273-0.118,1.66,0
	C82.229,52.759,81.675,52.759,81.122,52.759"/>
<path fill="#F16524" d="M56.7,95.215h-0.324v4.681h-1.783V87.917H56.7c1.755,0,2.519,0.652,2.519,2.165v2.941
	C59.219,94.578,58.455,95.215,56.7,95.215 M57.422,90.082c0-0.537-0.212-0.778-0.665-0.778h-0.381v4.498h0.381
	c0.453,0,0.665-0.242,0.665-0.778V90.082z"/>
<path fill="#F16524" d="M62.442,95.285v-3.21c0-0.353-0.085-0.552-0.367-0.552c-0.269,0-0.368,0.185-0.368,0.552v7.82h-1.598v-9.588
	h1.556v0.736h0.042c0.226-0.567,0.638-0.849,1.175-0.849c0.947,0,1.131,0.594,1.131,1.683v3.407H62.442"/>
<path fill="#F16524" d="M67.012,99.896c-0.028-0.155-0.058-0.338-0.058-0.536v-0.198h-0.027c-0.297,0.579-0.65,0.849-1.203,0.849
	c-0.945,0-1.103-0.594-1.103-1.683v-2.036c0-0.948,0.143-1.444,0.976-1.967c0.821-0.509,1.33-0.664,1.33-1.571V91.85
	c0-0.368-0.098-0.537-0.369-0.537c-0.281,0-0.352,0.183-0.352,0.537v1.938h-1.585v-1.78c0-1.246,0.608-1.854,1.937-1.854
	c1.415,0,1.967,0.607,1.967,1.854v6.785c0,0.369,0.014,0.723,0.07,1.104H67.012 M66.927,94.919
	c-0.608,0.396-0.736,0.679-0.736,1.314v1.895c0,0.354,0.086,0.538,0.367,0.538c0.271,0,0.369-0.168,0.369-0.538V94.919z"/>
<path fill="#F16524" d="M71.196,100.052c-1.314,0-1.979-0.621-1.979-1.854v-6.191c0-1.232,0.664-1.854,1.979-1.854
	c1.303,0,1.982,0.621,1.982,1.854v1.78h-1.627V91.85c0-0.368-0.1-0.537-0.355-0.537c-0.281,0-0.365,0.183-0.365,0.537v6.506
	c0,0.354,0.098,0.536,0.365,0.536c0.283,0,0.355-0.197,0.355-0.536v-2.248h1.627v2.091C73.179,99.431,72.499,100.052,71.196,100.052
	"/>
<path fill="#F16524" d="M75.823,100.052c-1.316,0-1.98-0.621-1.98-1.854v-6.191c0-1.232,0.664-1.854,1.98-1.854
	c1.301,0,1.979,0.621,1.979,1.854v6.191C77.802,99.431,77.124,100.052,75.823,100.052 M76.176,91.85
	c0-0.368-0.099-0.537-0.353-0.537c-0.283,0-0.369,0.183-0.369,0.537v6.506c0,0.354,0.1,0.536,0.369,0.536
	c0.282,0,0.353-0.197,0.353-0.536V91.85z"/>
<path fill="#F16524" d="M84.237,99.896h-1.754l-0.424-3.295c-0.17-1.258-0.254-2.659-0.254-4.228h-0.072
	c-0.014,1.302-0.056,2.503-0.183,3.591l-0.425,3.932h-1.867l-1.131-9.588h1.684l0.281,3.663c0.113,1.557,0.184,2.927,0.184,4.102
	h0.115c0.027-1.669,0.085-2.872,0.154-3.565l0.354-4.199h1.783l0.381,4.47c0.085,0.905,0.127,1.853,0.127,2.843v0.452h0.113
	c0.043-1.683,0.114-2.929,0.184-3.733l0.354-4.031h1.557L84.237,99.896"/>
<path fill="#F16524" d="M88.099,99.896v-7.82c0-0.353-0.084-0.552-0.367-0.552c-0.27,0-0.369,0.185-0.369,0.552v7.82h-1.597v-9.588
	h1.556v0.736h0.041c0.27-0.58,0.639-0.849,1.175-0.849c0.948,0,1.132,0.594,1.132,1.683v8.018H88.099"/>
<path fill="#F16524" d="M91.988,89.615H90.39v-1.698h1.599V89.615z M91.988,99.896H90.39v-9.588h1.599V99.896z"/>
<path fill="#F16524" d="M95.086,99.896c-0.028-0.155-0.056-0.338-0.056-0.536v-0.198h-0.029c-0.297,0.579-0.65,0.849-1.202,0.849
	c-0.947,0-1.103-0.594-1.103-1.683v-2.036c0-0.948,0.141-1.444,0.975-1.967c0.82-0.509,1.33-0.664,1.33-1.571V91.85
	c0-0.368-0.1-0.537-0.368-0.537c-0.282,0-0.353,0.183-0.353,0.537v1.938h-1.584v-1.78c0-1.246,0.607-1.854,1.937-1.854
	c1.415,0,1.966,0.607,1.966,1.854v6.785c0,0.369,0.015,0.723,0.071,1.104H95.086 M95.001,94.919
	c-0.609,0.396-0.735,0.679-0.735,1.314v1.895c0,0.354,0.085,0.538,0.367,0.538c0.269,0,0.368-0.168,0.368-0.538V94.919z"/>
<path fill="#F16524" d="M57.253,114.455c-0.51,0-0.92-0.285-1.131-0.794h-0.029v2.843h-1.598v-11.751h1.555v0.735h0.043
	c0.268-0.58,0.637-0.85,1.175-0.85c0.946,0,1.13,0.594,1.13,1.683v6.38C58.397,113.847,58.187,114.455,57.253,114.455
	 M56.829,106.521c0-0.354-0.086-0.552-0.368-0.552c-0.271,0-0.368,0.184-0.368,0.552v6.053c0,0.368,0.098,0.537,0.368,0.537
	c0.282,0,0.368-0.184,0.368-0.537V106.521z"/>
<path fill="#F16524" d="M61.071,114.497c-1.315,0-1.98-0.622-1.98-1.854v-6.193c0-1.231,0.665-1.854,1.98-1.854
	c1.301,0,1.98,0.622,1.98,1.854v6.193C63.052,113.875,62.372,114.497,61.071,114.497 M61.425,106.293c0-0.367-0.1-0.537-0.354-0.537
	c-0.283,0-0.367,0.184-0.367,0.537v6.507c0,0.354,0.1,0.538,0.367,0.538c0.282,0,0.354-0.199,0.354-0.538V106.293z"/>
<polyline fill="#F16524" points="63.504,114.34 63.504,113.039 65.3,105.982 63.504,105.982 63.504,104.753 66.983,104.753 
	66.983,106.068 65.229,112.996 67.11,112.996 67.11,114.34 63.504,114.34 "/>
<path fill="#F16524" d="M70.448,114.567c-0.24,1.726-0.453,1.937-2.291,1.937H67.55v-1.328h0.537c0.381,0,0.51-0.142,0.51-0.439
	c0-0.056,0-0.126-0.015-0.211l-1.358-9.772h1.641l0.311,2.955c0.17,1.5,0.313,3.041,0.313,4.638v0.271h0.154
	c0.057-2.305,0.17-4.031,0.311-5.191l0.298-2.672h1.526L70.448,114.567"/>
<path fill="#F16524" d="M73.375,114.34c-1.145,0-1.243-0.309-1.243-1.157v-7.129H71.68v-1.301h0.452v-1.825h1.598v1.825h0.494v1.301
	h-0.494v6.576c0,0.282,0.084,0.409,0.297,0.409h0.227v1.301H73.375"/>
<path fill="#F16524" d="M77.294,114.567c-0.24,1.726-0.453,1.937-2.292,1.937h-0.607v-1.328h0.536c0.383,0,0.51-0.142,0.51-0.439
	c0-0.056,0-0.126-0.015-0.211l-1.356-9.772h1.64l0.312,2.955c0.17,1.5,0.311,3.041,0.311,4.638v0.271h0.156
	c0.057-2.305,0.17-4.031,0.311-5.191l0.297-2.672h1.527L77.294,114.567"/>
<path fill="#F16524" d="M84.718,114.34h-1.754l-0.424-3.293c-0.17-1.26-0.254-2.66-0.254-4.229h-0.071
	c-0.015,1.301-0.057,2.503-0.185,3.593l-0.424,3.93h-1.867l-1.131-9.587h1.683l0.282,3.662c0.115,1.556,0.185,2.927,0.185,4.103
	h0.112c0.029-1.669,0.086-2.87,0.156-3.565l0.354-4.199h1.783l0.381,4.47c0.086,0.904,0.127,1.852,0.127,2.843v0.452h0.113
	c0.043-1.685,0.113-2.928,0.184-3.734l0.354-4.03h1.556L84.718,114.34"/>
<path fill="#F16524" d="M88.579,114.34v-7.819c0-0.354-0.084-0.552-0.367-0.552c-0.27,0-0.367,0.184-0.367,0.552v7.819h-1.598
	v-9.587h1.555v0.735h0.043c0.268-0.58,0.637-0.85,1.173-0.85c0.948,0,1.132,0.594,1.132,1.683v8.019H88.579"/>
<path fill="#F16524" d="M93.698,114.567c-0.24,1.726-0.451,1.937-2.29,1.937h-0.607v-1.328h0.536c0.383,0,0.51-0.142,0.51-0.439
	c0-0.056,0-0.126-0.014-0.211l-1.358-9.772h1.642l0.311,2.955c0.17,1.5,0.311,3.041,0.311,4.638v0.271h0.156
	c0.057-2.305,0.169-4.031,0.311-5.191l0.297-2.672h1.527L93.698,114.567"/>
<path fill="#F16524" d="M97.333,114.497c-1.314,0-1.979-0.622-1.979-1.854v-6.193c0-1.231,0.664-1.854,1.979-1.854
	c1.303,0,1.98,0.622,1.98,1.854v1.782h-1.626v-1.938c0-0.367-0.099-0.537-0.354-0.537c-0.281,0-0.367,0.184-0.367,0.537v6.507
	c0,0.354,0.1,0.538,0.367,0.538c0.283,0,0.354-0.199,0.354-0.538v-2.249h1.626v2.092C99.313,113.875,98.636,114.497,97.333,114.497"
	/>
<path fill="#F16524" d="M102.341,114.34v-7.819c0-0.354-0.084-0.552-0.367-0.552c-0.269,0-0.368,0.184-0.368,0.552v7.819h-1.599
	v-11.978h1.599v3.126h0.028c0.213-0.566,0.58-0.85,1.146-0.85c0.947,0,1.132,0.594,1.132,1.683v8.019H102.341"/>
<polyline fill="#EB2134" points="54.255,128.786 54.255,127.484 56.05,120.428 54.255,120.428 54.255,119.197 57.733,119.197 
	57.733,120.512 55.979,127.44 57.86,127.44 57.86,128.786 54.255,128.786 "/>
<path fill="#EB2134" d="M62.966,128.786v-7.821c0-0.354-0.084-0.551-0.367-0.551c-0.269,0-0.367,0.183-0.367,0.551v7.821h-1.57
	v-7.821c0-0.354-0.085-0.551-0.367-0.551c-0.256,0-0.367,0.183-0.367,0.551v7.821H58.37v-9.589h1.527v0.734h0.029
	c0.238-0.565,0.635-0.849,1.188-0.849c0.564,0,0.934,0.269,1.117,0.849h0.027c0.184-0.551,0.608-0.849,1.145-0.849
	c0.92,0,1.119,0.595,1.119,1.684v8.02H62.966"/>
<path fill="#EB2134" d="M66.827,118.504h-1.598v-1.696h1.598V118.504z M66.827,128.786h-1.598v-9.589h1.598V128.786z"/>
<path fill="#EB2134" d="M69.925,128.786c-0.029-0.156-0.057-0.34-0.057-0.538v-0.197h-0.029c-0.297,0.579-0.65,0.848-1.201,0.848
	c-0.947,0-1.103-0.594-1.103-1.682v-2.037c0-0.949,0.14-1.443,0.976-1.966c0.819-0.51,1.328-0.664,1.328-1.57v-0.906
	c0-0.366-0.1-0.536-0.367-0.536c-0.283,0-0.354,0.184-0.354,0.536v1.939h-1.583v-1.782c0-1.245,0.607-1.853,1.937-1.853
	c1.414,0,1.967,0.607,1.967,1.853v6.788c0,0.368,0.014,0.721,0.069,1.104H69.925 M69.839,123.807
	c-0.607,0.397-0.734,0.678-0.734,1.315v1.896c0,0.353,0.084,0.537,0.367,0.537c0.268,0,0.367-0.17,0.367-0.537V123.807z"/>
<path fill="#EB2134" d="M74.492,128.786v-7.821c0-0.354-0.085-0.551-0.367-0.551c-0.269,0-0.368,0.183-0.368,0.551v7.821h-1.598
	v-9.589h1.555v0.734h0.043c0.27-0.58,0.638-0.849,1.174-0.849c0.949,0,1.132,0.595,1.132,1.684v8.02H74.492"/>
</svg>
