<?xml version="1.0" encoding="utf-8"?>
<!-- Generator: Adobe Illustrator 15.1.0, SVG Export Plug-In . SVG Version: 6.00 Build 0)  -->
<!DOCTYPE svg PUBLIC "-//W3C//DTD SVG 1.1//EN" "http://www.w3.org/Graphics/SVG/1.1/DTD/svg11.dtd">
<svg version="1.1" id="Warstwa_1" xmlns="http://www.w3.org/2000/svg" xmlns:xlink="http://www.w3.org/1999/xlink" x="0px" y="0px"
	 width="155px" height="155px" viewBox="0 0 155 155" enable-background="new 0 0 155 155" xml:space="preserve">
<g>
	<path fill-rule="evenodd" clip-rule="evenodd" fill="#FFFFFF" d="M63.677,38.515l7.705,2.889l7.062-1.443l8.132,1.98l4.333-1.713
		h6.529l3.209-1.016c0,0,5.67,4.921,5.779,5.082c0.105,0.162,3.422,9.683,3.422,9.683l-15.246,26l-30.925-0.319L53.676,58.311
		l-1.979-11.074l5.187-7.758L63.677,38.515z"/>
	<path fill-rule="evenodd" clip-rule="evenodd" fill="#EC696A" d="M80.082,85.964c-3.559,0-7.124-0.07-10.682,0.032
		c-1.579,0.044-2.105-0.594-1.826-2.002c0.242-1.218-1.01-3.212,1.739-3.189c7.266,0.061,14.533,0.096,21.798-0.014
		c2.525-0.039,1.697,1.631,1.83,2.885c0.158,1.457-0.033,2.41-1.963,2.331C87.354,85.859,83.716,85.965,80.082,85.964z"/>
	<g>
		<path fill-rule="evenodd" clip-rule="evenodd" d="M79.913,111.196c-4.133,0-8.269-0.013-12.401,0.009
			c-1.451,0.006-2.886-0.106-2.919-1.967c-0.033-1.81,1.328-2.095,2.801-2.095c8.335,0,16.671-0.011,25.008-0.019
			c0.214,0,0.434-0.029,0.641,0.006c1.336,0.23,2.494,0.772,2.404,2.342c-0.084,1.486-1.274,1.721-2.492,1.723
			C88.605,111.201,84.26,111.196,79.913,111.196z"/>
		<path fill-rule="evenodd" clip-rule="evenodd" d="M79.92,97.141c-4.133,0.004-8.266,0.004-12.399,0.004
			c-1.445-0.004-2.89-0.179-2.883-2.041c0.006-1.838,1.371-2.02,2.866-2.014c8.338,0.029,16.675,0.012,25.013,0.006
			c1.41,0,2.91-0.012,2.904,1.938c-0.006,1.863-1.496,2.076-2.886,2.09C88.33,97.171,84.127,97.141,79.92,97.141z"/>
		<path fill-rule="evenodd" clip-rule="evenodd" d="M79.889,104.253c-4.2,0-8.4-0.026-12.601,0.019
			c-1.485,0.016-2.645-0.416-2.691-2.021c-0.044-1.715,1.272-2.001,2.672-1.996c8.747,0.035,17.491,0.064,26.235,0.099
			c1.055,0.003,2.057,0.506,1.902,1.532c-0.152,1.014-0.367,2.411-2.07,2.387c-3.344-0.047-6.688-0.006-10.03,0
			c-1.138,0-2.278,0-3.417,0C79.889,104.264,79.889,104.26,79.889,104.253z"/>
		<path fill-rule="evenodd" clip-rule="evenodd" d="M80.023,114.064c2.206,0,4.414-0.004,6.619,0
			c1.358,0.001,2.428,0.385,2.428,2.004c-0.006,1.484-1.002,1.984-2.26,1.984c-4.481,0.001-8.964-0.068-13.445-0.092
			c-1.278-0.009-2.388-0.351-2.348-1.824c0.047-1.551,1.039-2.154,2.608-2.084c2.127,0.095,4.267,0.021,6.398,0.021
			C80.023,114.071,80.023,114.066,80.023,114.064z"/>
		<path fill-rule="evenodd" clip-rule="evenodd" d="M86.828,72.122c-0.021,1.333-1.45,2.411-2.727,1.768
			c-2.846-1.436-5.564-1.498-8.37,0.021c-1.109,0.599-1.952-0.042-2.477-0.986c-0.524-0.941-0.179-1.801,0.601-2.473
			c2.67-2.301,9.419-2.275,12.135,0.015C86.524,70.917,86.775,71.457,86.828,72.122z"/>
		<path fill-rule="evenodd" clip-rule="evenodd" d="M111.349,49.962c-0.24-5.504-2.55-9.955-7.731-12.316
			c-4.891-2.231-9.634-1.489-13.866,1.768c-1.122,0.862-1.874,0.833-3.005,0.199c-2.482-1.387-5.184-1.929-8.033-1.615
			c-1.876-0.003-3.654,0.36-5.256,1.393c-1.252,0.849-2.226,0.47-3.394-0.398c-2.919-2.17-6.307-3.01-9.894-2.456
			c-9.915,1.538-15.055,9.094-6.782,29.265c1.844,4.493,3.942,9.002,7.404,12.387c2.614,2.554,3.164,5.187,2.955,8.484
			c-0.17,2.686,0.372,3.119,3.035,3.123c8.405,0.013,16.809,0,25.213,0.004c4.902,0.002,5.042,0.002,4.844-4.932
			c-0.115-2.909,0.535-5.307,2.26-7.705c2.987-4.154,5.785-8.46,8.174-13.009C109.609,59.703,111.576,55.107,111.349,49.962z
			 M90.979,86.007c-3.624-0.147-7.263-0.042-10.896-0.042c-3.559-0.001-7.124-0.071-10.682,0.031
			c-1.579,0.044-2.105-0.594-1.826-2.002c0.242-1.218-1.01-3.212,1.739-3.189c7.266,0.061,14.533,0.096,21.798-0.014
			c2.525-0.039,1.697,1.631,1.83,2.885C93.1,85.133,92.908,86.086,90.979,86.007z M53.112,50.809c0-9.458,7.81-11.238,11.96-9.823
			c3.113,1.064,3.178,1.255,1.203,3.634c-1.387,1.071-1.131,2.29,0.045,3.149c1.471,1.07,5.543-7.295,13.72-6.101
			c4.021,0.637,7.336,2.583,10.143,5.467c0.939,0.964,2.037,1.548,3.159,0.48c1.18-1.121,0.815-2.424-0.31-3.334
			c-1.526-1.229-0.89-1.866,0.417-2.578c6.198-3.382,13.302,0.565,13.843,7.716c0.342,4.525-1.398,8.497-3.357,12.398
			c-2.496,4.975-5.855,9.418-8.768,14.134c-0.461,0.748-1.041,1.034-1.93,1.031c-9.049-0.032-18.098-0.055-27.147-0.003
			c-1.322,0.008-1.934-0.822-2.575-1.616c-1.79-2.222-3.211-4.691-4.527-7.223C58.635,67.458,52.923,54.511,53.112,50.809"/>
	</g>
</g>
</svg>
