<?xml version="1.0" encoding="utf-8"?>
<!-- Generator: Adobe Illustrator 15.1.0, SVG Export Plug-In . SVG Version: 6.00 Build 0)  -->
<!DOCTYPE svg PUBLIC "-//W3C//DTD SVG 1.1//EN" "http://www.w3.org/Graphics/SVG/1.1/DTD/svg11.dtd">
<svg version="1.1" id="Warstwa_1" xmlns="http://www.w3.org/2000/svg" xmlns:xlink="http://www.w3.org/1999/xlink" x="0px" y="0px"
	 width="155px" height="155px" viewBox="0 0 155 155" enable-background="new 0 0 155 155" xml:space="preserve">
<polygon fill-rule="evenodd" clip-rule="evenodd" fill="#E96266" points="65.56,46.41 89.698,46.41 89.698,62.742 77.628,68.812 
	66.285,61.298 "/>
<path fill-rule="evenodd" clip-rule="evenodd" fill="#171612" d="M69.21,52.742c-0.871,9.996,2.216,13.986,10.117,13.246
	c4.555-0.428,7.072-2.699,7.121-7.375c0.02-1.727,0.168-3.52-0.215-5.176c-1.266-5.453-0.641-9.68,5.455-11.937
	c6.088-2.258,12.947-1.215,16.967,3.384c4.898,5.608,5.473,12.186,3.492,18.99c-3.699,12.721-9.375,24.788-12.582,37.682
	c-0.742,2.977-1.535,5.953-2.507,8.861c-1.019,3.045-3.165,4.832-6.521,4.531c-3.344-0.301-5.086-2.42-5.656-5.598
	c-0.773-4.346-1.42-8.719-2.299-13.045c-0.541-2.66-2.09-4.635-5.067-4.666c-2.972-0.033-4.58,1.879-5.131,4.559
	c-0.853,4.131-1.541,8.301-2.168,12.473c-0.517,3.412-2.074,5.875-5.679,6.262c-3.974,0.428-6.104-2.023-7.01-5.492
	c-3.748-14.33-8.468-28.326-13.912-42.102c-1.791-4.525-2.142-9.383-1.338-14.218C43.952,43.044,53.9,37.568,63.159,41.56
	C68.852,44.017,69.811,45.791,69.21,52.742 M46.995,53.23c-0.801,3.859-0.722,7.785,0.644,11.402
	c5.289,14.032,10.271,28.153,14.112,42.657c0.336,1.275,0.552,2.914,2.353,2.676c1.757-0.234,1.554-2.016,1.785-3.242
	c0.711-3.777,1.097-7.623,1.955-11.363c1.142-4.979,4.142-8.424,9.532-8.451c5.34-0.025,8.525,3.186,9.666,8.26
	c0.754,3.369,1.111,6.824,1.699,10.234c0.307,1.797-0.133,4.461,2.453,4.506c2.117,0.037,2.023-2.529,2.451-4.076
	c3.533-12.785,7.373-25.467,12.539-37.708c1.836-4.346,2.463-8.869,2.053-13.555c-0.307-3.486-1.881-6.252-4.842-8.106
	c-3.363-2.105-6.797-2.138-10.428-0.427c-3.801,1.793-2.074,4.839-2.041,7.527c0.021,1.732,0.188,3.469,0.119,5.195
	c-0.293,7.027-4.057,11.098-10.898,11.879c-7.908,0.906-13.21-2.391-15.093-9.273c-0.884-3.232-1.115-6.524-0.33-9.711
	c0.694-2.824-0.217-4.43-2.685-5.49C54.708,42.511,48.944,45.218,46.995,53.23"/>
<path fill-rule="evenodd" clip-rule="evenodd" fill="#FFFFFF" d="M108.237,54.57c-0.307-3.487-1.881-6.252-4.842-8.106
	c-3.363-2.105-6.797-2.138-10.428-0.428c-3.801,1.793-2.074,4.84-2.041,7.528c0.021,1.732,0.188,3.469,0.119,5.195
	c-0.293,7.027-4.057,11.098-10.898,11.879c-7.907,0.906-13.209-2.391-15.094-9.273c-0.884-3.232-1.113-6.523-0.328-9.71
	c0.692-2.825-0.219-4.43-2.687-5.491c-7.332-3.652-13.094-0.945-15.045,7.067c-0.799,3.859-0.72,7.785,0.644,11.402
	c5.289,14.032,10.272,28.153,14.112,42.657c0.336,1.275,0.552,2.914,2.354,2.676c1.756-0.234,1.554-2.016,1.783-3.242
	c0.713-3.777,1.098-7.623,1.955-11.363c1.143-4.979,4.143-8.424,9.532-8.451c5.341-0.025,8.526,3.186,9.667,8.26
	c0.754,3.369,1.111,6.824,1.699,10.234c0.307,1.797-0.133,4.461,2.453,4.506c2.117,0.037,2.023-2.529,2.451-4.076
	c3.533-12.785,7.373-25.467,12.539-37.708C108.021,63.779,108.647,59.255,108.237,54.57 M59.265,51.347
	c-3.285,0.311-5.187,1.881-6.149,4.92c-0.492,1.529-1.354,2.945-3.25,2.195c-1.815-0.715-1.695-2.273-1.039-3.826
	c2.354-5.033,5.774-8.281,11.853-7.084C61.707,49.388,61.621,51.12,59.265,51.347"/>
<path fill-rule="evenodd" clip-rule="evenodd" fill="#171612" d="M48.827,54.636c2.354-5.033,5.772-8.281,11.853-7.084
	c1.028,1.836,0.942,3.568-1.414,3.795c-3.287,0.31-5.187,1.881-6.151,4.92c-0.49,1.529-1.353,2.945-3.25,2.195
	C48.051,57.748,48.171,56.189,48.827,54.636"/>
<path fill-rule="evenodd" clip-rule="evenodd" fill="#171612" d="M91.594,41.577c6.01-2.227,12.781-1.199,16.75,3.343
	c4.837,5.537,5.403,12.029,3.449,18.75c-3.653,12.555-9.256,24.469-12.423,37.198c-0.733,2.939-1.516,5.877-2.476,8.748
	c-1.002,3.008-3.124,4.773-6.437,4.475c-3.301-0.297-5.022-2.391-5.582-5.527c-0.765-4.291-1.401-8.607-2.27-12.879
	c-0.535-2.625-2.065-4.576-5.002-4.607c-2.936-0.029-4.524,1.857-5.069,4.502c-0.84,4.078-1.521,8.195-2.14,12.314
	c-0.507,3.369-2.047,5.797-5.606,6.18c-3.92,0.424-6.022-1.996-6.918-5.422c-3.7-14.146-8.359-27.963-13.736-41.561
	c-1.766-4.468-2.112-9.265-1.318-14.04c1.651-9.949,11.475-15.353,20.613-11.411C69.051,44.062,85.577,43.807,91.594,41.577
	 M47.472,53.16c-0.791,3.809-0.711,7.684,0.636,11.257c5.221,13.851,10.139,27.791,13.932,42.111
	c0.332,1.26,0.543,2.877,2.324,2.641c1.733-0.23,1.531-1.988,1.762-3.199c0.701-3.73,1.08-7.527,1.929-11.219
	c1.127-4.916,4.091-8.316,9.41-8.344c5.271-0.023,8.418,3.145,9.543,8.154c0.747,3.328,1.099,6.738,1.678,10.104
	c0.304,1.773-0.131,4.402,2.422,4.447c2.091,0.037,1.996-2.496,2.42-4.021c3.487-12.623,7.278-25.143,12.38-37.227
	c1.813-4.29,2.431-8.755,2.025-13.38c-0.304-3.443-1.855-6.172-4.781-8.004c-3.317-2.078-6.537-1.686-10.291-0.422
	c-14.414,4.857-28.099,1.173-30.535,0.126C55.087,42.577,49.396,45.25,47.472,53.16"/>
<path fill-rule="evenodd" clip-rule="evenodd" fill="#171612" d="M48.813,55.442c2.324-4.968,5.701-8.176,11.701-6.992
	c1.017,1.812,0.932,3.52-1.397,3.743c-3.242,0.31-5.119,1.858-6.072,4.857c-0.48,1.512-1.336,2.908-3.207,2.168
	C48.047,58.514,48.166,56.975,48.813,55.442"/>
<path fill-rule="evenodd" clip-rule="evenodd" fill="#F7F7F8" d="M107.449,51.622c-2.052-5.68-7.77-8.582-13.07-6.639
	c-1.34,0.493-3.03,0.948-3.03,2.299c-1.641,0.375-4.455,0.601-7.72,0.713c-4.497-2.509-8.971-2.464-13.428-0.083
	c-3.555-0.15-6.486-0.391-7.799-0.676c0.679-2.59-2.776-2.397-4.742-2.661c-5.799-0.773-10.508,3.621-11.282,10.179
	c-0.693,5.846,1.084,11.309,3.362,16.484c0.222,0.498,0.418,1.005,0.629,1.506h0.035c4.178,11.411,8.054,22.917,11.168,34.678
	c0.332,1.26,0.543,2.877,2.324,2.641c1.733-0.229,1.531-1.99,1.762-3.199c0.701-3.729,1.08-7.525,1.929-11.219
	c1.127-4.914,4.091-8.316,9.409-8.344c5.272-0.023,8.419,3.145,9.544,8.156c0.747,3.324,1.099,6.736,1.678,10.102
	c0.304,1.775-0.131,4.404,2.422,4.449c2.091,0.035,1.996-2.498,2.42-4.023c3.105-11.24,6.455-22.398,10.754-33.241h0.15
	c0.479-1.311,0.965-2.623,1.455-3.932c0.007-0.018,0.014-0.037,0.021-0.053c0.272-0.648,0.517-1.301,0.736-1.955
	c0.233-0.619,0.465-1.24,0.7-1.856C108.531,60.617,109.068,56.109,107.449,51.622 M61.048,49.749
	c0.155,0.648,0.104,1.229-0.218,1.666C60.654,50.898,60.707,50.322,61.048,49.749"/>
<path fill-rule="evenodd" clip-rule="evenodd" fill="#171612" d="M47.576,77.856l4.83,0.437c-0.827-2.226-1.703-4.874-2.665-7.055
	c-2.278-5.176-4.058-10.639-3.363-16.485c0.773-6.557,5.484-10.952,11.283-10.178c2.424,0.325,7.114-0.042,3.521,4.968
	c-0.795,1.109-0.484,2.26,0.506,2.982c1.054,0.765,2.166,0.306,3.051-0.541c7.9-7.559,15.84-8.03,23.864-0.176
	c0.822,0.803,1.898,1.475,3.044,0.789c1.461-0.871,1.384-2.147,0.469-3.446c-2.047-2.898,0.438-3.497,2.264-4.168
	c5.301-1.943,11.019,0.959,13.07,6.639c1.62,4.488,1.082,8.995-0.573,13.327c-1.636,4.285-3.018,7.336-4.55,11.656l4.25,1.688
	c1.024-2.75,2.405-5.922,3.551-8.633c2.402-5.67,3.536-11.783,1.957-17.985c-1.668-6.555-9.978-11.803-16.62-10.771
	c-4.829,0.749-7.058,1.188-9.361,1.523c-2.169,0.316-5.716-0.546-10.253-0.242c-1.567,0.106-5.545,0.736-6.725,0.663
	c-1.777-0.108-3.447-0.428-4.641-0.681c-12.861-2.743-22.614,1.247-22.697,14.57c-0.003,3.201,0.408,6.309,1.52,9.35
	C44.737,70.005,46.172,73.927,47.576,77.856"/>
<path fill-rule="evenodd" clip-rule="evenodd" fill="#E96266" d="M93.278,78.426c0,1.449-1.177,2.625-2.626,2.625H64.196
	c-1.451,0-2.625-1.176-2.625-2.625V65.883c0-1.449,1.174-2.626,2.625-2.626h26.456c1.449,0,2.626,1.177,2.626,2.626V78.426z"/>
<polygon fill-rule="evenodd" clip-rule="evenodd" fill="#E96266" points="63.271,69.895 44.547,69.895 46.226,74.416 63.271,74.416 
	"/>
<path fill-rule="evenodd" clip-rule="evenodd" fill="#F7F7F8" d="M88.756,74.608c0,1.451-1.176,2.625-2.625,2.625H68.521
	c-1.451,0-2.625-1.174-2.625-2.625v-4.24c0-1.45,1.174-2.625,2.625-2.625h17.609c1.449,0,2.625,1.175,2.625,2.625V74.608z"/>
<polygon fill-rule="evenodd" clip-rule="evenodd" fill="#E96266" points="92.037,70.841 109.647,70.791 107.854,75.363 
	92.037,75.363 "/>
</svg>
