<?xml version="1.0" encoding="utf-8"?>
<!-- Generator: Adobe Illustrator 15.1.0, SVG Export Plug-In . SVG Version: 6.00 Build 0)  -->
<!DOCTYPE svg PUBLIC "-//W3C//DTD SVG 1.1//EN" "http://www.w3.org/Graphics/SVG/1.1/DTD/svg11.dtd">
<svg version="1.1" id="Warstwa_1" xmlns="http://www.w3.org/2000/svg" xmlns:xlink="http://www.w3.org/1999/xlink" x="0px" y="0px"
	 width="155px" height="155px" viewBox="0 0 155 155" enable-background="new 0 0 155 155" xml:space="preserve">
<g>
	<path fill-rule="evenodd" clip-rule="evenodd" d="M55.324,98.596c0-6.606,0.042-13.212-0.023-19.818
		c-0.025-2.55,0.676-4.231,3.609-3.943c2.667,0.262,3.371-1.144,3.346-3.536c-0.074-6.963-0.078-13.928,0-20.89
		c0.025-2.212-0.6-3.532-2.822-4.483c-3.907-1.671-6.048-4.866-6.255-9.207c-0.271-5.663,2.997-10.024,8.499-11.365
		c5.09-1.237,10.686,1.621,12.694,6.485c2.069,5.005,0.447,10.904-4.522,13.407c-3.368,1.699-4.007,3.853-3.898,7.165
		c0.201,6.065,0.14,12.142,0.037,18.211c-0.046,2.758,0.596,4.535,3.824,4.239c2.423-0.222,3.014,1.253,3.01,3.348
		c-0.027,13.748,0.063,27.497-0.069,41.246c-0.048,5.006-3.689,8.539-8.361,8.697c-4.876,0.168-8.8-3.354-8.987-8.668
		c-0.243-6.955-0.058-13.925-0.058-20.889C55.339,98.596,55.331,98.596,55.324,98.596z M69.292,105.006c0.004,0,0.008,0,0.012,0
		c0-4.637-0.066-9.275,0.028-13.912c0.05-2.414-0.715-3.75-3.35-3.553c-1.241,0.096-2.5,0.087-3.744,0.004
		c-2.491-0.174-3.466,0.828-3.434,3.414c0.118,9.096-0.025,18.195,0.082,27.291c0.048,4.023,2.001,6.184,5.116,6.227
		c3.119,0.043,5.119-2.104,5.254-6.092C69.409,113.928,69.292,109.467,69.292,105.006z M71.551,36.279
		c0.125-3.997-3.302-7.482-7.389-7.516c-4.053-0.036-7.207,2.836-7.458,6.793c-0.262,4.133,2.876,7.642,7.014,7.84
		C67.746,43.593,71.427,40.249,71.551,36.279z M63.841,83.682c0.707,0,1.412,0.012,2.118-0.004c1.598-0.039,3.257,0.125,3.326-2.287
		c0.067-2.293-0.974-3.209-3.18-3.119c-1.764,0.074-3.567-0.148-5.279,0.168c-0.74,0.137-1.671,1.207-1.856,2.006
		C58.349,83.133,59.222,83.66,63.841,83.682z"/>
	<path fill-rule="evenodd" clip-rule="evenodd" d="M100.503,98.783c-0.001,6.779,0.204,13.568-0.057,20.338
		c-0.289,7.5-7.698,11.43-13.722,7.51c-2.789-1.816-4.029-4.547-4.046-7.719c-0.076-13.383-0.011-26.764-0.057-40.146
		c-0.009-2.594,0.84-4.186,3.685-3.921c3,0.278,3.563-1.394,3.541-3.924c-0.07-8.03,0.131-16.064-0.092-24.087
		c-0.102-3.709,0.724-6.592,3.977-8.65c1.186-0.751,2.091-1.933,3.164-2.873c1.331-1.166,0.955-2.011-0.349-2.896
		c-2.507-1.703-5.036-3.391-7.38-5.302c-0.594-0.484-0.528-1.777-0.765-2.698c0.942-0.042,2.147-0.48,2.786-0.059
		c3.576,2.348,7.028,4.885,10.49,7.401c1.662,1.207,1.703,2.646,0.242,4.033c-1.813,1.715-3.585,3.511-5.59,4.977
		c-2.23,1.632-3.14,3.565-3.092,6.347c0.141,7.849,0.126,15.703-0.004,23.55c-0.048,2.847,0.723,4.475,3.854,4.208
		c3.073-0.259,3.448,1.688,3.431,4.104C100.474,85.578,100.506,92.182,100.503,98.783z M96.668,104.836c-0.007,0-0.014,0-0.018,0
		c0-4.467-0.142-8.942,0.049-13.402c0.13-3.058-1.063-4.254-4.031-3.904c-0.703,0.084-1.438,0.088-2.141,0
		c-2.977-0.371-4.076,0.811-4.02,3.887c0.159,8.932-0.002,17.87,0.075,26.807c0.034,4.029,1.954,6.262,5.022,6.266
		c3.084,0.002,4.94-2.172,5.039-6.249C96.749,113.773,96.668,109.305,96.668,104.836z M91.01,83.678c1.03,0,1.736-0.016,2.439,0.001
		c1.691,0.042,3.145-0.042,3.195-2.386c0.048-2.375-1.123-3.101-3.242-3.015c-1.408,0.054-2.822,0.071-4.23,0.019
		c-2.178-0.082-2.662,1.167-2.583,3.023C86.746,85.008,89.648,83.119,91.01,83.678z"/>
	<path fill-rule="evenodd" clip-rule="evenodd" fill="#FFFFFF" d="M69.292,105.006c0,4.461,0.117,8.922-0.035,13.379
		c-0.135,3.988-2.135,6.135-5.254,6.092c-3.115-0.043-5.068-2.203-5.116-6.227c-0.106-9.096,0.036-18.195-0.082-27.291
		c-0.033-2.586,0.943-3.588,3.434-3.414c1.245,0.083,2.503,0.092,3.744-0.004c2.635-0.197,3.399,1.139,3.35,3.553
		c-0.095,4.637-0.028,9.275-0.028,13.912C69.3,105.006,69.296,105.006,69.292,105.006z"/>
	<path fill-rule="evenodd" clip-rule="evenodd" fill="#FFFFFF" d="M71.551,36.279c-0.125,3.97-3.805,7.314-7.833,7.118
		c-4.137-0.199-7.276-3.708-7.014-7.84c0.251-3.958,3.404-6.83,7.458-6.793C68.249,28.796,71.676,32.282,71.551,36.279z"/>
	<path fill-rule="evenodd" clip-rule="evenodd" fill="#EC696A" d="M63.841,83.683c-4.62-0.022-5.493-0.55-4.87-3.237
		c0.185-0.799,1.116-1.869,1.856-2.006c1.711-0.316,3.515-0.094,5.279-0.168c2.206-0.09,3.247,0.826,3.18,3.119
		c-0.069,2.412-1.728,2.248-3.326,2.287C65.253,83.693,64.548,83.682,63.841,83.683z"/>
	<path fill-rule="evenodd" clip-rule="evenodd" fill="#FFFFFF" d="M96.668,104.836c0,4.469,0.081,8.938-0.023,13.403
		c-0.099,4.077-1.955,6.251-5.039,6.249c-3.068-0.004-4.988-2.236-5.022-6.266c-0.077-8.937,0.084-17.875-0.075-26.807
		c-0.057-3.076,1.043-4.258,4.02-3.887c0.703,0.088,1.438,0.084,2.141,0c2.969-0.35,4.161,0.847,4.031,3.904
		c-0.19,4.46-0.049,8.936-0.049,13.402C96.654,104.836,96.661,104.836,96.668,104.836z"/>
	<path fill-rule="evenodd" clip-rule="evenodd" fill="#EC696A" d="M91.01,83.678c-1.361-0.559-4.264,1.33-4.421-2.357
		c-0.079-1.856,0.405-3.105,2.583-3.023c1.408,0.053,2.822,0.035,4.23-0.019c2.119-0.086,3.29,0.64,3.242,3.015
		c-0.051,2.344-1.504,2.428-3.195,2.386C92.746,83.662,92.04,83.678,91.01,83.678z"/>
</g>
</svg>
