<?xml version="1.0" encoding="utf-8"?>
<!-- Generator: Adobe Illustrator 15.1.0, SVG Export Plug-In . SVG Version: 6.00 Build 0)  -->
<!DOCTYPE svg PUBLIC "-//W3C//DTD SVG 1.1//EN" "http://www.w3.org/Graphics/SVG/1.1/DTD/svg11.dtd">
<svg version="1.1" id="Warstwa_1" xmlns="http://www.w3.org/2000/svg" xmlns:xlink="http://www.w3.org/1999/xlink" x="0px" y="0px"
	 width="155px" height="155px" viewBox="0 0 155 155" enable-background="new 0 0 155 155" xml:space="preserve">
<g>
	<polygon fill-rule="evenodd" clip-rule="evenodd" fill="#EC696A" points="65.353,46.998 89.488,46.998 89.488,63.33 77.42,69.401 
		66.075,61.885 	"/>
	<path fill-rule="evenodd" clip-rule="evenodd" fill="#080A0B" d="M69,53.331c-0.868,9.994,2.216,13.988,10.117,13.247
		c4.559-0.427,7.072-2.699,7.123-7.375c0.02-1.729,0.168-3.522-0.215-5.176c-1.266-5.453-0.641-9.68,5.455-11.938
		c6.086-2.256,12.947-1.215,16.967,3.386c4.898,5.608,5.473,12.185,3.492,18.991c-3.699,12.718-9.375,24.787-12.582,37.679
		c-0.744,2.977-1.535,5.953-2.508,8.862c-1.016,3.045-3.164,4.833-6.521,4.531c-3.342-0.302-5.086-2.421-5.652-5.597
		c-0.775-4.348-1.42-8.721-2.299-13.047c-0.543-2.66-2.092-4.634-5.067-4.666c-2.975-0.033-4.582,1.879-5.134,4.559
		c-0.852,4.132-1.541,8.302-2.168,12.475c-0.515,3.411-2.074,5.873-5.679,6.261c-3.972,0.429-6.102-2.022-7.01-5.492
		c-3.747-14.331-8.466-28.327-13.912-42.101c-1.789-4.526-2.14-9.384-1.338-14.22c1.675-10.077,11.624-15.552,20.882-11.56
		C68.644,44.605,69.604,46.38,69,53.331z M46.788,53.82c-0.802,3.859-0.722,7.784,0.644,11.401
		c5.288,14.031,10.271,28.152,14.112,42.656c0.337,1.275,0.551,2.915,2.354,2.676c1.757-0.232,1.551-2.015,1.784-3.242
		c0.712-3.777,1.096-7.623,1.953-11.363c1.143-4.979,4.145-8.424,9.533-8.449c5.34-0.027,8.528,3.184,9.667,8.259
		c0.756,3.368,1.111,6.825,1.699,10.234c0.309,1.796-0.133,4.46,2.453,4.505c2.117,0.037,2.021-2.529,2.451-4.074
		c3.533-12.787,7.373-25.467,12.541-37.708c1.834-4.346,2.461-8.869,2.051-13.554c-0.307-3.487-1.881-6.251-4.844-8.107
		c-3.359-2.104-6.795-2.138-10.424-0.427c-3.803,1.792-2.074,4.839-2.041,7.529c0.021,1.732,0.188,3.466,0.117,5.192
		c-0.293,7.028-4.057,11.098-10.9,11.879c-7.905,0.906-13.207-2.388-15.09-9.274c-0.884-3.23-1.113-6.521-0.33-9.711
		c0.694-2.821-0.217-4.426-2.686-5.487C54.5,43.101,48.737,45.808,46.788,53.82z"/>
	<path fill-rule="evenodd" clip-rule="evenodd" fill="#FFFFFF" d="M108.029,55.16c-0.307-3.487-1.881-6.251-4.844-8.107
		c-3.359-2.104-6.795-2.138-10.424-0.427c-3.803,1.792-2.074,4.839-2.041,7.529c0.021,1.732,0.188,3.466,0.117,5.192
		c-0.293,7.028-4.057,11.098-10.9,11.879c-7.905,0.906-13.207-2.388-15.09-9.274c-0.884-3.23-1.113-6.521-0.33-9.711
		c0.694-2.821-0.217-4.426-2.686-5.487c-7.331-3.653-13.095-0.945-15.044,7.066c-0.802,3.859-0.722,7.784,0.644,11.401
		c5.288,14.031,10.271,28.152,14.112,42.656c0.337,1.275,0.551,2.915,2.354,2.676c1.757-0.232,1.551-2.015,1.784-3.242
		c0.712-3.777,1.096-7.623,1.953-11.363c1.143-4.979,4.145-8.424,9.533-8.449c5.34-0.027,8.528,3.184,9.667,8.259
		c0.756,3.368,1.111,6.825,1.699,10.234c0.309,1.796-0.133,4.46,2.453,4.505c2.117,0.037,2.021-2.529,2.451-4.074
		c3.533-12.787,7.373-25.467,12.541-37.708C107.813,64.368,108.439,59.845,108.029,55.16z M59.055,51.934
		c-3.285,0.313-5.186,1.882-6.149,4.92c-0.488,1.531-1.354,2.945-3.248,2.197c-1.815-0.714-1.694-2.274-1.039-3.827
		c2.354-5.032,5.774-8.281,11.853-7.083C61.501,49.978,61.415,51.708,59.055,51.934z"/>
	<path fill-rule="evenodd" clip-rule="evenodd" fill="#080A0B" d="M48.619,55.225c2.354-5.032,5.774-8.281,11.853-7.083
		c1.03,1.835,0.943,3.565-1.416,3.792c-3.285,0.313-5.186,1.882-6.149,4.92c-0.488,1.531-1.354,2.945-3.248,2.197
		C47.842,58.337,47.963,56.778,48.619,55.225z"/>
</g>
</svg>
