<?xml version="1.0" encoding="utf-8"?>
<!-- Generator: Adobe Illustrator 15.1.0, SVG Export Plug-In . SVG Version: 6.00 Build 0)  -->
<!DOCTYPE svg PUBLIC "-//W3C//DTD SVG 1.1//EN" "http://www.w3.org/Graphics/SVG/1.1/DTD/svg11.dtd">
<svg version="1.1" id="Warstwa_1" xmlns="http://www.w3.org/2000/svg" xmlns:xlink="http://www.w3.org/1999/xlink" x="0px" y="0px"
	 width="155px" height="155px" viewBox="0 0 155 155" enable-background="new 0 0 155 155" xml:space="preserve">
<g>
	<path fill-rule="evenodd" clip-rule="evenodd" fill="#080A0B" d="M80.253,109.389c-11.438-0.436-19.985-4.164-27.563-9.855
		c-8.145-6.117-15.833-12.832-23.76-19.241c-1.843-1.491-2.525-3.229-0.416-4.661C38.829,68.622,45.755,58,55.557,50.479
		c6.608-5.072,13.537-8.425,21.309-2.102c1.468,1.196,2.631,0.807,3.924-0.229c7.025-5.63,13.598-3.169,19.726,1.509
		c3.867,2.952,7.354,6.422,10.876,9.802c3.216,3.089,6.385,6.252,9.327,9.601c2.749,3.132,8.943,4.697,8.382,8.581
		c-0.478,3.309-5.442,6.015-8.503,8.899c-9.468,8.906-19.065,17.67-32.039,21.252C85.306,108.688,81.916,109.076,80.253,109.389z
		 M36.447,76.585c5.818,0.368,11.208,0.023,16.682-0.875c6.188-1.017,12.562-3.41,18.689,0.277
		c4.069,2.448,8.166,2.083,12.247,0.346c5.896-2.513,11.811-2.79,18.109-1.564c6.125,1.193,12.324,2.987,19.96,1.269
		c-5.719-5.61-10.788-10.659-15.948-15.61c-2.611-2.504-5.264-4.996-8.117-7.208c-6.238-4.844-10.365-4.807-16.466,0.172
		c-1.884,1.536-3.199,2.233-5.498,0.549c-7.802-5.715-11.282-5.957-18.321,0.487C50.435,61.154,43.901,68.77,36.447,76.585z
		 M117.978,82.24c-12.729-2.007-24.699-6.061-36.802-0.088c-2.308,1.137-5.211,1.086-7.465-0.207
		C62.224,75.36,51.274,82.471,38.9,81.727C66,111.634,92.778,111.607,117.978,82.24z"/>
	<path fill-rule="evenodd" clip-rule="evenodd" fill="#EC696A" d="M36.447,76.585c7.454-7.815,13.987-15.431,21.337-22.157
		c7.039-6.444,10.52-6.203,18.321-0.487c2.299,1.684,3.614,0.986,5.498-0.549c6.101-4.979,10.228-5.016,16.466-0.172
		c2.854,2.213,5.506,4.704,8.117,7.208c5.16,4.952,10.229,10,15.948,15.61c-7.636,1.718-13.835-0.076-19.96-1.269
		c-6.299-1.226-12.214-0.949-18.109,1.564c-4.081,1.737-8.178,2.102-12.247-0.346C65.69,72.3,59.317,74.693,53.129,75.71
		C47.655,76.608,42.266,76.953,36.447,76.585z M66.603,53.354c-3.501,0.135-6.733,1.501-9.247,4.321
		c-1.11,1.246-2.426,2.787-0.793,4.396c1.359,1.338,2.74,0.38,3.799-0.775c1.959-2.142,4.479-3.1,7.246-3.531
		c1.479-0.23,3.311-0.292,3.169-2.264C70.613,53.175,68.53,53.458,66.603,53.354z"/>
	<path fill-rule="evenodd" clip-rule="evenodd" fill="#EC696A" d="M117.978,82.24C92.778,111.607,66,111.634,38.9,81.727
		c12.374,0.744,23.323-6.366,34.811,0.219c2.254,1.293,5.157,1.344,7.465,0.207C93.278,76.18,105.249,80.233,117.978,82.24z"/>
	<path fill-rule="evenodd" clip-rule="evenodd" fill="#FFFFFF" d="M66.603,53.354c1.928,0.105,4.011-0.179,4.174,2.146
		c0.142,1.972-1.69,2.034-3.169,2.264c-2.768,0.431-5.287,1.389-7.246,3.531c-1.059,1.156-2.439,2.114-3.799,0.775
		c-1.633-1.608-0.317-3.15,0.793-4.396C59.869,54.854,63.102,53.488,66.603,53.354z"/>
</g>
</svg>
