<?xml version="1.0" encoding="utf-8"?>
<!-- Generator: Adobe Illustrator 15.1.0, SVG Export Plug-In . SVG Version: 6.00 Build 0)  -->
<!DOCTYPE svg PUBLIC "-//W3C//DTD SVG 1.1//EN" "http://www.w3.org/Graphics/SVG/1.1/DTD/svg11.dtd">
<svg version="1.1" id="Warstwa_1" xmlns="http://www.w3.org/2000/svg" xmlns:xlink="http://www.w3.org/1999/xlink" x="0px" y="0px"
	 width="155px" height="155px" viewBox="0 0 155 155" enable-background="new 0 0 155 155" xml:space="preserve">
<g>
	<rect x="39.735" y="86.371" fill-rule="evenodd" clip-rule="evenodd" fill="#080A0B" width="62.062" height="27.193"/>
	<path fill-rule="evenodd" clip-rule="evenodd" fill="#F2F2F2" d="M42.631,108.266h55.552c0.989-2.699,1.995-5.395,3.02-8.082
		c1.716-4.488,2.274-9.16,0.595-13.813c-2.128-5.888-8.054-8.896-13.549-6.883c-1.893,0.697-4.467,1.318-2.346,4.321
		c0.948,1.346,1.028,2.669-0.486,3.572c-1.188,0.71-2.304,0.014-3.154-0.817c-8.318-8.143-16.546-7.652-24.737,0.182
		c-0.917,0.879-2.069,1.354-3.161,0.561c-1.027-0.748-1.351-1.941-0.524-3.091c3.724-5.194-1.139-4.813-3.649-5.149
		c-6.012-0.801-10.894,3.754-11.697,10.551c-0.719,6.059,1.124,11.722,3.486,17.087C42.208,107.221,42.412,107.746,42.631,108.266z"
		/>
	<rect x="54.529" y="40.17" fill-rule="evenodd" clip-rule="evenodd" fill="#080A0B" width="62.435" height="13.989"/>
	<path fill-rule="evenodd" clip-rule="evenodd" fill="#FFFFFF" d="M113.096,44.613H58.801c-1.172,2.893-2.362,5.778-3.583,8.655
		c-1.802,4.255-2.451,8.703-0.859,13.175c2.011,5.661,7.879,8.642,13.413,6.82c1.903-0.628,4.492-1.176,2.428-4.082
		c-0.923-1.301-0.978-2.566,0.556-3.401c1.199-0.655,2.301,0.031,3.139,0.84c8.158,7.926,16.394,7.611,24.737,0.283
		c0.934-0.819,2.094-1.253,3.168-0.475c1.014,0.731,1.313,1.877,0.467,2.96c-3.826,4.887,1.045,4.616,3.548,4.982
		c5.992,0.878,10.962-3.38,11.898-9.856c0.837-5.77-0.897-11.208-3.154-16.375C114.046,46.972,113.565,45.792,113.096,44.613z"/>
	<path fill-rule="evenodd" clip-rule="evenodd" fill="#080A0B" d="M116.964,40.17h-4.965c0.796,2.257,1.633,4.503,2.559,6.723
		c2.257,5.411,3.991,11.107,3.154,17.151c-0.937,6.781-5.906,11.242-11.898,10.322c-2.503-0.384-7.374-0.098-3.548-5.219
		c0.846-1.134,0.547-2.333-0.467-3.1c-1.074-0.816-2.234-0.36-3.168,0.498c-8.344,7.676-16.579,8.005-24.737-0.296
		c-0.838-0.85-1.939-1.568-3.139-0.88c-1.533,0.875-1.479,2.199-0.556,3.561c2.064,3.045-0.524,3.618-2.428,4.275
		c-5.534,1.908-11.402-1.214-13.413-7.143c-1.592-4.683-0.942-9.343,0.859-13.799c1.624-4.014,3.207-8.045,4.74-12.092h-5.009
		c-0.961,2.395-1.95,4.781-3.006,7.144c-2.603,5.83-3.9,12.141-2.39,18.599c1.6,6.828,5.909,12.782,12.813,11.846
		c9.75-1.32,19.399-1.218,29.107-1.68c2.556-0.122,4.614-0.7,7.219,0.646c12.104,6.268,23.461-0.838,23.814-14.645
		c0.066-3.315-0.295-6.544-1.387-9.719C119.727,48.301,118.331,44.24,116.964,40.17z"/>
	<path fill-rule="evenodd" clip-rule="evenodd" fill="#080A0B" d="M39.735,113.564h5.003c-0.859-2.307-1.763-4.598-2.76-6.86
		c-2.362-5.365-4.205-11.028-3.486-17.087c0.804-6.797,5.686-11.352,11.697-10.551c2.511,0.337,7.373-0.045,3.649,5.149
		c-0.826,1.149-0.503,2.343,0.524,3.091c1.092,0.793,2.244,0.318,3.161-0.561c8.191-7.834,16.419-8.324,24.737-0.182
		c0.851,0.831,1.967,1.527,3.154,0.817c1.515-0.903,1.435-2.227,0.486-3.572c-2.121-3.003,0.453-3.624,2.346-4.321
		c5.495-2.013,11.421,0.995,13.549,6.883c1.68,4.652,1.121,9.324-0.595,13.813c-1.696,4.443-3.343,8.902-4.931,13.381h4.941
		c1.062-2.85,2.172-5.686,3.36-8.496c2.489-5.879,3.663-12.213,2.027-18.643c-1.729-6.796-6.155-12.664-13.04-11.595
		c-9.722,1.51-19.372,1.594-29.068,2.243c-2.556,0.173-4.601,0.79-7.23-0.505c-12.225-6.031-23.441,1.293-23.527,15.103
		c-0.002,3.318,0.423,6.539,1.575,9.691C36.793,105.428,38.279,109.492,39.735,113.564z"/>
	<path fill-rule="evenodd" clip-rule="evenodd" fill="#EC696A" d="M81.759,74.879c-1.213,0.063-2.47,0.018-3.678-0.192
		c-0.464-0.14-0.938-0.246-1.414-0.332c-0.71-0.214-1.403-0.479-1.967-0.33c-0.012-0.001-0.025-0.003-0.036-0.006
		c-0.832,0.141-1.55,0.243-2.257,0.388c-1.625,0.338-3.678,0.746-3.462,2.727c0.284,2.678,2.285,1.181,3.776,1.042
		c1.271-0.119,2.592-0.112,3.859,0.073c1.022,0.314,2.095,0.479,3.069,0.704c0.837-0.107,1.559-0.179,2.271-0.298
		c1.635-0.271,3.704-0.596,3.569-2.585C85.314,73.385,83.256,74.801,81.759,74.879z"/>
</g>
</svg>
