<?xml version="1.0" encoding="utf-8"?>
<!-- Generator: Adobe Illustrator 15.1.0, SVG Export Plug-In . SVG Version: 6.00 Build 0)  -->
<!DOCTYPE svg PUBLIC "-//W3C//DTD SVG 1.1//EN" "http://www.w3.org/Graphics/SVG/1.1/DTD/svg11.dtd">
<svg version="1.1" id="Warstwa_1" xmlns="http://www.w3.org/2000/svg" xmlns:xlink="http://www.w3.org/1999/xlink" x="0px" y="0px"
	 width="155px" height="155px" viewBox="0 0 155 155" enable-background="new 0 0 155 155" xml:space="preserve">
<g>
	<path fill-rule="evenodd" clip-rule="evenodd" fill="#FFFFFF" d="M62.938,38.342l7.705,2.889l7.062-1.443l8.132,1.98l4.333-1.713
		h6.529l3.209-1.016c0,0,5.67,4.921,5.779,5.082c0.105,0.162,3.422,9.683,3.422,9.683L93.863,79.805l-30.925-0.32L52.938,58.138
		l-1.979-11.074l5.187-7.758L62.938,38.342z"/>
	<path fill-rule="evenodd" clip-rule="evenodd" fill="#EC696A" d="M79.344,85.791c-3.559,0-7.124-0.07-10.682,0.031
		c-1.58,0.045-2.105-0.592-1.826-2.001c0.241-1.218-1.01-3.212,1.738-3.188c7.266,0.059,14.533,0.094,21.799-0.014
		c2.525-0.04,1.697,1.629,1.83,2.885c0.158,1.455-0.033,2.408-1.963,2.33C86.616,85.686,82.978,85.793,79.344,85.791z"/>
	<g>
		<path fill-rule="evenodd" clip-rule="evenodd" fill="#2F2F2F" d="M79.175,111.023c-4.133,0-8.269-0.013-12.401,0.009
			c-1.451,0.007-2.886-0.106-2.919-1.966c-0.033-1.811,1.327-2.096,2.802-2.096c8.334,0,16.671-0.011,25.008-0.018
			c0.214,0,0.434-0.031,0.641,0.004c1.336,0.232,2.494,0.773,2.404,2.342c-0.084,1.486-1.274,1.721-2.492,1.723
			C87.867,111.028,83.521,111.023,79.175,111.023z"/>
		<path fill-rule="evenodd" clip-rule="evenodd" fill="#2F2F2F" d="M79.182,96.969c-4.133,0.004-8.266,0.004-12.398,0.004
			c-1.445-0.004-2.891-0.18-2.883-2.043c0.006-1.836,1.37-2.018,2.865-2.014c8.338,0.029,16.676,0.014,25.014,0.007
			c1.41,0,2.91-0.013,2.904,1.938c-0.006,1.864-1.496,2.077-2.886,2.091C87.592,96.998,83.389,96.969,79.182,96.969z"/>
		<path fill-rule="evenodd" clip-rule="evenodd" fill="#2F2F2F" d="M79.15,104.08c-4.199,0-8.4-0.026-12.602,0.018
			c-1.484,0.016-2.645-0.416-2.69-2.021c-0.044-1.714,1.272-2.001,2.672-1.996c8.747,0.034,17.491,0.065,26.235,0.099
			c1.055,0.003,2.057,0.506,1.902,1.532c-0.152,1.013-0.367,2.411-2.07,2.386c-3.344-0.047-6.688-0.006-10.03,0
			c-1.138,0-2.278,0-3.417,0C79.15,104.092,79.15,104.086,79.15,104.08z"/>
		<path fill-rule="evenodd" clip-rule="evenodd" fill="#2F2F2F" d="M79.285,113.891c2.206,0,4.414-0.003,6.619,0
			c1.358,0.002,2.428,0.386,2.428,2.005c-0.006,1.485-1.002,1.984-2.26,1.984c-4.481,0.001-8.964-0.068-13.445-0.091
			c-1.277-0.01-2.388-0.352-2.348-1.825c0.047-1.551,1.039-2.155,2.607-2.084c2.127,0.095,4.268,0.021,6.398,0.021
			C79.285,113.898,79.285,113.895,79.285,113.891z"/>
		<path fill-rule="evenodd" clip-rule="evenodd" fill="#2F2F2F" d="M86.09,71.949c-0.021,1.333-1.45,2.411-2.727,1.768
			c-2.846-1.436-5.564-1.498-8.369,0.021c-1.109,0.599-1.952-0.042-2.478-0.986c-0.524-0.941-0.179-1.801,0.601-2.473
			c2.671-2.301,9.42-2.275,12.136,0.015C85.786,70.744,86.037,71.284,86.09,71.949z"/>
		<path fill-rule="evenodd" clip-rule="evenodd" fill="#2F2F2F" d="M110.61,49.79c-0.24-5.504-2.55-9.955-7.731-12.316
			c-4.891-2.231-9.634-1.489-13.866,1.768c-1.122,0.862-1.874,0.833-3.005,0.199c-2.482-1.387-5.184-1.929-8.033-1.615
			c-1.876-0.003-3.654,0.36-5.256,1.393c-1.252,0.849-2.226,0.47-3.395-0.398c-2.918-2.17-6.307-3.01-9.893-2.456
			c-9.916,1.538-15.056,9.094-6.783,29.265c1.845,4.493,3.943,9.002,7.404,12.386c2.613,2.555,3.164,5.188,2.955,8.486
			c-0.17,2.686,0.371,3.119,3.035,3.123c8.404,0.012,16.809,0,25.213,0.004c4.902,0.002,5.042,0.002,4.844-4.934
			c-0.115-2.908,0.535-5.306,2.26-7.704c2.987-4.154,5.785-8.46,8.174-13.009C108.871,59.53,110.838,54.934,110.61,49.79z
			 M90.24,85.834c-3.624-0.148-7.263-0.041-10.896-0.041c-3.559-0.002-7.124-0.072-10.682,0.029
			c-1.58,0.045-2.105-0.592-1.826-2.001c0.241-1.218-1.01-3.212,1.738-3.188c7.266,0.059,14.533,0.094,21.799-0.014
			c2.525-0.04,1.697,1.629,1.83,2.885C92.361,84.959,92.17,85.912,90.24,85.834z M52.374,50.636c0-9.458,7.81-11.238,11.96-9.823
			c3.113,1.064,3.178,1.255,1.203,3.634c-1.387,1.071-1.131,2.29,0.045,3.149c1.472,1.07,5.544-7.295,13.721-6.101
			c4.021,0.637,7.336,2.583,10.143,5.467c0.939,0.964,2.037,1.548,3.159,0.48c1.18-1.121,0.815-2.424-0.31-3.334
			c-1.526-1.229-0.89-1.866,0.417-2.578c6.198-3.382,13.302,0.565,13.843,7.716c0.342,4.525-1.398,8.497-3.357,12.398
			c-2.496,4.975-5.855,9.418-8.768,14.134c-0.461,0.748-1.041,1.034-1.93,1.031c-9.049-0.032-18.098-0.055-27.146-0.003
			c-1.322,0.008-1.934-0.822-2.575-1.616c-1.79-2.222-3.212-4.691-4.526-7.223C57.896,67.285,52.186,54.338,52.374,50.636"/>
	</g>
</g>
</svg>
