<?xml version="1.0" encoding="utf-8"?>
<!-- Generator: Adobe Illustrator 15.1.0, SVG Export Plug-In . SVG Version: 6.00 Build 0)  -->
<!DOCTYPE svg PUBLIC "-//W3C//DTD SVG 1.1//EN" "http://www.w3.org/Graphics/SVG/1.1/DTD/svg11.dtd">
<svg version="1.1" id="Warstwa_1" xmlns="http://www.w3.org/2000/svg" xmlns:xlink="http://www.w3.org/1999/xlink" x="0px" y="0px"
	 width="155px" height="155px" viewBox="0 0 155 155" enable-background="new 0 0 155 155" xml:space="preserve">
<g>
	<path fill-rule="evenodd" clip-rule="evenodd" d="M53.678,98.5c0-6.609,0.041-13.215-0.025-19.82
		c-0.023-2.551,0.678-4.232,3.611-3.943c2.666,0.26,3.371-1.143,3.346-3.535c-0.074-6.965-0.076-13.93,0-20.893
		c0.025-2.209-0.6-3.529-2.822-4.48c-3.908-1.672-6.049-4.867-6.256-9.209c-0.27-5.66,2.998-10.021,8.502-11.361
		c5.088-1.238,10.682,1.619,12.691,6.482c2.068,5.006,0.447,10.906-4.523,13.408c-3.367,1.699-4.006,3.852-3.898,7.164
		c0.203,6.066,0.141,12.143,0.039,18.211c-0.047,2.758,0.594,4.535,3.824,4.238c2.422-0.221,3.014,1.254,3.008,3.35
		c-0.025,13.75,0.064,27.496-0.068,41.246c-0.047,5.006-3.689,8.537-8.359,8.697c-4.877,0.168-8.801-3.354-8.988-8.67
		c-0.242-6.953-0.057-13.924-0.057-20.885C53.691,98.5,53.684,98.5,53.678,98.5z M67.646,104.908c0.002,0,0.008,0,0.012,0
		c0-4.639-0.066-9.277,0.027-13.912c0.049-2.414-0.713-3.752-3.35-3.553c-1.24,0.094-2.5,0.086-3.742,0.002
		c-2.492-0.172-3.469,0.83-3.436,3.414c0.117,9.096-0.023,18.195,0.08,27.293c0.051,4.023,2.004,6.184,5.117,6.225
		c3.119,0.045,5.119-2.102,5.256-6.092C67.762,113.83,67.646,109.367,67.646,104.908z M69.904,36.18
		c0.127-3.996-3.303-7.482-7.389-7.516c-4.053-0.035-7.207,2.836-7.459,6.795c-0.26,4.133,2.879,7.641,7.014,7.84
		C66.1,43.494,69.779,40.15,69.904,36.18z M62.195,83.584c0.705,0,1.412,0.01,2.117-0.006c1.6-0.037,3.256,0.127,3.326-2.285
		c0.068-2.293-0.973-3.211-3.18-3.119c-1.764,0.072-3.568-0.148-5.277,0.168c-0.74,0.137-1.672,1.205-1.857,2.004
		C56.703,83.033,57.576,83.561,62.195,83.584z"/>
	<path fill-rule="evenodd" clip-rule="evenodd" d="M98.855,98.684c-0.002,6.781,0.205,13.568-0.057,20.34
		c-0.287,7.5-7.697,11.43-13.721,7.508c-2.789-1.814-4.029-4.547-4.047-7.719c-0.074-13.381-0.012-26.762-0.055-40.145
		c-0.008-2.594,0.84-4.186,3.682-3.92c3.002,0.277,3.564-1.395,3.543-3.926c-0.07-8.027,0.133-16.063-0.092-24.084
		c-0.102-3.711,0.725-6.594,3.977-8.652c1.188-0.75,2.09-1.934,3.162-2.873c1.332-1.166,0.957-2.01-0.348-2.895
		c-2.506-1.705-5.033-3.393-7.379-5.301c-0.594-0.486-0.527-1.779-0.766-2.699c0.945-0.043,2.146-0.482,2.787-0.059
		c3.576,2.348,7.029,4.885,10.49,7.4c1.66,1.207,1.705,2.646,0.24,4.033c-1.809,1.715-3.582,3.51-5.588,4.977
		c-2.23,1.633-3.139,3.564-3.092,6.346c0.141,7.85,0.127,15.703-0.004,23.553c-0.049,2.846,0.723,4.473,3.855,4.207
		c3.072-0.26,3.447,1.689,3.43,4.105C98.826,85.48,98.859,92.084,98.855,98.684z M95.021,104.738c-0.008,0-0.014,0-0.016,0
		c0-4.469-0.145-8.943,0.047-13.402c0.129-3.059-1.061-4.256-4.031-3.904c-0.705,0.084-1.438,0.088-2.141,0
		c-2.977-0.373-4.076,0.811-4.02,3.885c0.16,8.932-0.004,17.871,0.074,26.809c0.035,4.029,1.955,6.26,5.021,6.266
		c3.086,0,4.943-2.174,5.039-6.248C95.102,113.674,95.021,109.207,95.021,104.738z M89.363,83.578c1.031,0,1.736-0.014,2.439,0.002
		c1.691,0.043,3.145-0.041,3.193-2.387c0.051-2.373-1.121-3.1-3.24-3.014c-1.408,0.055-2.822,0.072-4.229,0.02
		c-2.18-0.084-2.664,1.166-2.584,3.021C85.102,84.91,88.002,83.023,89.363,83.578z"/>
	<path fill-rule="evenodd" clip-rule="evenodd" fill="#FFFFFF" d="M67.646,104.908c0,4.459,0.115,8.922-0.035,13.377
		c-0.137,3.99-2.137,6.137-5.256,6.092c-3.113-0.041-5.066-2.201-5.117-6.225c-0.104-9.098,0.037-18.197-0.08-27.293
		c-0.033-2.584,0.943-3.586,3.436-3.414c1.242,0.084,2.502,0.092,3.742-0.002c2.637-0.199,3.398,1.139,3.35,3.553
		c-0.094,4.635-0.027,9.273-0.027,13.912C67.654,104.908,67.648,104.908,67.646,104.908z"/>
	<path fill-rule="evenodd" clip-rule="evenodd" fill="#FFFFFF" d="M69.904,36.18c-0.125,3.971-3.805,7.314-7.834,7.119
		c-4.135-0.199-7.273-3.707-7.014-7.84c0.252-3.959,3.406-6.83,7.459-6.795C66.602,28.697,70.031,32.184,69.904,36.18z"/>
	<path fill-rule="evenodd" clip-rule="evenodd" fill="#EC696A" d="M62.195,83.584c-4.619-0.023-5.492-0.551-4.871-3.238
		c0.186-0.799,1.117-1.867,1.857-2.004c1.709-0.316,3.514-0.096,5.277-0.168c2.207-0.092,3.248,0.826,3.18,3.119
		c-0.07,2.412-1.727,2.248-3.326,2.285C63.607,83.594,62.9,83.584,62.195,83.584z"/>
	<path fill-rule="evenodd" clip-rule="evenodd" fill="#FFFFFF" d="M95.021,104.738c0,4.469,0.08,8.936-0.025,13.404
		c-0.096,4.074-1.953,6.248-5.039,6.248c-3.066-0.006-4.986-2.236-5.021-6.266c-0.078-8.938,0.086-17.877-0.074-26.809
		c-0.057-3.074,1.043-4.258,4.02-3.885c0.703,0.088,1.436,0.084,2.141,0c2.971-0.352,4.16,0.846,4.031,3.904
		c-0.191,4.459-0.047,8.934-0.047,13.402C95.008,104.738,95.014,104.738,95.021,104.738z"/>
	<path fill-rule="evenodd" clip-rule="evenodd" fill="#EC696A" d="M89.363,83.578c-1.361-0.555-4.262,1.332-4.42-2.357
		c-0.08-1.855,0.404-3.105,2.584-3.021c1.406,0.053,2.82,0.035,4.229-0.02c2.119-0.086,3.291,0.641,3.24,3.014
		c-0.049,2.346-1.502,2.43-3.193,2.387C91.1,83.564,90.395,83.578,89.363,83.578z"/>
</g>
</svg>
