<?xml version="1.0" encoding="utf-8"?>
<!-- Generator: Adobe Illustrator 15.1.0, SVG Export Plug-In . SVG Version: 6.00 Build 0)  -->
<!DOCTYPE svg PUBLIC "-//W3C//DTD SVG 1.1//EN" "http://www.w3.org/Graphics/SVG/1.1/DTD/svg11.dtd">
<svg version="1.1" id="Warstwa_1" xmlns="http://www.w3.org/2000/svg" xmlns:xlink="http://www.w3.org/1999/xlink" x="0px" y="0px"
	 width="170px" height="75px" viewBox="0 0 170 75" enable-background="new 0 0 170 75" xml:space="preserve">
<g>
	<path fill-rule="evenodd" clip-rule="evenodd" fill="#EC1C24" d="M39.141,25.833h1.412l0.084,0.358h7.94l0.063-0.358h1.412
		l0.289,3.002h-1.353c-0.094-0.446-0.304-0.78-0.635-0.998c-0.332-0.22-0.79-0.326-1.377-0.326h-0.25v7.415h1.211v1.096h-6.678
		v-1.096h1.211v-7.415h-0.25c-0.581,0-1.036,0.106-1.366,0.323c-0.327,0.214-0.54,0.55-0.63,1.001H38.85L39.141,25.833
		L39.141,25.833z M24.868,26.191h6.25c1.911,0,3.428,0.288,4.553,0.863c1.124,0.582,1.686,1.357,1.686,2.33
		c0,0.625-0.252,1.185-0.755,1.675c-0.505,0.492-1.21,0.86-2.12,1.11c0.155,0.087,0.294,0.192,0.427,0.312
		c0.129,0.122,0.261,0.273,0.394,0.457l1.524,1.989h0.861v1.096H32.79c-0.055-0.209-0.116-0.405-0.192-0.596
		c-0.07-0.183-0.154-0.353-0.249-0.5l-1.428-2.208h-0.862v2.208h0.98v1.096h-6.17v-1.096h1.002v-7.621h-1.002V26.191L24.868,26.191z
		 M30.059,27.403v4.172h0.591c0.774,0,1.406-0.192,1.89-0.576c0.49-0.387,0.732-0.891,0.732-1.516c0-0.63-0.261-1.133-0.776-1.511
		c-0.517-0.379-1.214-0.569-2.087-0.569H30.059L30.059,27.403z M9.833,20.617h5.854l6.741,13.685h1.164v1.721H13.72v-1.721h1.871
		l-0.943-2.055H7.198l-0.991,2.055h1.886v1.721H1.735v-1.721H3.15L9.833,20.617L9.833,20.617z M10.995,24.514l-2.796,5.701h5.49
		L10.995,24.514L10.995,24.514z"/>
	<path fill="#FFFFFF" stroke="#EC1C24" stroke-miterlimit="22.9256" d="M24.658,44.019c-0.667,0-1.176,0.207-1.521,0.624
		c-0.349,0.421-0.522,1.03-0.522,1.83c0,0.574,0.1,1.168,0.291,1.784c0.197,0.617,0.475,1.207,0.839,1.764
		c0.342,0.532,0.725,0.928,1.146,1.198c0.419,0.265,0.869,0.398,1.353,0.398c0.667,0,1.171-0.207,1.517-0.627
		c0.341-0.423,0.514-1.033,0.514-1.841c0-0.577-0.1-1.171-0.292-1.788c-0.196-0.613-0.47-1.201-0.83-1.762
		c-0.333-0.521-0.712-0.916-1.132-1.182C25.602,44.148,25.147,44.019,24.658,44.019L24.658,44.019z M25.449,42.76
		c2.043,0,3.735,0.479,5.076,1.434c1.344,0.952,2.014,2.163,2.014,3.628c0,1.467-0.67,2.678-2.014,3.632
		c-1.34,0.955-3.032,1.427-5.076,1.427c-2.047,0-3.743-0.472-5.09-1.43c-1.343-0.955-2.016-2.167-2.016-3.629
		c0-1.465,0.672-2.676,2.016-3.628C21.706,43.238,23.401,42.76,25.449,42.76L25.449,42.76z M33.144,42.941h10.215v2.035h-1.407
		l-0.023-0.402c-0.304-0.143-0.657-0.252-1.055-0.326c-0.398-0.068-0.854-0.107-1.352-0.107H38.36v2.129h3.592v-0.715h1.407v2.621
		h-1.407v-0.613H38.36v4.025h1.419v1.089h-6.635v-1.089h0.992v-7.543h-0.992V42.941L33.144,42.941z"/>
	<path fill-rule="evenodd" clip-rule="evenodd" fill="#EC1C24" d="M155.773,42.77h6.643v1.117h-1.162l2.211,2.758l2.316-2.758h-1.25
		V42.77h4.08v1.117h-0.697l-7.693,9.285l-1.432-0.982l2.404-2.805l-4.787-5.498h-0.633V42.77L155.773,42.77z M142.664,42.77h6.248
		c1.912,0,3.428,0.291,4.555,0.869c1.123,0.581,1.684,1.354,1.684,2.324c0,0.627-0.252,1.184-0.756,1.678
		c-0.504,0.49-1.207,0.86-2.115,1.107c0.152,0.088,0.293,0.192,0.424,0.314c0.133,0.121,0.26,0.271,0.393,0.459l1.525,1.984h0.863
		v1.099h-4.898c-0.055-0.209-0.115-0.408-0.193-0.594c-0.07-0.19-0.15-0.354-0.248-0.505l-1.43-2.209h-0.859v2.209h0.979v1.099
		h-6.17v-1.099h1v-7.619h-1V42.77L142.664,42.77z M147.855,43.985v4.173h0.59c0.773,0,1.404-0.192,1.891-0.577
		c0.488-0.386,0.732-0.89,0.732-1.517c0-0.633-0.262-1.137-0.777-1.516c-0.516-0.374-1.211-0.563-2.086-0.563H147.855
		L147.855,43.985z M129.928,42.412h1.411l0.082,0.357h7.942l0.063-0.357h1.41l0.291,3.001h-1.354
		c-0.094-0.448-0.307-0.778-0.639-0.995c-0.33-0.217-0.788-0.328-1.375-0.328h-0.25v7.416h1.211v1.099h-6.676v-1.099h1.211V44.09
		h-0.253c-0.579,0-1.033,0.111-1.361,0.323c-0.331,0.218-0.539,0.55-0.634,1h-1.37L129.928,42.412L129.928,42.412z M126.7,43.292
		l0.475-0.457l1.187,0.516l-2.21,2.452c-0.996-0.596-1.84-1.046-2.53-1.336c-0.693-0.292-1.246-0.441-1.66-0.441
		c-0.329,0-0.596,0.061-0.813,0.176c-0.213,0.119-0.32,0.266-0.32,0.44c0,0.229,0.171,0.438,0.516,0.623
		c0.342,0.188,0.956,0.399,1.827,0.63c0.162,0.043,0.401,0.104,0.711,0.184c1.759,0.459,2.896,0.865,3.419,1.213
		c0.357,0.249,0.632,0.525,0.819,0.837c0.187,0.303,0.281,0.632,0.281,0.981c0,1.017-0.568,1.888-1.703,2.608
		c-1.134,0.726-2.504,1.093-4.115,1.093c-1.083,0-2.141-0.139-3.168-0.415c-1.034-0.286-2.011-0.694-2.931-1.233l2.384-2.43
		c1.093,0.817,2.083,1.427,2.967,1.828c0.883,0.4,1.678,0.602,2.379,0.602c0.475,0,0.852-0.078,1.139-0.236
		c0.283-0.152,0.425-0.36,0.425-0.617c0-0.167-0.122-0.318-0.358-0.461c-0.234-0.138-0.637-0.298-1.205-0.463
		c-0.401-0.12-1.122-0.317-2.167-0.583c-1.034-0.264-1.794-0.496-2.26-0.698c-0.626-0.273-1.104-0.595-1.43-0.977
		c-0.329-0.379-0.492-0.798-0.492-1.246c0-0.857,0.525-1.618,1.583-2.293c1.051-0.676,2.277-1.014,3.662-1.014
		c0.523,0,1.078,0.057,1.66,0.179C125.356,42.866,125.998,43.047,126.7,43.292L126.7,43.292z M109.002,42.77h6.269v1.117h-1v7.619h1
		v1.099h-6.269v-1.099h1.002v-7.619h-1.002V42.77L109.002,42.77z M96.268,42.412h1.409l0.083,0.357h7.943l0.059-0.357h1.414
		l0.29,3.001h-1.354c-0.093-0.448-0.305-0.778-0.636-0.995c-0.333-0.217-0.79-0.328-1.377-0.328h-0.248v7.416h1.208v1.099h-6.676
		v-1.099h1.209V44.09h-0.25c-0.579,0-1.033,0.105-1.364,0.323c-0.328,0.218-0.541,0.55-0.632,1h-1.371L96.268,42.412L96.268,42.412z
		 M81.891,42.77h4.646l5.051,5.171v-4.054h-1.004V42.77h3.837v1.117h-0.982v8.718h-2.482c-0.129-0.196-0.275-0.396-0.441-0.611
		c-0.167-0.213-0.365-0.436-0.592-0.67l-5.19-5.347v5.529h1.196v1.099h-4.04v-1.099h1.001v-7.619h-1.001V42.77L81.891,42.77z
		 M79,42.77v2.054h-1.422l-0.023-0.401c-0.224-0.153-0.559-0.264-1.002-0.332c-0.444-0.07-1.024-0.104-1.74-0.104h-0.863v2.147
		h3.629v-0.721H79v2.646h-1.422v-0.618h-3.629v3.926h0.863c0.623,0,1.159-0.061,1.615-0.175c0.452-0.113,0.836-0.28,1.151-0.518
		v-0.635H79v2.566H68.683v-1.099h1.001v-7.619h-1.001V42.77H79L79,42.77z M46,37.201h8.83c3.695,0,6.578,0.666,8.649,2.002
		c2.073,1.336,3.108,3.178,3.108,5.527c0,1.352-0.322,2.537-0.961,3.562c-0.637,1.02-1.622,1.916-2.961,2.691
		c-1.006,0.583-2.131,0.996-3.385,1.244c-1.249,0.254-2.934,0.377-5.061,0.377H46v-1.722h1.568V38.945H46V37.201L46,37.201z
		 M54.25,39.265v11.31h0.677c1.435,0,2.549-0.509,3.341-1.525c0.797-1.018,1.195-2.453,1.195-4.318c0-1.822-0.398-3.193-1.195-4.1
		c-0.792-0.912-1.982-1.366-3.562-1.366H54.25L54.25,39.265z"/>
</g>
</svg>
