<?xml version="1.0" encoding="utf-8"?>
<!-- Generator: Adobe Illustrator 15.1.0, SVG Export Plug-In . SVG Version: 6.00 Build 0)  -->
<!DOCTYPE svg PUBLIC "-//W3C//DTD SVG 1.1//EN" "http://www.w3.org/Graphics/SVG/1.1/DTD/svg11.dtd">
<svg version="1.1" id="Warstwa_1" xmlns="http://www.w3.org/2000/svg" xmlns:xlink="http://www.w3.org/1999/xlink" x="0px" y="0px"
	 width="170px" height="75px" viewBox="0 0 170 75" enable-background="new 0 0 170 75" xml:space="preserve">
<g>
	<rect x="50.353" y="2.853" fill-rule="evenodd" clip-rule="evenodd" fill="#004D8C" width="69.295" height="69.295"/>
	<path fill="#FFFFFF" d="M61.016,23.06L61.016,23.06c-1.291,0-2.303,0.425-3.042,1.279c-0.684,0.791-1.026,1.783-1.026,2.973
		c0,1.218,0.335,2.201,1.008,2.954c0.738,0.829,1.758,1.241,3.061,1.241c1.288,0,2.329-0.412,3.121-1.241
		c0.766-0.777,1.147-1.762,1.147-2.954c0-1.292-0.369-2.323-1.106-3.096C63.438,23.445,62.384,23.06,61.016,23.06 M65.285,31.922
		v-2.068c-0.859,1.518-2.275,2.276-4.249,2.276c-1.518,0-2.706-0.464-3.563-1.394c-0.82-0.878-1.23-2.019-1.23-3.425
		c0-1.43,0.41-2.584,1.23-3.464c0.885-0.939,2.1-1.407,3.644-1.407c1.973,0,3.362,0.745,4.168,2.238v-5.516h0.725v12.759H65.285z"/>
	<path fill="#FFFFFF" d="M73.905,23.136L73.905,23.136c-1.237,0-2.23,0.341-2.982,1.024c-0.751,0.685-1.174,1.604-1.27,2.758h8.357
		c-0.027-1.154-0.408-2.073-1.148-2.758C76.125,23.477,75.139,23.136,73.905,23.136 M69.654,27.538
		c0.082,2.646,1.479,3.969,4.189,3.969c0.913,0,1.722-0.194,2.427-0.582c0.705-0.389,1.213-0.959,1.52-1.713h0.746
		c-0.349,1.041-0.967,1.803-1.853,2.278c-0.805,0.426-1.766,0.64-2.879,0.64c-1.61,0-2.839-0.44-3.686-1.318
		c-0.779-0.827-1.168-1.981-1.168-3.461c0-1.432,0.447-2.596,1.339-3.49c0.894-0.898,2.097-1.347,3.617-1.347
		c1.503,0,2.703,0.401,3.604,1.204c0.899,0.804,1.349,1.896,1.349,3.273v0.528L69.654,27.538z"/>
	<path fill="#FFFFFF" d="M89.351,31.922v-6.04c0-0.891-0.296-1.571-0.886-2.043c-0.592-0.47-1.384-0.703-2.376-0.703
		c-1.168,0-2.092,0.335-2.77,1.007c-0.678,0.67-1.016,1.544-1.016,2.623v5.156h-0.725v-9.183h0.725v1.658
		c0.671-1.257,1.927-1.884,3.765-1.884c1.168,0,2.109,0.265,2.82,0.791c0.791,0.564,1.189,1.361,1.189,2.389v6.229H89.351z"/>
	<polygon fill="#FFFFFF" points="95.532,23.831 95.532,31.922 94.848,31.922 94.807,23.831 92.814,23.831 92.814,23.19 
		94.807,23.19 94.807,20.366 95.532,20.366 95.532,23.19 97.566,23.19 97.566,23.831 	"/>
	<path fill="#FFFFFF" d="M104.454,23.136L104.454,23.136c-1.289,0-2.304,0.419-3.04,1.262c-0.685,0.776-1.028,1.761-1.028,2.953
		c0,1.203,0.335,2.182,1.007,2.936c0.738,0.814,1.758,1.221,3.061,1.221c1.29,0,2.33-0.406,3.122-1.221
		c0.767-0.779,1.147-1.757,1.147-2.936c0-1.293-0.369-2.318-1.107-3.078C106.876,23.513,105.824,23.136,104.454,23.136
		 M108.723,31.922v-2.068c-0.86,1.518-2.275,2.276-4.249,2.276c-1.517,0-2.706-0.464-3.564-1.394
		c-0.82-0.865-1.229-1.996-1.229-3.386c0-1.418,0.409-2.565,1.229-3.444c0.885-0.928,2.101-1.393,3.645-1.393
		c1.972,0,3.361,0.74,4.168,2.22v-2.183h0.725v9.371H108.723z"/>
	<rect x="113.032" y="19.163" fill="#FFFFFF" width="0.726" height="12.759"/>
	<path fill="#FFFFFF" d="M59.507,47.172c-0.64,0.91-0.959,2.104-0.959,3.576v4.824h-2.306V43.812h2.306v1.08
		c1.136-0.88,2.84-1.321,5.111-1.321v2.039C61.611,45.609,60.228,46.131,59.507,47.172"/>
	<path fill="#FFFFFF" d="M74.523,46.716L74.523,46.716c-0.747-0.735-1.83-1.106-3.256-1.106c-1.31,0-2.344,0.401-3.097,1.201
		c-0.687,0.752-1.031,1.729-1.031,2.93s0.344,2.159,1.031,2.879c0.737,0.785,1.77,1.177,3.097,1.177
		c1.329,0,2.389-0.382,3.183-1.152c0.791-0.767,1.187-1.735,1.187-2.903C75.638,48.46,75.266,47.451,74.523,46.716 M75.638,55.598
		v-1.104c-1.119,0.896-2.57,1.343-4.346,1.343c-2.014,0-3.615-0.599-4.8-1.8c-1.104-1.12-1.655-2.553-1.655-4.296
		c0-1.793,0.559-3.249,1.678-4.369c1.202-1.199,2.825-1.801,4.874-1.801c1.698,0,3.114,0.432,4.249,1.297v-1.249h2.304v11.979
		H75.638z"/>
	<path fill="#FFFFFF" d="M89.74,46.379L89.74,46.379c-0.744-0.77-1.83-1.152-3.253-1.152c-1.295,0-2.309,0.407-3.038,1.213
		c-0.729,0.807-1.091,1.835-1.091,3.084c0,1.248,0.345,2.249,1.031,3.001c0.738,0.815,1.768,1.225,3.098,1.225
		c1.327,0,2.389-0.401,3.181-1.201s1.188-1.806,1.188-3.024C90.855,48.196,90.482,47.147,89.74,46.379 M90.855,55.598v-1.152
		c-1.12,0.927-2.567,1.391-4.344,1.391c-2.015,0-3.617-0.624-4.803-1.87c-1.104-1.154-1.655-2.634-1.655-4.442
		c0-1.856,0.559-3.36,1.68-4.513c1.185-1.249,2.808-1.872,4.873-1.872c1.694,0,3.111,0.448,4.249,1.344v-5.186h2.304v16.301H90.855z
		"/>
	<polygon fill="#FFFFFF" points="95.993,55.572 95.993,55.572 95.993,43.378 98.297,43.378 98.297,55.572 	"/>
	<path fill="#FFFFFF" d="M110.288,46.727L110.288,46.727c-0.775-0.744-1.875-1.117-3.3-1.117c-1.407,0-2.501,0.376-3.277,1.13
		c-0.779,0.751-1.166,1.743-1.166,2.977c0,1.217,0.391,2.2,1.179,2.951c0.783,0.756,1.871,1.129,3.264,1.129
		c1.391,0,2.484-0.373,3.276-1.129c0.793-0.751,1.188-1.734,1.188-2.951C111.452,48.468,111.065,47.472,110.288,46.727
		 M111.908,54.133c-1.233,1.138-2.881,1.703-4.945,1.703c-2.064,0-3.704-0.565-4.92-1.703c-1.217-1.137-1.824-2.607-1.824-4.417
		c0-1.808,0.615-3.285,1.849-4.429c1.231-1.144,2.88-1.717,4.943-1.717c2.066,0,3.706,0.573,4.922,1.717
		c1.217,1.144,1.825,2.621,1.825,4.429C113.758,51.525,113.142,52.996,111.908,54.133z"/>
	<path fill="#FFFFFF" d="M97.188,39.336c-0.637,0-1.157,0.519-1.157,1.155c0,0.639,0.52,1.155,1.157,1.155
		c0.636,0,1.153-0.517,1.153-1.155C98.341,39.854,97.824,39.336,97.188,39.336"/>
</g>
</svg>
