<?xml version="1.0" encoding="utf-8"?>
<!-- Generator: Adobe Illustrator 15.1.0, SVG Export Plug-In . SVG Version: 6.00 Build 0)  -->
<!DOCTYPE svg PUBLIC "-//W3C//DTD SVG 1.1//EN" "http://www.w3.org/Graphics/SVG/1.1/DTD/svg11.dtd">
<svg version="1.1" id="Warstwa_1" xmlns="http://www.w3.org/2000/svg" xmlns:xlink="http://www.w3.org/1999/xlink" x="0px" y="0px"
	 width="270px" height="75px" viewBox="0 0 270 75" enable-background="new 0 0 270 75" xml:space="preserve">
<g>
	<g>
		<defs>
			<rect id="SVGID_1_" x="0.5" y="1" width="268.742" height="73.705"/>
		</defs>
		<clipPath id="SVGID_2_">
			<use xlink:href="#SVGID_1_"  overflow="visible"/>
		</clipPath>
		<path clip-path="url(#SVGID_2_)" fill="#0062A7" d="M228.955,27.563h4.463l0.07,1.859c0.408-0.513,2.096-2.419,5.123-2.419
			c4.903,0,7.578,3.028,7.578,8.311v12.31h-4.631v-12.16c0-2.716-1.66-4.278-3.991-4.278c-2.313,0-3.981,1.563-3.981,4.278v12.16
			h-4.631V27.563z M189.872,47.624h-4.638V18.47h4.638V47.624z M199.774,47.624h-4.636V27.563h4.636V47.624z M197.451,17.988
			c-1.604,0-2.9,1.301-2.9,2.908c0,1.594,1.297,2.901,2.9,2.901s2.909-1.308,2.909-2.901
			C200.36,19.289,199.055,17.988,197.451,17.988 M175.395,27.563h4.582v20.061h-4.582l-0.073-2.104
			c-0.843,0.86-3.085,2.668-6.216,2.668c-5.465,0-9.52-4.401-9.52-10.594c0-6.552,4.387-10.59,9.52-10.59
			c3.596,0,5.616,1.95,6.216,2.672L175.395,27.563z M164.322,37.594c0,3.846,2.361,6.415,5.64,6.415
			c2.974,0,5.644-2.167,5.644-6.415c0-4.125-2.561-6.415-5.644-6.415C166.548,31.179,164.322,33.901,164.322,37.594 M219.318,37.594
			c0-4.186-2.639-6.415-5.635-6.415c-3.585,0-5.65,2.919-5.65,6.415c0,3.692,2.223,6.415,5.647,6.415
			C216.825,44.009,219.318,41.666,219.318,37.594 M223.683,45.638c0,8.604-5.036,11.461-10.964,11.461
			c-3.953,0-6.338-1.192-7.178-1.587l1.152-3.989c0.521,0.276,2.688,1.559,5.987,1.559c3.452,0,6.377-2.212,6.377-6.191v-1.388
			c-0.374,0.395-2.333,2.686-6.267,2.686c-5.403,0-9.485-4.347-9.485-10.594c0-5.988,3.841-10.59,9.501-10.59
			c3.861,0,5.819,2.192,6.223,2.672l0.06-2.112h4.594V45.638z"/>
		<path clip-path="url(#SVGID_2_)" fill="#009FE3" d="M117.559,27.563l5.192,12.065l5.166-12.065h5.143l-10.355,21.438
			l-10.267-21.438H117.559z M143.508,43.013c1.126,0.706,3.341,1.507,5.18,1.507c2.252,0,3.33-0.965,3.33-2.301
			c0-1.377-0.83-2.125-3.338-3.041c-3.963-1.34-5.535-3.412-5.535-5.832c0-3.587,2.822-6.342,7.547-6.342
			c2.255,0,4.218,0.535,5.424,1.206l-1.033,3.591c-0.852-0.503-2.521-1.168-4.309-1.168c-1.839,0-2.928,0.916-2.928,2.168
			c0,1.293,0.967,1.965,3.557,2.922c3.713,1.295,5.326,3.144,5.371,6.146c0,3.709-2.744,6.318-8.129,6.318
			c-2.462,0-4.678-0.585-6.188-1.42L143.508,43.013z M88.986,47.624h-4.634V27.563h4.634V47.624z M86.674,17.988
			c-1.61,0-2.909,1.301-2.909,2.904c0,1.598,1.299,2.905,2.909,2.905c1.603,0,2.9-1.308,2.9-2.905
			C89.574,19.289,88.277,17.988,86.674,17.988 M139.352,47.624h-4.63V27.563h4.63V47.624z M137.039,17.988
			c-1.61,0-2.911,1.301-2.911,2.904c0,1.598,1.301,2.905,2.911,2.905c1.6,0,2.9-1.308,2.9-2.905
			C139.939,19.289,138.639,17.988,137.039,17.988 M94.245,27.563h4.468l0.077,1.859c0.403-0.513,2-2.419,5.179-2.419
			c4.482,0,7.517,3.028,7.517,8.314v12.306h-4.634V35.531c0-2.573-1.669-4.343-3.989-4.343c-2.306,0-3.977,1.738-3.977,4.343v12.093
			h-4.641V27.563z"/>
		<path clip-path="url(#SVGID_2_)" fill="#0062A7" d="M253.766,26.218c1.656,0,3.057,1.325,3.057,3.065c0,1.745-1.4,3.06-3.057,3.06
			c-1.67,0-3.063-1.314-3.063-3.06C250.703,27.543,252.096,26.218,253.766,26.218 M253.766,31.892c1.396,0,2.51-1.13,2.51-2.608
			s-1.113-2.618-2.51-2.618c-1.411,0-2.521,1.14-2.521,2.618S252.354,31.892,253.766,31.892 M252.592,27.49h1.354
			c0.844,0,1.246,0.332,1.246,1.023c0,0.645-0.408,0.917-0.943,0.973l1.025,1.573h-0.582l-0.967-1.531h-0.59v1.531h-0.543V27.49z
			 M253.135,29.084h0.561c0.487,0,0.957-0.027,0.957-0.601c0-0.493-0.426-0.55-0.798-0.55h-0.72V29.084z"/>
	</g>
	<g>
		<defs>
			<rect id="SVGID_3_" x="0.5" y="1" width="268.742" height="73.705"/>
		</defs>
		<clipPath id="SVGID_4_">
			<use xlink:href="#SVGID_3_"  overflow="visible"/>
		</clipPath>
		<path clip-path="url(#SVGID_4_)" fill="#0062A7" d="M71.698,37.594c-3.307-1.86-6.499-2.985-9.284-3.514
			c0.201,1.141,0.308,2.314,0.308,3.514s-0.108,2.37-0.308,3.514C65.199,40.579,68.391,39.454,71.698,37.594"/>
		<path clip-path="url(#SVGID_4_)" fill="#0062A7" d="M59.12,26.123c1.596-2.347,3.055-5.398,4.08-9.052
			c-3.655,1.021-6.708,2.482-9.053,4.08C56.082,22.505,57.764,24.189,59.12,26.123"/>
		<path clip-path="url(#SVGID_4_)" fill="#0062A7" d="M39.162,17.854c1.144-0.202,2.314-0.308,3.514-0.308s2.374,0.105,3.517,0.308
			c-0.528-2.786-1.655-5.975-3.515-9.286C40.815,11.876,39.691,15.068,39.162,17.854"/>
		<path clip-path="url(#SVGID_4_)" fill="#0062A7" d="M26.235,26.12c1.353-1.934,3.039-3.619,4.972-4.972
			c-2.343-1.595-5.396-3.057-9.052-4.08C23.178,20.725,24.637,23.776,26.235,26.12"/>
		<path clip-path="url(#SVGID_4_)" fill="#0062A7" d="M13.652,37.59c3.311,1.861,6.5,2.986,9.286,3.515
			c-0.203-1.141-0.306-2.314-0.306-3.511c0-1.202,0.103-2.378,0.308-3.517C20.152,34.605,16.963,35.73,13.652,37.59"/>
		<path clip-path="url(#SVGID_4_)" fill="#0062A7" d="M26.235,49.062c-1.599,2.342-3.059,5.397-4.08,9.051
			c3.653-1.024,6.706-2.481,9.049-4.079C29.27,52.68,27.584,50.995,26.235,49.062"/>
		<path clip-path="url(#SVGID_4_)" fill="#0062A7" d="M39.159,57.33c0.529,2.785,1.655,5.974,3.515,9.284
			c1.86-3.311,2.988-6.499,3.514-9.284c-1.14,0.202-2.314,0.308-3.512,0.308C41.476,57.638,40.3,57.532,39.159,57.33"/>
		<path clip-path="url(#SVGID_4_)" fill="#0062A7" d="M54.145,54.033c2.346,1.601,5.397,3.059,9.053,4.083
			c-1.024-3.657-2.484-6.71-4.082-9.052C57.763,50.998,56.078,52.68,54.145,54.033"/>
		<path clip-path="url(#SVGID_4_)" fill="#007AC2" d="M62.414,34.08c-1.298-0.248-2.51-0.363-3.606-0.363
			c-1.316,0-2.57,0.15-3.748,0.43c0.304,1.099,0.467,2.251,0.467,3.447c0,1.191-0.165,2.35-0.467,3.447
			c1.178,0.276,2.431,0.431,3.748,0.431c1.096,0,2.306-0.116,3.606-0.364c0.2-1.144,0.308-2.314,0.308-3.514
			S62.615,35.221,62.414,34.08"/>
		<path clip-path="url(#SVGID_4_)" fill="#007AC2" d="M53.87,31.273c1.032-0.637,2.028-1.416,2.958-2.347
			c0.773-0.772,1.547-1.713,2.292-2.804c-1.355-1.934-3.038-3.618-4.974-4.972c-1.091,0.745-2.029,1.518-2.804,2.29
			c-0.93,0.931-1.71,1.927-2.346,2.957C51.029,27.553,52.718,29.242,53.87,31.273"/>
		<path clip-path="url(#SVGID_4_)" fill="#007AC2" d="M42.675,17.547c-1.199,0-2.372,0.105-3.514,0.308
			c-0.245,1.298-0.363,2.507-0.363,3.604c0,1.315,0.152,2.57,0.433,3.748c1.096-0.304,2.25-0.468,3.444-0.468
			s2.352,0.164,3.449,0.468c0.28-1.178,0.43-2.433,0.43-3.748c0-1.098-0.115-2.307-0.362-3.604
			C45.049,17.652,43.875,17.547,42.675,17.547"/>
		<path clip-path="url(#SVGID_4_)" fill="#007AC2" d="M31.207,21.148c-1.933,1.353-3.619,3.038-4.972,4.972
			c0.747,1.091,1.517,2.03,2.29,2.804c0.932,0.934,1.93,1.709,2.959,2.345c1.15-2.03,2.839-3.719,4.875-4.873
			c-0.637-1.03-1.418-2.023-2.35-2.954C33.236,22.669,32.299,21.893,31.207,21.148"/>
		<path clip-path="url(#SVGID_4_)" fill="#007AC2" d="M30.292,41.034c-0.304-1.095-0.467-2.249-0.467-3.44
			c0-1.196,0.163-2.354,0.468-3.45c-1.182-0.28-2.437-0.431-3.753-0.431c-1.094,0-2.304,0.119-3.601,0.364
			c-0.205,1.139-0.308,2.314-0.308,3.517c0,1.196,0.103,2.37,0.306,3.514c1.299,0.245,2.508,0.364,3.603,0.364
			C27.857,41.472,29.112,41.313,30.292,41.034"/>
		<path clip-path="url(#SVGID_4_)" fill="#007AC2" d="M31.483,43.911c-1.036,0.634-2.026,1.416-2.959,2.347
			c-0.773,0.771-1.547,1.713-2.289,2.804c1.35,1.934,3.035,3.618,4.968,4.972c1.093-0.742,2.031-1.519,2.804-2.29
			c0.934-0.934,1.713-1.93,2.349-2.962C34.32,47.635,32.633,45.942,31.483,43.911"/>
		<path clip-path="url(#SVGID_4_)" fill="#007AC2" d="M42.675,50.442c-1.196,0-2.35-0.165-3.449-0.469
			c-0.28,1.182-0.43,2.437-0.43,3.752c0,1.094,0.117,2.304,0.362,3.604c1.141,0.202,2.317,0.308,3.517,0.308
			c1.197,0,2.372-0.105,3.513-0.308c0.247-1.298,0.364-2.511,0.364-3.604c0-1.315-0.154-2.57-0.432-3.749
			C45.024,50.277,43.868,50.442,42.675,50.442"/>
		<path clip-path="url(#SVGID_4_)" fill="#007AC2" d="M53.867,43.911c-1.152,2.034-2.841,3.724-4.874,4.873
			c0.638,1.032,1.418,2.025,2.348,2.962c0.773,0.772,1.713,1.545,2.804,2.287c1.933-1.354,3.618-3.035,4.971-4.969
			c-0.743-1.091-1.518-2.031-2.29-2.804C55.893,45.327,54.9,44.548,53.867,43.911"/>
		<path clip-path="url(#SVGID_4_)" fill="#009FE3" d="M55.061,34.146c-2.598,0.615-4.835,1.85-6.592,3.447
			c1.757,1.595,3.994,2.828,6.592,3.443c0.302-1.094,0.467-2.252,0.467-3.443C55.527,36.397,55.363,35.245,55.061,34.146"/>
		<path clip-path="url(#SVGID_4_)" fill="#009FE3" d="M48.997,26.398c-1.4,2.273-2.108,4.728-2.222,7.098
			c2.37-0.112,4.823-0.821,7.095-2.223C52.718,29.242,51.029,27.553,48.997,26.398"/>
		<path clip-path="url(#SVGID_4_)" fill="#009FE3" d="M39.231,25.207c0.614,2.598,1.85,4.836,3.447,6.594
			c1.596-1.758,2.83-3.996,3.445-6.594c-1.097-0.304-2.255-0.468-3.449-0.468S40.328,24.903,39.231,25.207"/>
		<path clip-path="url(#SVGID_4_)" fill="#009FE3" d="M31.484,31.269c2.271,1.402,4.725,2.112,7.097,2.224
			c-0.112-2.369-0.822-4.824-2.222-7.094C34.323,27.55,32.634,29.238,31.484,31.269"/>
		<path clip-path="url(#SVGID_4_)" fill="#009FE3" d="M30.293,34.144c-0.305,1.097-0.47,2.254-0.47,3.45
			c0,1.191,0.165,2.346,0.468,3.443c2.596-0.618,4.833-1.853,6.59-3.447C35.125,35.992,32.888,34.759,30.293,34.144"/>
		<path clip-path="url(#SVGID_4_)" fill="#009FE3" d="M36.356,48.781c1.4-2.27,2.108-4.724,2.222-7.094
			c-2.372,0.111-4.824,0.821-7.095,2.224C32.633,45.942,34.32,47.635,36.356,48.781"/>
		<path clip-path="url(#SVGID_4_)" fill="#009FE3" d="M39.227,49.977c1.099,0.301,2.253,0.469,3.449,0.469
			c1.192,0,2.349-0.168,3.445-0.469c-0.617-2.597-1.851-4.835-3.449-6.59C41.076,45.142,39.844,47.38,39.227,49.977"/>
		<path clip-path="url(#SVGID_4_)" fill="#009FE3" d="M48.993,48.784c2.033-1.149,3.722-2.839,4.874-4.87
			c-2.271-1.401-4.726-2.11-7.096-2.223C46.885,44.058,47.594,46.512,48.993,48.784"/>
	</g>
</g>
</svg>
