<?xml version="1.0" encoding="utf-8"?>
<!-- Generator: Adobe Illustrator 15.1.0, SVG Export Plug-In . SVG Version: 6.00 Build 0)  -->
<!DOCTYPE svg PUBLIC "-//W3C//DTD SVG 1.1//EN" "http://www.w3.org/Graphics/SVG/1.1/DTD/svg11.dtd">
<svg version="1.1" id="Warstwa_1" xmlns="http://www.w3.org/2000/svg" xmlns:xlink="http://www.w3.org/1999/xlink" x="0px" y="0px"
	 width="170px" height="75px" viewBox="0 0 170 75" enable-background="new 0 0 170 75" xml:space="preserve">
<g>
	<defs>
		<rect id="SVGID_1_" x="32.704" y="4.529" width="111.792" height="65.942"/>
	</defs>
	<clipPath id="SVGID_2_">
		<use xlink:href="#SVGID_1_"  overflow="visible"/>
	</clipPath>
	<g clip-path="url(#SVGID_2_)">
		<defs>
			<rect id="SVGID_3_" x="32.704" y="4.529" width="111.792" height="65.942"/>
		</defs>
		<clipPath id="SVGID_4_">
			<use xlink:href="#SVGID_3_"  overflow="visible"/>
		</clipPath>
		<path clip-path="url(#SVGID_4_)" fill-rule="evenodd" clip-rule="evenodd" fill="#0B5FA5" d="M91.954,9.947v5.893h-0.137
			c-0.803-0.624-2.151-0.653-3.234-0.979c-2.616-0.79-7.02-1.821-9.97-0.568c-1.044,0.449-1.458,1.007-2.246,2.109
			c-0.2,1.871-0.163,2.724,1.546,4.212c1.224,1.072,3.034,1.756,5.056,2.808c4.711,2.446,11.423,5.905,11.653,11.23
			c0.157,3.617-0.864,5.078-1.967,6.595c-4.485,6.166-15.744,5.588-24.574,3.791v-6.176c1.077,0.16,2.175,0.598,3.229,0.98
			c3.866,1.422,11.36,2.555,13.759-0.98c0.454-0.658,0.85-1.46,0.705-3.232c-0.19-2.36-3.86-3.916-6.321-5.191
			c-4.248-2.208-9.737-4.488-11.235-9.403c-0.928-3.062,0.165-5.867,1.407-7.587c2.491-3.435,5.72-4.378,9.689-4.628
			C82.977,8.585,87.473,8.901,91.954,9.947 M36.905,9.666c4.483-0.036,11.859-0.03,16.423-0.009c4.304,0.019,7.32,1.676,8.711,3.655
			c0.659,0.935,1.173,2.149,1.407,3.368c0.469,2.455,0.06,5.366-0.703,7.163c-2.656,6.25-8.69,7.619-17.695,7.579V45.32h-8.144
			V9.666z M101.367,9.666h8.282V45.32h-8.282V9.666z M45.049,14.581v11.787c5.322,0.096,8.612-0.915,9.828-4.914
			c0.244-0.788,0.457-2.22,0.145-3.224c-0.157-0.499-0.532-1.254-0.844-1.688C52.695,14.493,48.615,14.511,45.049,14.581"/>
		<g opacity="0.24" clip-path="url(#SVGID_4_)">
			<g>
				<defs>
					<rect id="SVGID_5_" x="114.546" y="19.076" width="29.092" height="22.702"/>
				</defs>
				<clipPath id="SVGID_6_">
					<use xlink:href="#SVGID_5_"  overflow="visible"/>
				</clipPath>
				<g clip-path="url(#SVGID_6_)">
					<defs>
						<rect id="SVGID_7_" x="114.546" y="19.076" width="29.092" height="22.702"/>
					</defs>
					<clipPath id="SVGID_8_">
						<use xlink:href="#SVGID_7_"  overflow="visible"/>
					</clipPath>
					<g transform="matrix(1 0 0 1 -4.026697e-006 -2.761017e-007)" clip-path="url(#SVGID_8_)">
						
							<image overflow="visible" width="728" height="568" xlink:href="372A0FDF.png"  transform="matrix(0.04 0 0 0.04 114.5464 19.0757)">
						</image>
					</g>
				</g>
			</g>
		</g>
		<polygon clip-path="url(#SVGID_4_)" fill-rule="evenodd" clip-rule="evenodd" fill="#FFFFFF" points="134.416,33.771 
			134.553,33.5 135.811,33.5 136.092,33.771 136.375,33.91 136.791,33.91 137.215,33.771 137.354,33.5 137.072,33.358 
			136.791,32.813 136.791,32.533 136.791,31.037 136.932,30.618 137.072,30.35 137.354,30.075 137.354,29.804 137.215,29.525 
			136.932,29.252 136.932,28.98 136.092,28.431 135.391,27.886 135.254,27.336 134.973,27.064 134.553,26.927 134.277,26.927 
			134.416,26.515 134.695,26.104 134.553,25.828 133.996,25.283 133.156,24.599 132.877,24.188 132.176,24.188 131.339,24.325 
			130.359,24.464 129.239,24.464 128.397,24.599 127.839,24.464 127.701,24.325 127.558,24.188 127.978,24.188 128.26,24.188 
			128.397,24.188 128.536,24.325 128.536,24.051 128.121,23.915 127.701,23.915 127,23.915 126.302,24.051 125.459,24.325 
			124.762,24.599 124.06,24.87 123.505,25.012 122.801,25.146 122.104,25.418 121.268,25.557 120.702,25.691 120.702,25.965 
			120.563,26.515 120.563,27.064 120.284,27.202 120.005,27.336 119.868,27.475 120.284,27.886 120.423,28.018 120.423,28.294 
			120.284,28.294 120.284,28.567 120.423,28.707 120.423,28.98 120.423,29.252 120.145,29.525 120.145,29.936 120.145,30.21 
			120.563,30.21 120.563,30.618 120.563,31.037 120.284,31.441 120.145,31.715 120.284,31.853 120.423,31.715 120.702,31.715 
			121.128,31.715 121.822,31.853 122.382,31.99 123.361,32.129 123.641,32.129 123.641,32.402 123.361,32.533 123.222,32.674 
			123.222,32.948 123.505,33.221 123.923,33.5 124.205,33.632 124.482,33.358 124.762,33.086 124.902,32.813 124.618,32.674 
			124.762,32.533 125.041,32.533 125.459,32.674 125.879,32.813 126.302,33.086 126.443,33.358 126.58,33.632 126.86,33.771 
			126.86,33.632 127.139,33.5 127.558,33.5 128.121,33.5 128.536,33.632 128.672,33.91 129.097,34.179 129.239,34.453 
			129.239,34.59 129.517,34.724 129.801,34.724 130.08,34.724 130.08,34.453 130.359,34.179 130.635,34.179 130.917,34.179 
			131.197,34.453 131.476,34.724 131.476,34.863 131.618,35.002 131.897,35.002 132.176,34.863 132.315,34.59 132.596,34.179 
			132.736,34.04 133.293,34.179 133.573,34.179 133.996,34.04 134.277,33.91 		"/>
	</g>
	<g clip-path="url(#SVGID_2_)">
		<defs>
			<path id="SVGID_9_" d="M134.973,27.06l-1.023,0.107l-1.051,0.352h-0.929l-1.888,0.327h-0.888l-0.585,0.208h-1.516l-0.677,0.287
				l-1.093,0.102l-0.441,0.188l-0.377-0.106h-0.76l-2.4,0.5h-0.461l-0.422,0.145l-1.322,0.401l0.104,4.643
				c0,0,4.377,1.683,4.458,1.683c0.089,0,6.311,1.031,6.311,1.031l9.425-0.145l0.633-4.529l-2.986-5.335L134.973,27.06z"/>
		</defs>
		<clipPath id="SVGID_10_">
			<use xlink:href="#SVGID_9_"  overflow="visible"/>
		</clipPath>
		<polygon clip-path="url(#SVGID_10_)" fill-rule="evenodd" clip-rule="evenodd" fill="#EC1C24" points="134.416,33.763 
			134.553,33.49 135.814,33.49 136.092,33.763 136.375,33.902 136.791,33.902 137.215,33.763 137.354,33.49 137.072,33.35 
			136.791,32.806 136.791,32.533 136.791,31.026 136.932,30.615 137.072,30.342 137.354,30.068 137.354,29.797 137.215,29.518 
			136.932,29.249 136.932,28.971 136.092,28.426 135.395,27.879 135.254,27.329 134.973,27.055 134.553,26.92 134.277,26.92 
			134.416,26.51 134.695,26.097 134.553,25.823 133.996,25.276 133.156,24.597 132.877,24.186 132.179,24.186 131.339,24.318 
			130.359,24.457 129.239,24.457 128.397,24.597 127.839,24.457 127.701,24.318 127.558,24.186 127.978,24.186 128.26,24.186 
			128.397,24.186 128.536,24.318 128.536,24.045 128.121,23.912 127.701,23.912 127,23.912 126.302,24.045 125.459,24.318 
			124.762,24.597 124.06,24.865 123.505,25.004 122.801,25.139 122.104,25.409 121.268,25.552 120.702,25.688 120.702,25.962 
			120.563,26.51 120.563,27.055 120.284,27.191 120.005,27.329 119.868,27.467 120.284,27.879 120.423,28.018 120.423,28.287 
			120.284,28.287 120.284,28.565 120.423,28.7 120.423,28.971 120.423,29.249 120.15,29.518 120.15,29.929 120.15,30.202 
			120.563,30.202 120.563,30.615 120.563,31.026 120.284,31.439 120.15,31.708 120.284,31.847 120.423,31.708 120.702,31.708 
			121.128,31.708 121.822,31.847 122.385,31.986 123.366,32.122 123.641,32.122 123.641,32.395 123.366,32.533 123.222,32.671 
			123.222,32.945 123.505,33.215 123.923,33.49 124.205,33.624 124.482,33.35 124.762,33.076 124.902,32.806 124.625,32.671 
			124.762,32.533 125.044,32.533 125.459,32.671 125.879,32.806 126.302,33.076 126.443,33.35 126.58,33.624 126.86,33.763 
			126.86,33.624 127.139,33.49 127.558,33.49 128.121,33.49 128.536,33.624 128.68,33.902 129.099,34.171 129.239,34.447 
			129.239,34.584 129.517,34.724 129.801,34.724 130.08,34.724 130.08,34.447 130.359,34.171 130.635,34.171 130.917,34.171 
			131.2,34.447 131.476,34.724 131.476,34.861 131.618,34.995 131.897,34.995 132.179,34.861 132.315,34.584 132.596,34.171 
			132.736,34.037 133.293,34.171 133.573,34.171 133.996,34.037 134.277,33.902 		"/>
	</g>
	<g clip-path="url(#SVGID_2_)">
		<defs>
			<rect id="SVGID_11_" x="32.704" y="4.529" width="111.792" height="65.942"/>
		</defs>
		<clipPath id="SVGID_12_">
			<use xlink:href="#SVGID_11_"  overflow="visible"/>
		</clipPath>
		<path clip-path="url(#SVGID_12_)" fill="#0B5FA5" d="M37.129,56.383V50.23h2.192c0.639,0,1.085,0.068,1.341,0.195
			c0.261,0.129,0.456,0.311,0.591,0.545c0.129,0.234,0.195,0.531,0.195,0.895c0,0.684-0.224,1.207-0.672,1.566
			c-0.451,0.361-1.052,0.545-1.807,0.545h-0.54v2.406H37.129z M38.429,53.129h0.246c0.489,0,0.852-0.111,1.077-0.338
			c0.228-0.225,0.344-0.488,0.344-0.795c0-0.174-0.035-0.332-0.111-0.467c-0.071-0.141-0.181-0.252-0.33-0.33
			c-0.154-0.082-0.396-0.121-0.73-0.121h-0.497V53.129z"/>
		<path clip-path="url(#SVGID_12_)" fill="#0B5FA5" d="M44.56,56.49c-0.515,0-0.951-0.096-1.32-0.289
			c-0.365-0.191-0.641-0.477-0.833-0.852c-0.196-0.373-0.292-0.791-0.292-1.25c0-0.451,0.096-0.869,0.287-1.238
			c0.192-0.373,0.466-0.66,0.836-0.85c0.37-0.197,0.808-0.297,1.323-0.297c0.52,0,0.956,0.1,1.323,0.297
			c0.365,0.189,0.646,0.477,0.836,0.85c0.19,0.369,0.286,0.787,0.286,1.238c0,0.459-0.096,0.877-0.292,1.25
			c-0.188,0.375-0.469,0.66-0.839,0.852C45.512,56.395,45.069,56.49,44.56,56.49 M44.56,55.725c0.362,0,0.628-0.156,0.813-0.465
			c0.183-0.305,0.276-0.693,0.276-1.16c0-0.457-0.094-0.846-0.276-1.152c-0.185-0.309-0.451-0.465-0.813-0.465
			c-0.363,0-0.631,0.156-0.813,0.465c-0.18,0.307-0.271,0.695-0.271,1.152c0,0.467,0.091,0.855,0.271,1.16
			C43.929,55.568,44.197,55.725,44.56,55.725"/>
		<rect x="48.171" y="49.822" clip-path="url(#SVGID_12_)" fill="#0B5FA5" width="1.278" height="6.561"/>
		<path clip-path="url(#SVGID_12_)" fill="#0B5FA5" d="M50.914,56.238v-0.9c0.634,0.256,1.173,0.387,1.625,0.387
			c0.238,0,0.426-0.051,0.565-0.148c0.144-0.098,0.215-0.223,0.215-0.371c0-0.131-0.051-0.238-0.159-0.33
			c-0.104-0.082-0.266-0.166-0.484-0.256l-0.431-0.162c-0.446-0.172-0.778-0.365-0.983-0.574c-0.218-0.203-0.324-0.469-0.324-0.797
			c0-0.395,0.162-0.727,0.481-0.982c0.319-0.26,0.811-0.389,1.464-0.389c0.385,0,0.842,0.055,1.374,0.168v0.861
			c-0.506-0.17-0.928-0.262-1.267-0.262c-0.264,0-0.464,0.045-0.596,0.133c-0.131,0.086-0.2,0.199-0.2,0.34
			c0,0.109,0.048,0.205,0.132,0.289c0.082,0.08,0.233,0.162,0.456,0.244l0.37,0.135c0.611,0.229,1.011,0.441,1.204,0.652
			c0.188,0.211,0.276,0.469,0.276,0.766c0,0.387-0.165,0.727-0.512,1.014c-0.347,0.289-0.841,0.436-1.498,0.436
			C52.064,56.49,51.499,56.406,50.914,56.238"/>
		<polygon clip-path="url(#SVGID_12_)" fill="#0B5FA5" points="56.031,56.383 56.031,49.822 57.308,49.822 57.308,53.951 
			57.387,53.951 59.069,51.82 60.136,51.82 58.575,53.775 60.61,56.383 59.064,56.383 57.387,54.1 57.308,54.1 57.308,56.383 		"/>
		<path clip-path="url(#SVGID_12_)" fill="#0B5FA5" d="M61.614,50.025h1.272v1.023h-1.272V50.025z M61.614,51.82h1.272v4.563h-1.272
			V51.82z"/>
		<path clip-path="url(#SVGID_12_)" fill="#0B5FA5" d="M68.313,56.234c-0.605,0.168-1.176,0.256-1.715,0.256
			c-0.507,0-0.958-0.094-1.341-0.273c-0.385-0.189-0.679-0.479-0.884-0.867c-0.208-0.395-0.314-0.82-0.314-1.277
			c0-0.428,0.088-0.824,0.266-1.186c0.174-0.361,0.43-0.65,0.762-0.857c0.337-0.209,0.753-0.314,1.242-0.314
			c0.606,0,1.082,0.188,1.442,0.557c0.36,0.375,0.542,1.068,0.542,2.08h-2.912c0.03,0.309,0.101,0.547,0.218,0.725
			c0.114,0.178,0.271,0.316,0.463,0.42c0.2,0.107,0.464,0.158,0.791,0.158c0.426,0,0.908-0.096,1.44-0.287V56.234z M65.38,53.656
			h1.675c0-0.426-0.076-0.719-0.213-0.902c-0.142-0.18-0.327-0.271-0.555-0.271c-0.251,0-0.449,0.102-0.611,0.301
			C65.52,52.98,65.418,53.271,65.38,53.656"/>
		<path clip-path="url(#SVGID_12_)" fill="#0B5FA5" d="M72.109,56.332v-1.057c0.497,0.203,0.87,0.324,1.118,0.361
			c0.244,0.037,0.469,0.059,0.677,0.059c0.375,0,0.651-0.082,0.836-0.242c0.18-0.16,0.271-0.352,0.271-0.58
			c0-0.17-0.051-0.324-0.15-0.465c-0.104-0.135-0.354-0.311-0.755-0.527l-0.434-0.232c-0.611-0.326-1.026-0.631-1.242-0.91
			c-0.223-0.283-0.335-0.609-0.335-0.973c0-0.467,0.183-0.861,0.55-1.193c0.368-0.332,0.895-0.494,1.582-0.494
			c0.512,0,1.092,0.07,1.739,0.213v0.984c-0.659-0.234-1.181-0.354-1.574-0.354c-0.319,0-0.563,0.066-0.73,0.201
			c-0.167,0.137-0.251,0.297-0.251,0.486c0,0.141,0.048,0.281,0.152,0.402c0.102,0.123,0.347,0.295,0.748,0.514l0.458,0.246
			c0.708,0.379,1.156,0.711,1.351,0.992c0.19,0.275,0.287,0.59,0.287,0.945c0,0.506-0.198,0.938-0.593,1.291
			c-0.401,0.357-1.039,0.539-1.906,0.539C73.394,56.539,72.796,56.473,72.109,56.332"/>
		<path clip-path="url(#SVGID_12_)" fill="#0B5FA5" d="M79.945,56.357c-0.307,0.09-0.547,0.133-0.719,0.133
			c-0.416,0-0.74-0.059-0.971-0.172c-0.228-0.115-0.398-0.27-0.517-0.461c-0.114-0.199-0.173-0.484-0.173-0.861v-2.404h-0.529V51.82
			h0.529v-0.771l1.277-0.143v0.914h1.011v0.771h-1.011v2.236c0,0.326,0.059,0.547,0.181,0.664c0.118,0.113,0.296,0.172,0.529,0.172
			c0.109,0,0.238-0.016,0.393-0.045V56.357z"/>
		<path clip-path="url(#SVGID_12_)" fill="#0B5FA5" d="M83.101,56.49c-0.509,0-0.948-0.096-1.315-0.289
			c-0.362-0.191-0.644-0.477-0.839-0.852c-0.19-0.373-0.286-0.791-0.286-1.25c0-0.451,0.094-0.869,0.286-1.238
			c0.188-0.373,0.464-0.66,0.831-0.85c0.368-0.197,0.809-0.297,1.323-0.297c0.522,0,0.963,0.1,1.321,0.297
			c0.37,0.189,0.648,0.477,0.838,0.85c0.193,0.369,0.289,0.787,0.289,1.238c0,0.459-0.096,0.877-0.289,1.25
			c-0.193,0.375-0.471,0.66-0.838,0.852C84.057,56.395,83.624,56.49,83.101,56.49 M83.101,55.725c0.365,0,0.631-0.156,0.821-0.465
			c0.18-0.305,0.271-0.693,0.271-1.16c0-0.457-0.091-0.846-0.271-1.152c-0.19-0.309-0.457-0.465-0.821-0.465
			c-0.357,0-0.628,0.156-0.811,0.465c-0.18,0.307-0.276,0.695-0.276,1.152c0,0.467,0.096,0.855,0.276,1.16
			C82.473,55.568,82.744,55.725,83.101,55.725"/>
		<polygon clip-path="url(#SVGID_12_)" fill="#0B5FA5" points="87.559,56.383 86.238,51.82 87.425,51.82 88.355,55.02 89.346,51.82 
			90.449,51.82 91.34,55.039 92.345,51.82 93.234,51.82 91.83,56.383 90.603,56.383 89.746,53.254 88.778,56.383 		"/>
		<path clip-path="url(#SVGID_12_)" fill="#0B5FA5" d="M96.645,55.895c-0.185,0.172-0.342,0.291-0.479,0.369
			c-0.134,0.078-0.272,0.133-0.42,0.168c-0.147,0.041-0.302,0.059-0.464,0.059c-0.421,0-0.763-0.129-1.017-0.383
			c-0.256-0.25-0.383-0.561-0.383-0.934c0-0.451,0.19-0.822,0.573-1.121c0.38-0.301,0.998-0.455,1.848-0.455h0.342v-0.412
			c0-0.281-0.079-0.469-0.241-0.57c-0.161-0.09-0.361-0.143-0.607-0.143c-0.492,0-0.991,0.133-1.498,0.406v-0.85
			c0.575-0.207,1.147-0.314,1.723-0.314c0.349,0,0.662,0.043,0.938,0.135c0.276,0.096,0.499,0.238,0.666,0.428
			c0.163,0.195,0.241,0.482,0.241,0.865v2.02c0,0.248,0.04,0.396,0.119,0.457c0.084,0.055,0.16,0.082,0.236,0.082
			c0.048,0,0.106-0.006,0.169-0.02l0.036,0.689c-0.274,0.078-0.512,0.119-0.723,0.119c-0.236,0-0.438-0.041-0.61-0.113
			c-0.173-0.076-0.299-0.236-0.396-0.482H96.645z M96.645,55.236v-0.928h-0.299c-0.418,0-0.728,0.07-0.933,0.213
			c-0.205,0.141-0.307,0.318-0.307,0.533c0,0.18,0.061,0.318,0.188,0.432c0.119,0.113,0.269,0.168,0.433,0.168
			c0.15,0,0.3-0.035,0.457-0.105C96.336,55.479,96.491,55.373,96.645,55.236"/>
		<path clip-path="url(#SVGID_12_)" fill="#0B5FA5" d="M99.516,56.383V51.82h1.275v0.861c0.149-0.297,0.357-0.527,0.623-0.703
			c0.267-0.174,0.556-0.264,0.885-0.264c0.071,0,0.152,0.012,0.233,0.025v1.096c-0.177-0.059-0.345-0.092-0.502-0.092
			c-0.254,0-0.481,0.064-0.688,0.186c-0.209,0.121-0.392,0.307-0.551,0.559v2.895H99.516z"/>
		<polygon clip-path="url(#SVGID_12_)" fill="#0B5FA5" points="103.257,56.383 103.257,55.568 105.969,52.592 103.379,52.592 
			103.379,51.82 107.498,51.82 107.498,52.592 104.786,55.568 107.551,55.568 107.551,56.383 		"/>
		<polygon clip-path="url(#SVGID_12_)" fill="#0B5FA5" points="108.755,58.031 109.829,56.383 108.075,51.82 109.447,51.82 
			110.618,54.873 112.008,51.82 112.977,51.82 110.058,58.031 		"/>
		<path clip-path="url(#SVGID_12_)" fill="#0B5FA5" d="M113.753,56.238v-0.9c0.636,0.256,1.173,0.387,1.621,0.387
			c0.238,0,0.432-0.051,0.57-0.148c0.143-0.098,0.213-0.223,0.213-0.371c0-0.131-0.056-0.238-0.162-0.33
			c-0.102-0.082-0.261-0.166-0.484-0.256l-0.431-0.162c-0.446-0.172-0.771-0.365-0.986-0.574c-0.212-0.203-0.316-0.469-0.316-0.797
			c0-0.395,0.16-0.727,0.479-0.982c0.322-0.26,0.809-0.389,1.465-0.389c0.386,0,0.845,0.055,1.377,0.168v0.861
			c-0.509-0.17-0.935-0.262-1.27-0.262c-0.267,0-0.466,0.045-0.593,0.133c-0.132,0.086-0.203,0.199-0.203,0.34
			c0,0.109,0.046,0.205,0.129,0.289c0.087,0.08,0.235,0.162,0.459,0.244l0.37,0.135c0.61,0.229,1.014,0.441,1.201,0.652
			c0.189,0.211,0.276,0.469,0.276,0.766c0,0.387-0.167,0.727-0.51,1.014c-0.344,0.289-0.839,0.436-1.497,0.436
			C114.904,56.49,114.333,56.406,113.753,56.238"/>
		<polygon clip-path="url(#SVGID_12_)" fill="#0B5FA5" points="118.604,56.383 118.604,55.568 121.311,52.592 118.723,52.592 
			118.723,51.82 122.844,51.82 122.844,52.592 120.129,55.568 122.894,55.568 122.894,56.383 		"/>
		<path clip-path="url(#SVGID_12_)" fill="#0B5FA5" d="M127.911,56.234c-0.601,0.168-1.174,0.256-1.716,0.256
			c-0.507,0-0.957-0.094-1.338-0.273c-0.383-0.189-0.684-0.479-0.888-0.867c-0.208-0.395-0.31-0.82-0.31-1.277
			c0-0.428,0.087-0.824,0.264-1.186c0.173-0.361,0.431-0.65,0.766-0.857c0.335-0.209,0.747-0.314,1.239-0.314
			c0.601,0,1.085,0.188,1.442,0.557c0.356,0.375,0.54,1.068,0.54,2.08h-2.909c0.026,0.309,0.101,0.547,0.22,0.725
			c0.112,0.178,0.27,0.316,0.462,0.42c0.196,0.107,0.466,0.158,0.796,0.158c0.419,0,0.901-0.096,1.432-0.287V56.234z M124.98,53.656
			h1.676c0-0.426-0.07-0.719-0.213-0.902c-0.145-0.18-0.332-0.271-0.557-0.271c-0.246,0-0.45,0.102-0.607,0.301
			C125.12,52.98,125.019,53.271,124.98,53.656"/>
		<path clip-path="url(#SVGID_12_)" fill="#0B5FA5" d="M129.25,56.383V51.82h1.272v0.861c0.231-0.354,0.486-0.604,0.766-0.746
			c0.273-0.146,0.56-0.221,0.846-0.221c0.373,0,0.695,0.117,0.965,0.35c0.268,0.232,0.408,0.594,0.408,1.096v3.223h-1.278v-2.918
			c0-0.254-0.028-0.422-0.074-0.51c-0.048-0.086-0.113-0.158-0.197-0.201c-0.078-0.045-0.167-0.07-0.269-0.07
			c-0.174,0-0.36,0.059-0.548,0.17c-0.192,0.113-0.393,0.332-0.618,0.658v2.871H129.25z"/>
		<path clip-path="url(#SVGID_12_)" fill="#0B5FA5" d="M135.045,50.025h1.273v1.023h-1.273V50.025z M135.045,51.82h1.273v4.563
			h-1.273V51.82z"/>
		<path clip-path="url(#SVGID_12_)" fill="#0B5FA5" d="M141.738,56.234c-0.598,0.168-1.168,0.256-1.711,0.256
			c-0.51,0-0.961-0.094-1.338-0.273c-0.387-0.189-0.684-0.479-0.891-0.867c-0.207-0.395-0.311-0.82-0.311-1.277
			c0-0.428,0.092-0.824,0.266-1.186c0.176-0.361,0.43-0.65,0.766-0.857c0.338-0.209,0.75-0.314,1.242-0.314
			c0.6,0,1.084,0.188,1.439,0.557c0.357,0.375,0.537,1.068,0.537,2.08h-2.902c0.027,0.309,0.1,0.547,0.215,0.725
			s0.268,0.316,0.467,0.42c0.193,0.107,0.457,0.158,0.791,0.158c0.424,0,0.9-0.096,1.43-0.287V56.234z M138.814,53.656h1.674
			c0-0.426-0.07-0.719-0.215-0.902c-0.145-0.18-0.33-0.271-0.559-0.271c-0.242,0-0.445,0.102-0.604,0.301
			C138.947,52.98,138.852,53.271,138.814,53.656"/>
		<rect x="50.883" y="60.449" clip-path="url(#SVGID_12_)" fill="#0B5FA5" width="1.326" height="6.156"/>
		<path clip-path="url(#SVGID_12_)" fill="#0B5FA5" d="M53.805,66.605v-4.564h1.224v0.855c0.16-0.275,0.373-0.504,0.631-0.686
			c0.264-0.18,0.583-0.273,0.963-0.273c0.231,0,0.428,0.033,0.601,0.098c0.167,0.07,0.317,0.176,0.449,0.322
			c0.129,0.148,0.213,0.324,0.253,0.539c0.233-0.338,0.469-0.582,0.709-0.734c0.246-0.148,0.545-0.225,0.892-0.225
			c0.38,0,0.692,0.105,0.933,0.324c0.238,0.217,0.357,0.57,0.357,1.053v3.291h-1.225v-2.887c0-0.34-0.053-0.563-0.167-0.666
			c-0.114-0.096-0.241-0.15-0.383-0.15c-0.187,0-0.376,0.068-0.565,0.203c-0.189,0.135-0.375,0.334-0.552,0.598v2.902H56.7v-2.885
			c0-0.336-0.056-0.563-0.163-0.662c-0.114-0.102-0.248-0.156-0.395-0.156c-0.19,0-0.375,0.068-0.563,0.201
			c-0.185,0.131-0.373,0.328-0.55,0.6v2.902H53.805z"/>
		<path clip-path="url(#SVGID_12_)" fill="#0B5FA5" d="M62.362,68.246v-6.205h1.272v0.861c0.165-0.322,0.373-0.563,0.626-0.723
			c0.256-0.166,0.555-0.242,0.902-0.242c0.575,0,1.019,0.207,1.333,0.623c0.309,0.412,0.471,0.961,0.471,1.637
			c0,0.713-0.177,1.311-0.527,1.791c-0.35,0.48-0.844,0.721-1.475,0.721c-0.162,0-0.324-0.018-0.461-0.053
			c-0.145-0.033-0.284-0.086-0.411-0.158c-0.129-0.076-0.284-0.189-0.459-0.357v2.105H62.362z M63.634,65.412
			c0.178,0.197,0.348,0.324,0.5,0.395c0.152,0.068,0.309,0.104,0.471,0.104c0.342,0,0.593-0.164,0.755-0.482
			c0.165-0.328,0.251-0.703,0.251-1.123c0-0.438-0.079-0.775-0.238-1.023c-0.162-0.256-0.385-0.379-0.677-0.379
			c-0.18,0-0.362,0.063-0.55,0.193c-0.18,0.123-0.354,0.293-0.512,0.508V65.412z"/>
		<rect x="68.206" y="60.039" clip-path="url(#SVGID_12_)" fill="#0B5FA5" width="1.277" height="6.566"/>
		<path clip-path="url(#SVGID_12_)" fill="#0B5FA5" d="M73.394,66.115c-0.188,0.168-0.342,0.295-0.479,0.369
			c-0.134,0.076-0.274,0.131-0.423,0.172c-0.147,0.029-0.302,0.053-0.461,0.053c-0.426,0-0.763-0.129-1.019-0.379
			c-0.253-0.252-0.38-0.566-0.38-0.938c0-0.447,0.19-0.824,0.573-1.125c0.377-0.297,0.994-0.449,1.847-0.449h0.342v-0.414
			c0-0.281-0.079-0.469-0.241-0.564c-0.162-0.102-0.365-0.145-0.611-0.145c-0.492,0-0.988,0.131-1.496,0.408v-0.85
			c0.57-0.211,1.148-0.316,1.721-0.316c0.35,0,0.664,0.043,0.94,0.131c0.276,0.096,0.497,0.238,0.664,0.432
			c0.162,0.191,0.241,0.477,0.241,0.861v2.021c0,0.246,0.043,0.396,0.121,0.451c0.079,0.057,0.158,0.088,0.234,0.088
			c0.05,0,0.101-0.012,0.175-0.02l0.027,0.688c-0.269,0.08-0.509,0.119-0.717,0.119c-0.236,0-0.437-0.039-0.608-0.113
			c-0.175-0.076-0.304-0.238-0.397-0.48H73.394z M73.394,65.455v-0.932H73.09c-0.413,0-0.725,0.07-0.933,0.217
			c-0.2,0.143-0.301,0.318-0.301,0.537c0,0.176,0.061,0.311,0.185,0.426c0.122,0.111,0.269,0.168,0.434,0.168
			c0.15,0,0.307-0.037,0.458-0.102C73.082,65.697,73.237,65.588,73.394,65.455"/>
		<path clip-path="url(#SVGID_12_)" fill="#0B5FA5" d="M76.266,66.605v-4.564h1.272v0.855c0.228-0.352,0.481-0.6,0.76-0.742
			c0.281-0.146,0.563-0.217,0.847-0.217c0.375,0,0.699,0.113,0.965,0.34c0.269,0.236,0.401,0.6,0.401,1.102v3.227h-1.272v-2.922
			c0-0.254-0.026-0.418-0.074-0.508c-0.046-0.092-0.109-0.158-0.19-0.205c-0.083-0.043-0.172-0.068-0.276-0.068
			c-0.175,0-0.352,0.061-0.544,0.17c-0.19,0.111-0.393,0.332-0.616,0.664v2.869H76.266z"/>
		<path clip-path="url(#SVGID_12_)" fill="#0B5FA5" d="M84.495,66.58c-0.302,0.086-0.545,0.129-0.717,0.129
			c-0.421,0-0.743-0.053-0.976-0.172c-0.226-0.115-0.398-0.264-0.514-0.459c-0.117-0.203-0.172-0.49-0.172-0.865v-2.404h-0.527
			v-0.768h0.527v-0.773l1.277-0.139v0.912h1.009v0.768h-1.009v2.238c0,0.33,0.058,0.549,0.18,0.668
			c0.122,0.115,0.294,0.172,0.53,0.172c0.111,0,0.241-0.018,0.393-0.053V66.58z"/>
		<path clip-path="url(#SVGID_12_)" fill="#0B5FA5" d="M87.656,66.709c-0.515,0-0.953-0.096-1.318-0.287
			c-0.37-0.197-0.646-0.479-0.839-0.854c-0.195-0.373-0.292-0.785-0.292-1.246c0-0.455,0.096-0.873,0.284-1.244
			c0.19-0.369,0.466-0.652,0.839-0.85c0.37-0.197,0.806-0.291,1.326-0.291c0.515,0,0.955,0.094,1.32,0.291
			c0.365,0.197,0.642,0.48,0.833,0.85c0.192,0.371,0.292,0.789,0.292,1.244c0,0.461-0.099,0.873-0.292,1.246
			c-0.195,0.375-0.471,0.656-0.839,0.854C88.606,66.613,88.167,66.709,87.656,66.709 M87.656,65.939
			c0.357,0,0.633-0.154,0.808-0.463c0.188-0.297,0.277-0.689,0.277-1.154c0-0.461-0.089-0.85-0.277-1.156
			c-0.175-0.309-0.451-0.463-0.808-0.463c-0.365,0-0.634,0.154-0.816,0.463c-0.185,0.307-0.276,0.695-0.276,1.156
			c0,0.465,0.092,0.857,0.276,1.154C87.021,65.785,87.291,65.939,87.656,65.939"/>
		<rect x="91.267" y="60.039" clip-path="url(#SVGID_12_)" fill="#0B5FA5" width="1.274" height="6.566"/>
		<path clip-path="url(#SVGID_12_)" fill="#0B5FA5" d="M96.154,66.709c-0.51,0-0.95-0.096-1.313-0.287
			c-0.369-0.197-0.648-0.479-0.839-0.854c-0.194-0.373-0.288-0.785-0.288-1.246c0-0.455,0.094-0.873,0.283-1.244
			c0.19-0.369,0.466-0.652,0.837-0.85c0.367-0.197,0.809-0.291,1.32-0.291c0.517,0,0.957,0.094,1.327,0.291
			c0.362,0.197,0.643,0.48,0.835,0.85c0.189,0.371,0.285,0.789,0.285,1.244c0,0.461-0.096,0.873-0.285,1.246
			c-0.196,0.375-0.475,0.656-0.842,0.854C97.107,66.613,96.67,66.709,96.154,66.709 M96.154,65.939c0.362,0,0.636-0.154,0.818-0.463
			c0.183-0.297,0.271-0.689,0.271-1.154c0-0.461-0.089-0.85-0.271-1.156c-0.183-0.309-0.456-0.463-0.818-0.463
			c-0.357,0-0.634,0.154-0.812,0.463c-0.18,0.307-0.274,0.695-0.274,1.156c0,0.465,0.095,0.857,0.274,1.154
			C95.52,65.785,95.796,65.939,96.154,65.939"/>
		<path clip-path="url(#SVGID_12_)" fill="#0B5FA5" d="M99.803,68.023l0.102-0.896c0.526,0.236,1.019,0.352,1.492,0.352
			c0.441,0,0.771-0.09,0.992-0.273c0.22-0.178,0.334-0.496,0.334-0.963v-0.629c-0.138,0.297-0.334,0.533-0.596,0.717
			c-0.259,0.182-0.573,0.275-0.936,0.275s-0.682-0.088-0.958-0.266c-0.276-0.18-0.489-0.447-0.642-0.805
			c-0.148-0.352-0.22-0.752-0.22-1.188c0-0.688,0.18-1.258,0.534-1.725c0.357-0.459,0.853-0.686,1.488-0.686
			c0.167,0,0.322,0.01,0.461,0.051c0.137,0.027,0.274,0.08,0.4,0.156c0.127,0.066,0.284,0.193,0.467,0.355l0.134-0.459h1.142v3.484
			c0,0.92-0.092,1.541-0.274,1.855c-0.188,0.322-0.467,0.563-0.847,0.723c-0.375,0.162-0.809,0.242-1.303,0.242
			C101.028,68.346,100.44,68.234,99.803,68.023 M102.723,64.902v-1.68c-0.183-0.205-0.353-0.336-0.505-0.402
			c-0.152-0.072-0.306-0.104-0.448-0.104c-0.314,0-0.566,0.141-0.758,0.424c-0.185,0.281-0.282,0.666-0.282,1.145
			c0,0.414,0.074,0.742,0.229,0.977c0.148,0.238,0.364,0.352,0.653,0.352c0.205,0,0.397-0.053,0.581-0.176
			C102.383,65.32,102.558,65.145,102.723,64.902"/>
		<path clip-path="url(#SVGID_12_)" fill="#0B5FA5" d="M105.589,60.24h1.272v1.027h-1.272V60.24z M105.589,62.041h1.272v4.564
			h-1.272V62.041z"/>
		<path clip-path="url(#SVGID_12_)" fill="#0B5FA5" d="M111.903,66.502c-0.52,0.137-1.004,0.207-1.458,0.207
			c-0.801,0-1.401-0.234-1.805-0.691c-0.402-0.465-0.605-1.029-0.605-1.701c0-0.701,0.216-1.275,0.639-1.719
			c0.424-0.443,1.054-0.66,1.881-0.66c0.378,0,0.816,0.057,1.315,0.174v0.895c-0.515-0.166-0.923-0.25-1.227-0.25
			c-0.437,0-0.752,0.164-0.953,0.488c-0.199,0.32-0.297,0.678-0.297,1.064c0,0.299,0.054,0.576,0.173,0.84
			c0.114,0.26,0.278,0.447,0.481,0.566c0.207,0.117,0.443,0.178,0.702,0.178c0.375,0,0.76-0.078,1.153-0.242V66.502z"/>
		<polygon clip-path="url(#SVGID_12_)" fill="#0B5FA5" points="112.885,66.605 112.885,65.785 115.6,62.809 113.004,62.809 
			113.004,62.041 117.128,62.041 117.128,62.809 114.415,65.785 117.177,65.785 117.177,66.605 		"/>
		<path clip-path="url(#SVGID_12_)" fill="#0B5FA5" d="M118.366,66.605v-4.564h1.271v0.855c0.23-0.352,0.488-0.6,0.764-0.742
			c0.276-0.146,0.563-0.217,0.849-0.217c0.375,0,0.695,0.113,0.964,0.34c0.268,0.236,0.404,0.6,0.404,1.102v3.227h-1.276v-2.922
			c0-0.254-0.021-0.418-0.069-0.508c-0.051-0.092-0.113-0.158-0.197-0.205c-0.081-0.043-0.173-0.068-0.271-0.068
			c-0.173,0-0.36,0.061-0.548,0.17c-0.19,0.111-0.396,0.332-0.619,0.664v2.869H118.366z"/>
		<path clip-path="url(#SVGID_12_)" fill="#0B5FA5" d="M127.984,66.451c-0.599,0.172-1.171,0.258-1.706,0.258
			c-0.515,0-0.961-0.094-1.345-0.275c-0.385-0.186-0.681-0.473-0.885-0.867c-0.207-0.387-0.315-0.816-0.315-1.281
			c0-0.422,0.09-0.818,0.27-1.18c0.171-0.359,0.429-0.648,0.763-0.854c0.337-0.211,0.75-0.314,1.239-0.314
			c0.601,0,1.083,0.184,1.441,0.559c0.36,0.365,0.538,1.061,0.538,2.072h-2.902c0.025,0.307,0.099,0.549,0.213,0.727
			c0.119,0.178,0.27,0.318,0.469,0.42c0.198,0.107,0.459,0.156,0.791,0.156c0.421,0,0.897-0.094,1.43-0.285V66.451z M125.059,63.873
			h1.675c0-0.424-0.071-0.717-0.213-0.9c-0.145-0.176-0.332-0.27-0.558-0.27c-0.248,0-0.448,0.1-0.61,0.299
			C125.199,63.201,125.1,63.49,125.059,63.873"/>
	</g>
</g>
</svg>
